SplineFontDB: 3.2
FontName: NameItRounded-Bold
FullName: NameIt Rounded Bold
FamilyName: NameIt Rounded
Weight: Bold
Copyright: Copyright (c) 2022 by 5@xes. All rights reserved.
UComments: "Font designed for optimal FDM 3D Printing.+AAoACgAA-Specification:+AAoA   -  Must be print easily with a 0.4 nozzle using Cura 5.0+AAoA   - Easy printing means:+AAoA           -  Printing a single outer contour,+AAoA           -  No interior infill+AAoA           -  Continuous motion that minimizes letter wraping when printing the first layer"
Version: 1.00 2022
ItalicAngle: 0
UnderlinePosition: -100
UnderlineWidth: 50
Ascent: 835
Descent: 165
InvalidEm: 0
sfntRevision: 0x00010000
LayerCount: 2
Layer: 0 1 "Arri+AOgA-re" 1
Layer: 1 1 "Avant" 0
XUID: [1021 378 143806488 18701]
StyleMap: 0x0020
FSType: 4
OS2Version: 3
OS2_WeightWidthSlopeOnly: 0
OS2_UseTypoMetrics: 0
CreationTime: 1656082097
ModificationTime: 1676366759
PfmFamily: 81
TTFWeight: 700
TTFWidth: 5
LineGap: 0
VLineGap: 0
Panose: 0 0 0 0 0 0 0 0 0 0
OS2TypoAscent: 835
OS2TypoAOffset: 0
OS2TypoDescent: -165
OS2TypoDOffset: 0
OS2TypoLinegap: 235
OS2WinAscent: 960
OS2WinAOffset: 0
OS2WinDescent: 240
OS2WinDOffset: 0
HheadAscent: 952
HheadAOffset: 0
HheadDescent: -283
HheadDOffset: 0
OS2SubXSize: 700
OS2SubYSize: 650
OS2SubXOff: 0
OS2SubYOff: 140
OS2SupXSize: 700
OS2SupYSize: 650
OS2SupXOff: 0
OS2SupYOff: 477
OS2StrikeYSize: 50
OS2StrikeYPos: 250
OS2CapHeight: 800
OS2XHeight: 400
OS2Vendor: '    '
OS2CodePages: 20000111.40000000
OS2UnicodeRanges: 800000af.5000204a.00000000.00000000
MacStyle: 1
Lookup: 258 0 0 "'kern' Cr+AOkA-nage horizontal dans Latin lookup 0" { "sous-table 'kern' Cr+AOkA-nage horizontal dans Latin lookup 0"  } ['kern' ('DFLT' <'dflt' > 'latn' <'dflt' > ) ]
MarkAttachClasses: 1
DEI: 91125
TtTable: prep
PUSHW_1
 0
CALL
SVTCA[y-axis]
PUSHW_3
 1
 1
 2
CALL
SVTCA[x-axis]
PUSHW_3
 2
 3
 2
CALL
SVTCA[x-axis]
PUSHW_8
 2
 38
 34
 26
 19
 12
 0
 8
CALL
PUSHW_8
 3
 69
 57
 44
 32
 19
 0
 8
CALL
PUSHW_8
 4
 41
 34
 26

StartChar: Eth
Encoding: 208 208 0
Width: 599
Flags: W
LayerCount: 2
Fore
SplineSet
87 304 m 2,0,-1
 87 65 l 2,1,2
 87 40 87 40 91 28 c 0,3,4
 100 0 100 0 152 0 c 2,5,-1
 304 0 l 2,6,7
 373 0 373 0 424 30 c 0,8,9
 529 91 529 91 529 231 c 2,10,-1
 529 474 l 2,11,12
 529 577 529 577 469 640 c 0,13,14
 406 706 406 706 304 706 c 2,15,-1
 152 706 l 2,16,17
 125 706 125 706 106 687 c 128,-1,18
 87 668 87 668 87 641 c 2,19,-1
 86 427 l 1,20,-1
 62 427 l 2,21,22
 36 427 36 427 18 409 c 256,23,24
 0 391 0 391 0 365.5 c 128,-1,25
 0 340 0 340 18 322 c 256,26,27
 36 304 36 304 62 304 c 2,28,-1
 87 304 l 2,0,-1
233 574 m 1,29,-1
 296 574 l 2,30,31
 331 574 331 574 349 558 c 0,32,33
 384 528 384 528 384 469 c 2,34,-1
 384 237 l 2,35,36
 384 213 384 213 379 194 c 0,37,38
 362 132 362 132 296 132 c 2,39,-1
 233 132 l 1,40,-1
 233 303 l 2,41,-1
 263 304 l 2,42,43
 290 305 290 305 307 322 c 256,44,45
 325 340 325 340 325 365.5 c 128,-1,46
 325 391 325 391 307 409 c 256,47,48
 289 427 289 427 263 427 c 2,49,-1
 233 427 l 1,50,-1
 233 574 l 1,29,-1
EndSplineSet
Validated: 9
EndChar

StartChar: eth
Encoding: 240 240 1
Width: 599
Flags: W
LayerCount: 2
Fore
SplineSet
87 304 m 2,0,-1
 87 65 l 2,1,2
 87 51 87 51 92.5 39.5 c 0,3,4
 111 0 111 0 152 0 c 2,5,-1
 304 0 l 2,6,7
 373 0 373 0 424 30 c 0,8,9
 529 91 529 91 529 231 c 2,10,-1
 529 474 l 2,11,12
 529 577 529 577 469 640 c 0,13,14
 406 706 406 706 304 706 c 2,15,-1
 152 706 l 2,16,17
 125 706 125 706 106 687 c 128,-1,18
 87.1267605634 668.126760563 87.1267605634 668.126760563 87 641 c 2,19,-1
 86 427 l 1,20,-1
 62 427 l 2,21,22
 36 427 36 427 18 409 c 256,23,24
 0 391 0 391 0 365.5 c 128,-1,25
 0 340 0 340 18 322 c 256,26,27
 36 304 36 304 62 304 c 2,28,-1
 87 304 l 2,0,-1
72.4864864865 427 m 1025,29,-1
234 574 m 5,30,-1
 296 574 l 2,31,32
 331 574 331 574 349 558.5 c 0,33,34
 384 528.361111111 384 528.361111111 384 469 c 2,35,-1
 384 237 l 2,36,37
 384 213 384 213 379 194 c 0,38,39
 362 132 362 132 296 132 c 2,40,-1
 233 132 l 1,41,-1
 233 303 l 2,42,-1
 263 304 l 2,43,44
 290 305 290 305 307 322 c 256,45,46
 325 340 325 340 325 365.5 c 128,-1,47
 325 391 325 391 307 409 c 256,48,49
 289 427 289 427 263 427 c 2,50,-1
 232 427 l 1,51,-1
 234 574 l 5,30,-1
EndSplineSet
Validated: 9
EndChar

StartChar: Lslash
Encoding: 256 321 2
Width: 529
Flags: W
LayerCount: 2
Fore
SplineSet
83 234 m 1,0,1
 75 226 75 226 57.5 226 c 128,-1,2
 40 226 40 226 27 234 c 0,3,4
 0 251 0 251 0 282 c 0,5,6
 0 296 0 296 8 309.5 c 128,-1,7
 16 323 16 323 29 330 c 2,8,-1
 82 358 l 1,9,10
 93 365 93 365 93 377 c 2,11,-1
 93 641 l 2,12,13
 93 668 93 668 112 687 c 256,14,15
 131 706 131 706 158 706 c 2,16,-1
 173 706 l 2,17,18
 202 706 202 706 219 687 c 0,19,20
 238 668 238 668 238 641 c 2,21,-1
 238 454 l 2,22,23
 238 450 238 450 242 448 c 256,24,25
 246 446 246 446 249 448 c 2,26,-1
 296 473 l 2,27,28
 309 480 309 480 323 480 c 128,-1,29
 337 480 337 480 349 473 c 128,-1,30
 361 466 361 466 378 424 c 1,31,32
 378 409 378 409 370 395.5 c 128,-1,33
 362 382 362 382 349 376 c 2,34,-1
 250 322 l 1,35,36
 245 321 245 321 241.5 315 c 128,-1,37
 238 309 238 309 238 304 c 2,38,-1
 238 140 l 2,39,40
 238 130 238 130 248 130 c 2,41,-1
 404 130 l 2,42,43
 445 130 445 130 464 90 c 0,44,45
 469 79 469 79 469 65 c 256,46,47
 469 40 469 40 450 19 c 0,48,49
 431 0 431 0 404 0 c 2,50,-1
 158 0 l 2,51,52
 131 0 131 0 112 19 c 256,53,54
 93 38 93 38 93 65 c 2,55,-1
 93 229 l 2,56,57
 93 232 93 232 90.5 234 c 128,-1,58
 88 236 88 236 85 234 c 1,59,-1
 83 234 l 1,0,1
EndSplineSet
Validated: 1
EndChar

StartChar: lslash
Encoding: 257 322 3
Width: 529
Flags: W
LayerCount: 2
Fore
SplineSet
238 140 m 2,0,1
 238 130 238 130 248 130 c 2,2,-1
 404 130 l 2,3,4
 444.608695652 130 444.608695652 130 463.5 90.5 c 0,5,6
 469 79 469 79 469 65 c 256,7,8
 469 40.375 469 40.375 450 19 c 0,9,10
 431 0 431 0 404 0 c 2,11,-1
 158 0 l 2,12,13
 131 0 131 0 112 19 c 256,14,15
 93 38 93 38 93 65 c 2,16,-1
 93 229 l 2,17,18
 93 232 93 232 90.5 234 c 128,-1,19
 88 236 88 236 85 234 c 1,20,-1
 83 234 l 1,21,-1
 82 233 l 1,22,23
 53 218 53 218 27 234 c 0,24,25
 0 249.75 0 249.75 0 282 c 0,26,27
 0 296 0 296 8 309.5 c 128,-1,28
 16 323 16 323 29 330 c 2,29,-1
 82 358 l 2,30,31
 93 364.6 93 364.6 93 377 c 2,32,-1
 93 641 l 2,33,34
 93 668 93 668 112 687 c 256,35,36
 131 706 131 706 158 706 c 2,37,-1
 173 706 l 2,38,39
 202 706 202 706 219 687 c 0,40,41
 238 668 238 668 238 641 c 2,42,-1
 238 454 l 2,43,44
 238 450 238 450 242 448 c 256,45,46
 246 446 246 446 249 448 c 2,47,-1
 296 473 l 2,48,49
 322.917525773 488.381443299 322.917525773 488.381443299 351 472 c 0,50,51
 361.636363636 464.909090909 361.636363636 464.909090909 378 424 c 1,52,53
 378 409 378 409 370 395.5 c 128,-1,54
 362 382 362 382 349 376 c 2,55,-1
 250 322 l 1,56,57
 245 321 245 321 241.5 315 c 128,-1,58
 238 309 238 309 238 304 c 2,59,-1
 238 140 l 2,0,1
EndSplineSet
Validated: 33
EndChar

StartChar: Thorn
Encoding: 222 222 8
Width: 514
Flags: W
LayerCount: 2
Fore
SplineSet
358 536 m 0,0,1
 444 473.454545455 444 473.454545455 444 365 c 0,2,3
 444 257.545454545 444 257.545454545 358 195 c 0,4,5
 331.470588235 175.705882353 331.470588235 175.705882353 280 161 c 0,6,7
 251 155 251 155 220 155 c 2,8,-1
 155 155 l 2,9,10
 151 155 151 155 148 152 c 256,11,12
 145 149 145 149 145 145 c 2,13,-1
 145 73 l 2,14,15
 145 42 145 42 124 21 c 256,16,17
 103 0 103 0 72.5 0 c 128,-1,18
 42 0 42 0 21 21 c 256,19,20
 0 42 0 42 0 73 c 2,21,-1
 0 633 l 2,22,23
 0 662 0 662 21 685 c 0,24,25
 42 706 42 706 72.5 706 c 128,-1,26
 103 706 103 706 124 685 c 0,27,28
 145 662 145 662 145 633 c 2,29,-1
 145 586 l 2,30,31
 145 582 145 582 148 579 c 256,32,33
 151 576 151 576 155 576 c 2,34,-1
 220 576 l 2,35,36
 303 576 303 576 358 536 c 0,0,1
213 284 m 2,37,38
 273.285714286 284 273.285714286 284 293 330 c 0,39,40
 299 346 299 346 299 365.5 c 0,41,42
 299 405.692307692 299 405.692307692 275 426 c 0,43,44
 263 437 263 437 247 441 c 0,45,46
 232 447 232 447 213 447 c 2,47,-1
 155 447 l 2,48,49
 151 447 151 447 148 444 c 256,50,51
 145 441 145 441 145 437 c 2,52,-1
 145 294 l 2,53,54
 145 290 145 290 148 287 c 256,55,56
 151 284 151 284 155 284 c 2,57,-1
 213 284 l 2,37,38
EndSplineSet
Validated: 1
EndChar

StartChar: thorn
Encoding: 254 254 9
Width: 514
Flags: W
LayerCount: 2
Fore
SplineSet
358 536 m 0,0,1
 444 473.454545455 444 473.454545455 444 365.5 c 128,-1,2
 444 257.545454545 444 257.545454545 358 195 c 0,3,4
 331.470588235 175.705882353 331.470588235 175.705882353 280 161 c 0,5,6
 251 155 251 155 220 155 c 2,7,-1
 155 155 l 2,8,9
 151 155 151 155 148 152 c 256,10,11
 145 149 145 149 145 145 c 2,12,-1
 145 73 l 2,13,14
 145 42 145 42 124 21 c 256,15,16
 103 0 103 0 72.5 0 c 128,-1,17
 42 0 42 0 21 21 c 256,18,19
 0 42 0 42 0 73 c 2,20,-1
 0 633 l 2,21,22
 0 662 0 662 21 685 c 0,23,24
 42 706 42 706 72.5 706 c 128,-1,25
 103 706 103 706 124 685 c 0,26,27
 145 662 145 662 145 633 c 2,28,-1
 145 586 l 2,29,30
 145 582 145 582 148 579 c 256,31,32
 151 576 151 576 155 576 c 2,33,-1
 220 576 l 2,34,35
 303 576 303 576 358 536 c 0,0,1
213 284 m 2,36,37
 273.285714286 284 273.285714286 284 293 330 c 0,38,39
 299 346 299 346 299 365.5 c 0,40,41
 299 405.692307692 299 405.692307692 275 426 c 0,42,43
 263 437 263 437 247 441 c 0,44,45
 232 447 232 447 213 447 c 2,46,-1
 155 447 l 2,47,48
 151 447 151 447 148 444 c 256,49,50
 145 441 145 441 145 437 c 2,51,-1
 145 294 l 2,52,53
 145 290 145 290 148 287 c 256,54,55
 151 284 151 284 155 284 c 2,56,-1
 213 284 l 2,36,37
EndSplineSet
Validated: 1
EndChar

StartChar: onehalf
Encoding: 189 189 12
Width: 800
Flags: W
LayerCount: 2
Fore
SplineSet
623 434 m 1,0,1
 614 446 614 446 592 446 c 0,2,3
 557 446 557 446 535 417 c 0,4,5
 520 398 520 398 495 395 c 0,6,7
 470 392 470 392 453 405.5 c 0,8,9
 436 418 436 418 435 434 c 0,10,11
 432 472 432 472 469 503 c 0,12,13
 497 528 497 528 530.5 536 c 0,14,15
 564 544 564 544 582 544 c 0,16,17
 660 544 660 544 702 501 c 0,18,19
 744 458 744 458 744 394 c 0,20,21
 744 358 744 358 731 330 c 256,22,23
 713 291 713 291 705 278.5 c 0,24,25
 697 266 697 266 690.5 257.5 c 0,26,27
 684 249 684 249 675.5 237 c 0,28,29
 667 225 667 225 644 195 c 0,30,31
 621 165 621 165 607 144 c 0,32,33
 593 123 593 123 586.5 114.5 c 0,34,35
 580 106 580 106 582 102 c 0,36,37
 584 98 584 98 589 98 c 2,38,-1
 702 98 l 2,39,40
 732 98 732 98 746 70 c 0,41,42
 750 62 750 62 750 47 c 0,43,44
 750 32 750 32 736 18 c 0,45,46
 723 4 723 4 703 4 c 2,47,-1
 468 4 l 2,48,49
 438 4 438 4 424 32 c 256,50,51
 409 60 409 60 429 83 c 2,52,-1
 561 248 l 2,53,54
 573 263 573 263 592 290 c 0,55,56
 638 352 638 352 638 394 c 0,57,58
 638 421 638 421 624 434 c 1,59,-1
 624 434 l 1,60,-1
 623 434 l 1,0,1
61 740 m 2,61,-1
 50 740 l 2,62,63
 30 740 30 740 16 754 c 256,64,65
 2 768 2 768 1 789 c 256,66,67
 1 810 1 810 16 824 c 256,68,69
 30 838 30 838 50 838 c 2,70,-1
 129 838 l 2,71,72
 160 838 160 838 174 808 c 0,73,74
 178 799 178 799 178 789 c 2,75,-1
 178 357 l 2,76,77
 178 338 178 338 163 322 c 0,78,79
 149 308 149 308 129 308 c 2,80,-1
 117 308 l 2,81,82
 97 308 97 308 82 322 c 0,83,84
 68 337 68 337 69 357 c 2,85,-1
 69 733 l 2,86,87
 69 736 69 736 67 738 c 256,88,89
 64 740 64 740 61 740 c 2,61,-1
EndSplineSet
Refer: 35 47 N 0.999939 0 0 1 126 76 2
Validated: 37
EndChar

StartChar: onequarter
Encoding: 188 188 13
Width: 700
Flags: W
LayerCount: 2
Fore
SplineSet
61 740 m 2,0,-1
 50 740 l 2,1,2
 30 740 30 740 16 754 c 256,3,4
 2 768 2 768 1 789 c 256,5,6
 1 810 1 810 16 824 c 256,7,8
 30 838 30 838 50 838 c 2,9,-1
 129 838 l 2,10,11
 160 838 160 838 174 808 c 0,12,13
 178 799 178 799 178 789 c 2,14,-1
 178 357 l 2,15,16
 178 338 178 338 163 322 c 0,17,18
 149 308 149 308 129 308 c 2,19,-1
 117 308 l 2,20,21
 97 308 97 308 82 322 c 0,22,23
 68.9333333333 336 68.9333333333 336 68.9333333333 354.355555556 c 0,24,25
 68.9333333333 355.666666667 68.9333333333 355.666666667 69 357 c 2,26,-1
 69 733 l 2,27,28
 69 736 69 736 67 738 c 256,29,30
 64 740 64 740 61 740 c 2,0,-1
644 97 m 2,31,-1
 640 97 l 2,32,33
 637 97 637 97 635 95 c 256,34,35
 633 93 633 93 633 90 c 2,36,-1
 633 54 l 2,37,38
 633 30 633 30 618 16 c 0,39,40
 601 -0.0555555555556 601 -0.0555555555556 582.216049383 -0.0555555555556 c 0,41,42
 581.111111111 -0.0555555555556 581.111111111 -0.0555555555556 580 0 c 256,43,44
 561 1 561 1 543 16 c 0,45,46
 527 29 527 29 527 54 c 2,47,-1
 527 90 l 2,48,49
 527 97 527 97 520 97 c 2,50,-1
 440 97 l 1,51,-1
 358 96 l 2,52,53
 329 96 329 96 317 119 c 0,54,55
 309.652173913 132.565217391 309.652173913 132.565217391 309.652173913 145.810964083 c 0,56,57
 309.652173913 156 309.652173913 156 314 166 c 2,58,-1
 472 501 l 2,59,60
 479 514 479 514 491 522 c 0,61,62
 503 530 503 530 518 530 c 0,63,64
 548 530 548 530 561 506 c 0,65,66
 568.84 492 568.84 492 568.84 478.6272 c 0,67,68
 568.84 468.12 568.84 468.12 564 458 c 2,69,-1
 442 202 l 2,70,71
 441 198 441 198 443 195 c 0,72,73
 445 192 445 192 450 192 c 2,74,-1
 520 192 l 2,75,76
 523 192 523 192 525 194 c 256,77,78
 527 196 527 196 527 199 c 2,79,-1
 527 244 l 2,80,81
 527 268 527 268 543 282 c 0,82,83
 559 296 559 296 580 297 c 256,84,85
 581.294117647 297.058823529 581.294117647 297.058823529 582.567474048 297.058823529 c 0,86,87
 602.941176471 297.058823529 602.941176471 297.058823529 618 282 c 0,88,89
 633 267 633 267 633 244 c 2,90,-1
 633 199 l 2,91,92
 633 198 633 198 634 196 c 0,93,-1
 635 194 l 0,94,-1
 640 192 l 2,95,-1
 644 192 l 2,96,97
 663 192 663 192 676 178 c 0,98,99
 690 164 690 164 690 144 c 0,100,101
 690 125 690 125 677 111 c 0,102,103
 664 97 664 97 644 97 c 2,31,-1
EndSplineSet
Refer: 35 47 N 0.999939 0 0 1 126 76 2
Validated: 1
EndChar

StartChar: uni00B9
Encoding: 185 185 14
Width: 269
VWidth: 838
Flags: W
LayerCount: 2
Fore
SplineSet
51.25390625 765.25390625 m 132,-1,1
 51.25390625 793.791992188 51.25390625 793.791992188 71.357421875 813.896484375 c 132,-1,2
 91.4619140625 834 91.4619140625 834 120 834 c 6,3,-1
 198.75 834 l 6,4,5
 227.241210938 834 227.241210938 834 246.131835938 815.109375 c 4,6,7
 255.177734375 806.063476562 255.177734375 806.063476562 261.336914062 793.185546875 c 132,-1,8
 267.49609375 780.307617188 267.49609375 780.307617188 267.49609375 765.25390625 c 6,9,-1
 267.49609375 333.25390625 l 6,10,11
 267.49609375 307.17578125 267.49609375 307.17578125 248.208984375 285.478515625 c 4,12,13
 247.811523438 285.030273438 247.811523438 285.030273438 247.385742188 284.60546875 c 4,14,15
 227.288085938 264.5078125 227.288085938 264.5078125 198.75 264.5078125 c 6,16,-1
 186.75 264.5078125 l 6,17,18
 158.211914062 264.5078125 158.211914062 264.5078125 138.107421875 284.611328125 c 4,19,20
 137.727539062 284.9921875 137.727539062 284.9921875 137.368164062 285.391601562 c 4,21,22
 118.75390625 306.07421875 118.75390625 306.07421875 118.75390625 333.25390625 c 6,23,-1
 118.75390625 696.517578125 l 5,24,25
 91.021484375 696.948242188 91.021484375 696.948242188 71.1376953125 716.83203125 c 132,-1,0
 51.25390625 736.715820312 51.25390625 736.715820312 51.25390625 765.25390625 c 132,-1,1
EndSplineSet
Validated: 1
EndChar

StartChar: threequarters
Encoding: 190 190 15
Width: 830
Flags: W
LayerCount: 2
Fore
SplineSet
190 730 m 1,0,-1
 190 734 l 1,1,-1
 188 735 l 1,2,-1
 44 735 l 2,3,4
 24 735 24 735 10 749.5 c 0,5,6
 -4 764 -4 764 -4 784 c 256,7,8
 -4 812 -4 812 17 825 c 0,9,10
 31 833 31 833 44 833 c 2,11,-1
 269 833 l 2,12,13
 285 833 285 833 299 825 c 0,14,15
 325 810 325 810 328 775 c 0,16,17
 329 759 329 759 320 745 c 2,18,-1
 239 613 l 2,19,20
 235 606 235 606 241 603.5 c 0,21,22
 247 601 247 601 251 599 c 0,23,24
 255 597 255 597 259 595 c 256,25,26
 263 593 263 593 267 590.5 c 0,27,28
 271 588 271 588 275.5 585 c 0,29,30
 280 582 280 582 288.5 576.5 c 0,31,32
 297 571 297 571 315 550 c 0,33,34
 354 506 354 506 341 422 c 0,35,36
 334 375 334 375 293.5 336.5 c 0,37,38
 253 298 253 298 181 293 c 256,39,40
 143 290 143 290 97 308 c 0,41,42
 86 312 86 312 59 329 c 0,43,44
 51 334 51 334 46 339.5 c 0,45,46
 41 345 41 345 32.5 353.5 c 0,47,48
 24 362 24 362 19 372.5 c 0,49,50
 14 383 14 383 10 391.5 c 0,51,52
 6 400 6 400 7.5 413.5 c 0,53,54
 9 427 9 427 15 436 c 0,55,56
 21 445 21 445 33 453 c 0,57,58
 45 461 45 461 56.5 461 c 0,59,60
 68 461 68 461 73 459 c 0,61,62
 82 456 82 456 107 431 c 0,63,64
 108 429 108 429 109.5 424.5 c 0,65,66
 111 420 111 420 118 413 c 2,67,-1
 124 408 l 1,68,69
 153 379 153 379 198 393 c 0,70,71
 221 400 221 400 233 423 c 0,72,73
 250 456 250 456 230 482 c 0,74,75
 221 495 221 495 209 503 c 0,76,77
 196 513 196 513 180 518 c 1,78,-1
 179 519 l 1,79,-1
 177 519 l 1,80,-1
 176 519 l 1,81,-1
 175 519 l 1,82,-1
 165 524 l 1,83,-1
 145 531 l 1,84,-1
 135 536 l 2,85,86
 116 545 116 545 107 566 c 0,87,88
 100 585 100 585 113 607 c 1,89,-1
 190 730 l 1,0,-1
763 89 m 2,90,-1
 760 89 l 2,91,92
 759 88 759 88 754.75 86.75 c 256,93,94
 752.5 86.1363636364 752.5 86.1363636364 752.5 81.5 c 2,95,-1
 752.5 45.5 l 2,96,97
 751.949152542 22.9152542373 751.949152542 22.9152542373 737.5 8 c 0,98,99
 722 -8 722 -8 700 -7.75 c 256,100,101
 678 -8 678 -8 662.5 8 c 0,102,103
 646.75 25.2741935484 646.75 25.2741935484 646.75 45.5 c 2,104,-1
 646.75 81.5 l 2,105,106
 647 89 647 89 639.25 89 c 2,107,-1
 559 89 l 1,108,-1
 478 88.25 l 2,109,110
 449 88 449 88 436.75 110.75 c 0,111,112
 422.928495233 135.126108407 422.928495233 135.126108407 433.75 158 c 2,113,-1
 592 492.5 l 2,114,115
 598 504 598 504 610.75 513.5 c 0,116,117
 622 522 622 522 637.375 521.75 c 0,118,119
 668 522 668 522 680.5 497.75 c 0,120,121
 694.036923077 471.92957265 694.036923077 471.92957265 683.5 449.75 c 2,122,-1
 562 194 l 2,123,124
 559 188 559 188 562.75 186.5 c 0,125,126
 569 184 569 184 569.5 183.5 c 2,127,-1
 639.25 183.5 l 2,128,129
 642 186 642 186 644.5 185.75 c 256,130,131
 646.75 185.975 646.75 185.975 646.75 191 c 2,132,-1
 646.75 236 l 2,133,134
 647.025316456 258.025316456 647.025316456 258.025316456 662.5 273.5 c 0,135,136
 679 290 679 290 700 289.25 c 256,137,138
 727 288 727 288 737.5 273.5 c 0,139,140
 752.5 249.189655172 752.5 249.189655172 752.5 236 c 2,141,-1
 752.5 191 l 2,142,143
 752 190 752 190 753.25 188.375 c 0,144,145
 754 186 754 186 754.75 185.75 c 0,146,147
 760 184 760 184 760 183.5 c 2,148,-1
 763 183.5 l 2,149,150
 783 184 783 184 796 170 c 0,151,152
 809 155 809 155 809.5 135.875 c 0,153,154
 810 118 810 118 796.375 102.875 c 0,155,156
 784 89 784 89 763 89 c 2,90,-1
EndSplineSet
Refer: 35 47 N 0.999939 0 0 1 246 60 2
Validated: 33
EndChar

StartChar: uni00B3
Encoding: 179 179 16
Width: 460
VWidth: 836
Flags: W
LayerCount: 2
Fore
SplineSet
178.052734375 561.3203125 m 0,0,1
 178.052734375 580.109375 178.052734375 580.109375 189.27734375 598.090820312 c 2,2,-1
 250.713867188 696.5078125 l 1,3,-1
 138 696.5078125 l 2,4,5
 109.461914062 696.5078125 109.461914062 696.5078125 89.357421875 716.611328125 c 128,-1,6
 69.25390625 736.715820312 69.25390625 736.715820312 69.25390625 765.55078125 c 0,7,8
 69.25390625 804.03515625 69.25390625 804.03515625 100.71484375 822.911132812 c 0,9,10
 119.196289062 834 119.196289062 834 138 834 c 2,11,-1
 362.25 834 l 2,12,13
 384.260742188 834 384.260742188 834 402.841796875 822.952148438 c 0,14,15
 441.0859375 800.211914062 441.0859375 800.211914062 441.4921875 757.151367188 c 0,16,17
 441.717773438 754.278320312 441.717773438 754.278320312 441.717773438 751.456054688 c 0,18,19
 441.717773438 731.9296875 441.717773438 731.9296875 430.918945312 714.83203125 c 0,20,21
 394.094726562 655.1640625 394.094726562 655.1640625 357.379882812 595.669921875 c 1,22,23
 360.150390625 594.2421875 360.150390625 594.2421875 363.16796875 592.431640625 c 128,-1,24
 366.185546875 590.62109375 366.185546875 590.62109375 370.517578125 588.2578125 c 128,-1,25
 374.850585938 585.89453125 374.850585938 585.89453125 386.749023438 577.961914062 c 128,-1,26
 398.647460938 570.029296875 398.647460938 570.029296875 407.602539062 561.07421875 c 128,-1,27
 416.557617188 552.120117188 416.557617188 552.120117188 423.3046875 544.5625 c 0,28,29
 458.186523438 505.494140625 458.186523438 505.494140625 458.186523438 442.076171875 c 0,30,31
 458.186523438 422.205078125 458.186523438 422.205078125 454.76171875 399.943359375 c 0,32,33
 446.512695312 346.323242188 446.512695312 346.323242188 400.821289062 303.107421875 c 128,-1,34
 354.93359375 259.701171875 354.93359375 259.701171875 275.935546875 254.05859375 c 0,35,36
 268.53515625 253.530273438 268.53515625 253.530273438 261.259765625 253.530273438 c 0,37,38
 219.974609375 253.530273438 219.974609375 253.530273438 182.73828125 270.555664062 c 0,39,40
 159.013671875 279.654296875 159.013671875 279.654296875 141.3125 293.73828125 c 0,41,42
 131.557617188 300.080078125 131.557617188 300.080078125 125.708984375 306.344726562 c 128,-1,43
 119.860351562 312.609375 119.860351562 312.609375 110.260742188 322.208984375 c 128,-1,44
 100.661132812 331.80859375 100.661132812 331.80859375 95.267578125 343.674804688 c 128,-1,45
 89.8740234375 355.541015625 89.8740234375 355.541015625 85.36328125 364.970703125 c 128,-1,46
 80.853515625 374.401367188 80.853515625 374.401367188 80.853515625 387.685546875 c 0,47,48
 80.853515625 427.698242188 80.853515625 427.698242188 115.604492188 450.6796875 c 0,49,50
 132.723632812 462 132.723632812 462 148.727539062 462 c 128,-1,51
 164.731445312 462 164.731445312 462 173.247070312 458.958984375 c 0,52,53
 205.810546875 447.329101562 205.810546875 447.329101562 217.41796875 422.663085938 c 0,54,55
 219.884765625 419.350585938 219.884765625 419.350585938 221.059570312 415.827148438 c 128,-1,56
 222.233398438 412.3046875 222.233398438 412.3046875 226.017578125 408.521484375 c 2,57,-1
 231.375 403.163085938 l 2,58,59
 245.369140625 390.252929688 245.369140625 390.252929688 264.712890625 390.252929688 c 0,60,61
 274.641601562 390.252929688 274.641601562 390.252929688 285.21484375 393.424804688 c 128,-1,62
 295.787109375 396.596679688 295.787109375 396.596679688 300.639648438 401.44921875 c 128,-1,63
 305.4921875 406.301757812 305.4921875 406.301757812 306.861328125 409.381835938 c 128,-1,64
 308.229492188 412.461914062 308.229492188 412.461914062 308.51953125 413.016601562 c 0,65,66
 313.434570312 422.4375 313.434570312 422.4375 313.434570312 432.181640625 c 0,67,68
 313.434570312 446.990234375 313.434570312 446.990234375 300.901367188 459.522460938 c 0,69,70
 296.572265625 463.852539062 296.572265625 463.852539062 293.65234375 465.741210938 c 128,-1,71
 290.733398438 467.629882812 290.733398438 467.629882812 290.106445312 468.109375 c 0,72,73
 280.016601562 475.825195312 280.016601562 475.825195312 267.438476562 480.024414062 c 0,74,75
 263.81640625 480.618164062 263.81640625 480.618164062 251.05078125 486.525390625 c 1,76,77
 230.803710938 494.024414062 230.803710938 494.024414062 230.09765625 494.349609375 c 2,78,-1
 220.282226562 498.880859375 l 2,79,80
 191.114257812 512.4921875 191.114257812 512.4921875 182.17578125 540.194335938 c 0,81,82
 178.052734375 550.537109375 178.052734375 550.537109375 178.052734375 561.3203125 c 0,0,1
EndSplineSet
Validated: 1
EndChar

StartChar: uni00B2
Encoding: 178 178 17
Width: 439
Flags: W
LayerCount: 2
Fore
SplineSet
249.333007812 698.5078125 m 4,0,1
 224.147460938 698.5078125 224.147460938 698.5078125 208.12109375 677.370117188 c 4,2,3
 184.986328125 646.858398438 184.986328125 646.858398438 143.446289062 646.858398438 c 4,4,5
 112.095703125 646.858398438 112.095703125 646.858398438 90.0009765625 668.953125 c 4,6,7
 73.8564453125 685.09765625 73.8564453125 685.09765625 72.4296875 705.069335938 c 4,8,9
 72.181640625 708.541992188 72.181640625 708.541992188 72.181640625 711.954101562 c 4,10,11
 72.181640625 756.216796875 72.181640625 756.216796875 113.583984375 790.030273438 c 4,12,13
 145.606445312 818.171875 145.606445312 818.171875 182.091796875 827.0859375 c 132,-1,14
 218.577148438 836 218.577148438 836 239 836 c 4,15,16
 325.764648438 836 325.764648438 836 373.379882812 786.822265625 c 132,-1,17
 420.99609375 737.645507812 420.99609375 737.645507812 420.99609375 666.00390625 c 4,18,19
 420.99609375 625.204101562 420.99609375 625.204101562 406.456054688 593.216796875 c 4,20,21
 387.7890625 552.150390625 387.7890625 552.150390625 378.888671875 539.486328125 c 132,-1,22
 369.98828125 526.822265625 369.98828125 526.822265625 363.64453125 518.23828125 c 132,-1,23
 357.299804688 509.655273438 357.299804688 509.655273438 349.017578125 497.608398438 c 132,-1,24
 340.736328125 485.561523438 340.736328125 485.561523438 317.798828125 455.252929688 c 132,-1,25
 294.862304688 424.943359375 294.862304688 424.943359375 285.181640625 410.826171875 c 132,-1,26
 275.500976562 396.708007812 275.500976562 396.708007812 271.17578125 390.5 c 5,27,-1
 359 390.5 l 6,28,29
 387.291015625 390.5 387.291015625 390.5 406.138671875 371.65234375 c 4,30,31
 414.692382812 363.098632812 414.692382812 363.098632812 420.844726562 350.794921875 c 132,-1,32
 426.99609375 338.4921875 426.99609375 338.4921875 426.99609375 316.978515625 c 132,-1,33
 426.99609375 295.465820312 426.99609375 295.465820312 407.267578125 275.736328125 c 132,-1,34
 387.538085938 256.0078125 387.538085938 256.0078125 359.75 256.0078125 c 6,35,-1
 125 256.0078125 l 6,36,37
 96.5361328125 256.0078125 96.5361328125 256.0078125 77.8115234375 274.732421875 c 4,38,39
 69.4794921875 283.064453125 69.4794921875 283.064453125 62.58984375 296.844726562 c 132,-1,40
 55.69921875 310.625 55.69921875 310.625 55.69921875 326.0859375 c 4,41,42
 55.69921875 348.255859375 55.69921875 348.255859375 71.2138671875 367.350585938 c 6,43,-1
 202.259765625 532.845703125 l 6,44,45
 213.731445312 547.4453125 213.731445312 547.4453125 233.415039062 574.018554688 c 4,46,47
 275.25390625 630.500976562 275.25390625 630.500976562 275.25390625 666.00390625 c 4,48,49
 275.25390625 684.1015625 275.25390625 684.1015625 267.724609375 690.794921875 c 4,50,51
 265.767578125 692.534179688 265.767578125 692.534179688 264.978515625 693.553710938 c 4,52,53
 261.145507812 698.5078125 261.145507812 698.5078125 249.333007812 698.5078125 c 4,0,1
EndSplineSet
Validated: 1
EndChar

StartChar: brokenbar
Encoding: 166 166 18
Width: 188
Flags: W
LayerCount: 2
Fore
SplineSet
-3 775.5 m 6,0,1
 -3 815.5 -3 815.5 33 830 c 4,2,3
 44 834.5 44 834.5 56 834.5 c 260,4,5
 78 834.5 78 834.5 110.5 798.5 c 4,6,7
 115 793.5 115 793.5 115 775.5 c 6,8,-1
 115 436.5 l 6,9,10
 115 411.5 115 411.5 97.896484375 394.500976562 c 4,11,12
 81 377.5 81 377.5 56 377.5 c 260,13,14
 31 377.5 31 377.5 14 394.5 c 132,-1,15
 -3 411.5 -3 411.5 -3 436.5 c 6,16,-1
 -3 775.5 l 6,0,1
0 261 m 2,17,18
 0 301 0 301 36 315.5 c 0,19,20
 47 320 47 320 59 320 c 256,21,22
 81 320 81 320 113.5 284 c 0,23,24
 118 279 118 279 118 261 c 2,25,-1
 118 -78 l 2,26,27
 118 -103 118 -103 100.89684334 -119.999148638 c 0,28,29
 84 -137 84 -137 59 -137 c 256,30,31
 34 -137 34 -137 17 -120 c 128,-1,32
 0 -103 0 -103 0 -78 c 2,33,-1
 0 261 l 2,17,18
EndSplineSet
Validated: 1
EndChar

StartChar: minus
Encoding: 262 8722 19
Width: 650
Flags: W
LayerCount: 2
Fore
SplineSet
0 364 m 260,0,1
 0 390 0 390 18 408 c 4,2,3
 37 427 37 427 62 427 c 6,4,-1
 404 427 l 5,5,-1
 536 427 l 6,6,7
 562 427 562 427 581 408 c 4,8,9
 599 390 599 390 599 364 c 260,10,11
 599 338 599 338 581 320 c 4,12,13
 561 302 561 302 536 302 c 6,14,-1
 404 302 l 5,15,-1
 62 302 l 6,16,17
 38 302 38 302 18 320 c 4,18,19
 0 338 0 338 0 364 c 260,0,1
EndSplineSet
Validated: 1
EndChar

StartChar: multiply
Encoding: 215 215 20
Width: 511
Flags: W
LayerCount: 2
Fore
SplineSet
220 224 m 6,0,-1
 102 106 l 6,1,2
 84 88 84 88 60 88 c 4,3,4
 35 88 35 88 17.5 105.5 c 132,-1,5
 0 123 0 123 0 148 c 260,6,7
 0 173 0 173 17 190 c 6,8,-1
 134 308 l 6,9,-1
 17 427 l 5,10,11
 0 446 0 446 0 470 c 4,12,13
 0 495 0 495 17 512 c 132,-1,14
 34 529 34 529 60 529 c 4,15,16
 83 529 83 529 102 512 c 5,17,-1
 220 394 l 6,18,-1
 339 512 l 6,19,20
 356 529 356 529 381 529 c 4,21,22
 408 529 408 529 424 511 c 132,-1,23
 440.055555556 493.055555556 440.055555556 493.055555556 440.055555556 470.651234568 c 4,24,25
 440.055555556 469.333333333 440.055555556 469.333333333 440 468 c 4,26,27
 439 443 439 443 423 427 c 6,28,-1
 306 308 l 6,29,-1
 423 191 l 5,30,31
 441 171 441 171 441 149 c 4,32,33
 441 125 441 125 428 112 c 4,34,35
 407 88 407 88 381 88 c 4,36,37
 357 88 357 88 339 106 c 6,38,-1
 220 224 l 6,0,-1
EndSplineSet
Validated: 1
EndChar

StartChar: exclam
Encoding: 33 33 21
Width: 250
Flags: W
LayerCount: 2
Fore
SplineSet
188 222 m 1,0,1
 185 196 185 196 167 180 c 256,2,3
 149 164 149 164 124 164 c 256,4,5
 85 164 85 164 67.5 199 c 0,6,7
 61.810546875 210.377929688 61.810546875 210.377929688 61 222 c 2,8,-1
 34 609 l 2,9,10
 31.1943359375 649.212890625 31.1943359375 649.212890625 57.59765625 678.106445312 c 128,-1,11
 84 707 84 707 124 707 c 256,12,13
 164 707 164 707 190.354492188 678.159179688 c 0,14,15
 217 649 217 649 214 609 c 2,16,-1
 188 222 l 1,0,1
124 164 m 256,17,18
 158.727539062 164 158.727539062 164 186 139 c 256,19,20
 211 116.083007812 211 116.083007812 211 77.5 c 128,-1,21
 211 38.9169921875 211 38.9169921875 186 16 c 0,22,23
 161 -9 161 -9 124 -9 c 256,24,25
 84.9169921875 -9 84.9169921875 -9 62 16 c 0,26,27
 37 41 37 41 37 78 c 0,28,29
 37 133.05859375 37 133.05859375 90 158 c 0,30,31
 105 164 105 164 124 164 c 256,17,18
EndSplineSet
Validated: 37
EndChar

StartChar: quotedbl
Encoding: 34 34 22
Width: 319
Flags: W
LayerCount: 2
Fore
SplineSet
217 706 m 5,0,1
 245 703 245 703 261.043478261 683.836956522 c 132,-1,2
 277.086956522 664.673913043 277.086956522 664.673913043 277.086956522 643.866729679 c 4,3,4
 277.086956522 638.086956522 277.086956522 638.086956522 276 632 c 5,5,-1
 276 631 l 5,6,-1
 244 460 l 6,7,8
 241 443 241 443 227 430 c 4,9,10
 214 420 214 420 197 420 c 6,11,-1
 193 420 l 5,12,13
 174 422 174 422 161.5 435 c 132,-1,14
 149 448 149 448 149 467 c 6,15,-1
 148 641 l 6,16,17
 148 669 148 669 167.5 687.5 c 132,-1,18
 187 706 187 706 213 706 c 6,19,-1
 217 706 l 5,0,1
65 706 m 5,20,21
 93 703 93 703 109.043478261 683.836956522 c 132,-1,22
 125.086956522 664.673913043 125.086956522 664.673913043 125.086956522 643.866729679 c 4,23,24
 125.086956522 638.086956522 125.086956522 638.086956522 124 632 c 5,25,-1
 124 631 l 5,26,-1
 92 460 l 6,27,28
 89 443 89 443 75 430 c 4,29,30
 62 420 62 420 45 420 c 6,31,-1
 41 420 l 5,32,33
 22 422 22 422 9.5 435 c 132,-1,34
 -3 448 -3 448 -3 467 c 6,35,-1
 -4 641 l 6,36,37
 -4 669 -4 669 15.5 687.5 c 132,-1,38
 35 706 35 706 60 706 c 6,39,-1
 65 706 l 5,20,21
EndSplineSet
Validated: 1
EndChar

StartChar: numbersign
Encoding: 35 35 23
Width: 587
Flags: W
LayerCount: 2
Fore
SplineSet
454 540 m 2,0,-1
 471 540 l 2,1,2
 494 540 494 540 506.5 524.5 c 128,-1,3
 519 509 519 509 519 500 c 128,-1,4
 519 491 519 491 516 479.5 c 128,-1,5
 513 468 513 468 500 457.5 c 128,-1,6
 487 447 487 447 471 447 c 2,7,-1
 430 447 l 2,8,9
 424 447 424 447 420 439 c 1,10,-1
 387 273 l 2,11,12
 385 268 385 268 388.5 264.5 c 128,-1,13
 392 261 392 261 397 261 c 2,14,-1
 417 261 l 2,15,16
 442 261 442 261 453 245.5 c 128,-1,17
 464 230 464 230 464 221 c 128,-1,18
 464 212 464 212 462 201 c 128,-1,19
 460 190 460 190 448 179 c 128,-1,20
 436 168 436 168 417 168 c 2,21,-1
 374 168 l 2,22,23
 368 168 368 168 364 160 c 1,24,-1
 340 41 l 2,25,26
 337 24 337 24 322.5 12 c 128,-1,27
 308 0 308 0 286.5 0 c 128,-1,28
 265 0 265 0 252 16 c 128,-1,29
 239 32 239 32 239 43.5 c 128,-1,30
 239 55 239 55 240 61 c 2,31,-1
 250 108 l 1,32,-1
 259 156 l 2,33,34
 260 160 260 160 256.5 164 c 128,-1,35
 253 168 253 168 249 168 c 2,36,-1
 191 168 l 2,37,38
 185 168 185 168 181 160 c 1,39,-1
 157 41 l 1,40,41
 146 0 146 0 103 0 c 0,42,43
 85 0 85 0 70 16 c 128,-1,44
 55 32 55 32 55.5 43.5 c 128,-1,45
 56 55 56 55 57 61 c 2,46,-1
 76 156 l 2,47,48
 77 160 77 160 73.5 164 c 128,-1,49
 70 168 70 168 66 168 c 2,50,-1
 47 168 l 2,51,52
 24 168 24 168 11.8787878788 183.196969697 c 0,53,54
 -3.02226022821 201.879158761 -3.02226022821 201.879158761 0.5 221 c 128,-1,55
 4 240 4 240 17 250.5 c 128,-1,56
 30 261 30 261 47 261 c 2,57,-1
 89 261 l 2,58,59
 95 261 95 261 99 269 c 1,60,-1
 132 435 l 2,61,62
 133 439 133 439 129.5 443 c 128,-1,63
 126 447 126 447 122 447 c 2,64,-1
 100 447 l 2,65,66
 77 447 77 447 64.7027027027 462.371621622 c 128,-1,67
 52.4054054054 477.743243243 52.4054054054 477.743243243 52.4054054054 486.871621622 c 128,-1,68
 52.4054054054 496 52.4054054054 496 55.2027027027 507.5 c 128,-1,69
 58 519 58 519 71 529.5 c 128,-1,70
 84 540 84 540 100 540 c 2,71,-1
 146 540 l 2,72,73
 152 540 152 540 156 548 c 1,74,-1
 179 665 l 2,75,76
 182 682 182 682 196 694 c 128,-1,77
 210 706 210 706 230 706 c 128,-1,78
 250 706 250 706 269 687 c 0,79,80
 280.25 673.5 280.25 673.5 280.25 662.25 c 128,-1,81
 280.25 651 280.25 651 279 645 c 2,82,-1
 261 552 l 1,83,84
 259 547 259 547 263 543.5 c 128,-1,85
 267 540 267 540 270 540 c 2,86,-1
 329 540 l 2,87,88
 335 540 335 540 339 548 c 1,89,-1
 351 606 l 1,90,-1
 362 665 l 2,91,92
 366 681 366 681 379.5 693.5 c 128,-1,93
 393 706 393 706 414 706 c 128,-1,94
 435 706 435 706 452 687 c 256,95,96
 463.842105263 673.578947368 463.842105263 673.578947368 463.842105263 661.921052632 c 128,-1,97
 463.842105263 650.263157895 463.842105263 650.263157895 463 645 c 2,98,-1
 444 552 l 2,99,100
 442 547 442 547 446 543.5 c 128,-1,101
 450 540 450 540 454 540 c 2,0,-1
315 435 m 2,102,103
 316 439 316 439 312.5 443 c 128,-1,104
 309 447 309 447 305 447 c 2,105,-1
 247 447 l 2,106,107
 244 447 244 447 240 445 c 0,108,109
 239 443 239 443 238 442 c 128,-1,110
 237 441 237 441 237 439 c 2,111,-1
 204 273 l 2,112,113
 202 268 202 268 205.5 264.5 c 128,-1,114
 209 261 209 261 214 261 c 2,115,-1
 272 261 l 2,116,117
 275 261 275 261 279 263 c 0,118,119
 280 265 280 265 281 266 c 128,-1,120
 282 267 282 267 282 269 c 2,121,-1
 315 435 l 2,102,103
EndSplineSet
Validated: 33
EndChar

StartChar: dollar
Encoding: 36 36 24
Width: 523
Flags: W
LayerCount: 2
Fore
SplineSet
297 -6 m 1,0,1
 422 68 422 68 442.449152542 136.584745763 c 0,2,3
 458 188 458 188 450 240 c 0,4,5
 437 321 437 321 375 365 c 0,6,7
 326 400 326 400 215.623824451 434.592476489 c 0,8,9
 155 454 155 454 142 503 c 0,10,11
 136 526 136 526 146.5 547 c 128,-1,12
 157 568 157 568 176.5 580 c 128,-1,13
 196 592 196 592 220 593.5 c 128,-1,14
 244 595 244 595 265 581 c 0,15,16
 279 572 279 572 294 550 c 0,17,18
 305 533 305 533 319 525 c 256,19,20
 336 515 336 515 354 515 c 2,21,-1
 355 515 l 2,22,23
 397 515 397 515 416.5 552 c 0,24,25
 425 568 425 568 425 587 c 128,-1,26
 425 606 425 606 410.5 629.5 c 128,-1,27
 396 653 396 653 366.5 674.5 c 0,28,29
 340 694 340 694 298 708 c 1,30,-1
 298 753 l 2,31,32
 298 784 298 784 276 805 c 0,33,34
 255 826 255 826 224.5 826 c 128,-1,35
 194 826 194 826 173 805 c 0,36,37
 153 785 153 785 152 753 c 2,38,-1
 151 708 l 1,39,40
 65 679 65 679 27 613 c 256,41,42
 -14 542 -14 542 6 458 c 0,43,44
 29 361 29 361 157 313 c 0,45,46
 192 300 192 300 234.384615385 285.538461538 c 0,47,48
 277 271 277 271 298 241 c 256,49,50
 324 204 324 204 303.827380952 161.546626984 c 0,51,52
 283 120 283 120 236 115 c 256,53,54
 190 111 190 111 158 139 c 1,55,-1
 150.5 146.5 l 2,56,57
 147 150 147 150 145 155 c 0,58,59
 144 159 144 159 135 170 c 0,60,61
 112 198 112 198 110.5 199 c 0,62,63
 94 210 94 210 73 210 c 0,64,65
 35 210 35 210 14 178 c 256,66,67
 -7 146 -7 146 9 112 c 0,68,69
 49 28 49 28 152 -4 c 1,70,-1
 152 -44 l 2,71,72
 152 -74 152 -74 172.5 -95.5 c 128,-1,73
 193 -117 193 -117 224.5 -117 c 128,-1,74
 256 -117 256 -117 276.5 -95.5 c 128,-1,75
 297 -74 297 -74 297 -44 c 2,76,-1
 297 -6 l 1,0,1
152 -17.4 m 1025,77,-1
297 -16.5384615385 m 1025,78,-1
EndSplineSet
Validated: 41
EndChar

StartChar: percent
Encoding: 37 37 25
Width: 726
Flags: W
LayerCount: 2
Fore
SplineSet
456 677 m 1,0,1
 469 703 469 703 500 703 c 128,-1,2
 531 703 531 703 544 678 c 0,3,4
 551.75862069 665.586206897 551.75862069 665.586206897 551.75862069 652.36979786 c 0,5,6
 551.75862069 640.034482759 551.75862069 640.034482759 545 627 c 2,7,-1
 207 24 l 1,8,9
 190 -2 190 -2 162 -2 c 256,10,11
 134 -2 134 -2 118 23 c 256,12,13
 110.24137931 35.4137931034 110.24137931 35.4137931034 110.24137931 48.6302021403 c 0,14,15
 110.24137931 60.9655172414 110.24137931 60.9655172414 117 74 c 2,16,-1
 456 677 l 1,0,1
158 697 m 256,17,18
 220 697 220 697 271 652 c 1,19,20
 316 607 316 607 316 538 c 256,21,22
 316 499 316 499 308 482 c 0,23,24
 289 441 289 441 272 424 c 0,25,26
 227 379 227 379 158 379 c 256,27,28
 79 379 79 379 31 438 c 0,29,30
 16 458 16 458 8 487.5 c 128,-1,31
 0 517 0 517 0 538 c 256,32,33
 0 580 0 580 20 620 c 0,34,35
 55 679 55 679 115 692 c 0,36,37
 138 697 138 697 158 697 c 256,17,18
158 604 m 256,38,39
 117 604 117 604 104 565 c 0,40,41
 100 553 100 553 100 538 c 256,42,43
 100 491 100 491 134 476 c 0,44,45
 143 472 143 472 158 472 c 256,46,47
 185 472 185 472 200 489 c 0,48,49
 216 507 216 507 216 538 c 256,50,51
 216 565 216 565 200 586 c 0,52,53
 186 604 186 604 158 604 c 256,38,39
611 274 m 0,54,55
 656 223 656 223 656 160 c 256,56,57
 656 90 656 90 611 45 c 128,-1,58
 566 0 566 0 498 0 c 256,59,60
 409 0 409 0 361 77 c 0,61,62
 340 111 340 111 340 167 c 128,-1,63
 340 223 340 223 385 274 c 1,64,65
 436 319 436 319 498 319 c 0,66,67
 542 319 542 319 569 303 c 128,-1,68
 596 287 596 287 611 274 c 0,54,55
498 226 m 256,69,70
 458 226 458 226 444 187 c 0,71,72
 440 176 440 176 440 160 c 256,73,74
 440 113 440 113 474 98 c 0,75,76
 485 93 485 93 498 93 c 256,77,78
 524 93 524 93 540 111 c 128,-1,79
 556 129 556 129 556 160 c 256,80,81
 556 206 556 206 522 221 c 0,82,83
 511 226 511 226 498 226 c 256,69,70
EndSplineSet
Validated: 1
EndChar

StartChar: ampersand
Encoding: 38 38 26
Width: 609
Flags: W
LayerCount: 2
Fore
SplineSet
455 176 m 2,0,-1
 508 110 l 1,1,2
 520.644736842 92.4605263158 520.644736842 92.4605263158 520.644736842 74.5882963989 c 0,3,4
 520.644736842 48.6447368421 520.644736842 48.6447368421 494 22 c 1,5,6
 476.4 9.2 476.4 9.2 457.52 9.2 c 0,7,8
 452.8 9.2 452.8 9.2 448 10 c 0,9,10
 424 14 424 14 407 36 c 1,11,-1
 393 51 l 1,12,-1
 375 75 l 17,13,14
 300 0 300 0 207 0 c 0,15,16
 113 -0 113 -0 54 53 c 0,17,18
 23 81 23 81 15 105 c 0,19,20
 -3 160 -3 160 -3 189 c 0,21,22
 -2 275 -2 275 46 331 c 0,23,24
 77 367 77 367 129 410 c 1,25,26
 75 500 75 500 75 562 c 0,27,28
 75 600 75 600 84 619 c 0,29,30
 97 647 97 647 98 648 c 0,31,32
 151 702 151 702 160 706 c 0,33,34
 206 726 206 726 238 726 c 0,35,36
 328 726 328 726 374 680 c 1,37,38
 404 655 404 655 418 610 c 0,39,40
 424 591 424 591 424 564 c 0,41,42
 424 554 424 554 416 514 c 0,43,44
 411 489 411 489 400 474 c 0,45,46
 362 423 362 423 305 381 c 1,47,-1
 380 277 l 2,48,-1
 431 344 l 2,49,50
 445 362 445 362 469 367 c 0,51,52
 474.714285714 368.19047619 474.714285714 368.19047619 480.201814059 368.19047619 c 0,53,54
 497.761904762 368.19047619 497.761904762 368.19047619 513 356 c 0,55,56
 532 341 532 341 536 318 c 256,57,58
 536.888888889 312.888888889 536.888888889 312.888888889 536.888888889 307.975308642 c 0,59,60
 536.888888889 290.777777778 536.888888889 290.777777778 526 276 c 1,61,-1
 455 176 l 2,0,-1
241 471 m 1,62,63
 261 486 261 486 275 503 c 0,64,65
 302 536 302 536 302 561 c 0,66,67
 302 592 302 592 287 607 c 0,68,69
 271 623 271 623 256 623 c 0,70,71
 240 623 240 623 234 620 c 0,72,73
 224 615 224 615 224 615 c 0,74,75
 219 613 219 613 209 602 c 128,-1,76
 199 591 199 591 199 572 c 0,77,78
 199 554 199 554 202 545 c 128,-1,79
 205 536 205 536 206 532 c 0,80,81
 207 526 207 526 212 516 c 0,82,83
 220 500 220 500 223 495 c 0,84,85
 224 493 224 493 241 471 c 1,62,63
197 318 m 2,86,-1
 176 298 l 2,87,88
 156 278 156 278 153 272 c 0,89,90
 153 272 153 272 145 260 c 0,91,92
 140 252 140 252 135 240 c 0,93,94
 130 227 130 227 130 195 c 128,-1,95
 130 163 130 163 151 138 c 0,96,97
 171 114 171 114 215 114 c 0,98,99
 241 114 241 114 262 128 c 0,100,101
 276 138 276 138 281 142 c 0,102,103
 307 167 307 167 307 167 c 2,104,-1
 197 318 l 2,86,-1
EndSplineSet
Validated: 1
EndChar

StartChar: quotesingle
Encoding: 39 39 27
Width: 249
Flags: W
LayerCount: 2
Fore
SplineSet
179.129882812 647.297851562 m 4,0,1
 179.129882812 637.754882812 179.129882812 637.754882812 177.561523438 629.374023438 c 6,2,-1
 145.583007812 458.489257812 l 6,3,4
 141.095703125 433.326171875 141.095703125 433.326171875 120.99609375 414.669921875 c 4,5,6
 120.140625 413.875976562 120.140625 413.875976562 119.21875 413.166992188 c 4,7,8
 99.5087890625 398.004882812 99.5087890625 398.004882812 73.9951171875 398.004882812 c 6,9,-1
 69.9951171875 398.004882812 l 6,10,11
 68.673828125 398.004882812 68.673828125 398.004882812 67.359375 398.143554688 c 4,12,13
 39.294921875 401.09765625 39.294921875 401.09765625 20.1474609375 421.010742188 c 132,-1,14
 1 440.924804688 1 440.924804688 1 469.85546875 c 6,15,-1
 0 644 l 6,16,17
 0 682.751953125 0 682.751953125 27.0087890625 708.373046875 c 132,-1,18
 54.017578125 733.995117188 54.017578125 733.995117188 88.9951171875 733.995117188 c 6,19,-1
 93.9951171875 733.995117188 l 6,20,21
 95.33984375 733.995117188 95.33984375 733.995117188 96.6767578125 733.8515625 c 4,22,23
 134.694335938 729.778320312 134.694335938 729.778320312 159.180664062 700.530273438 c 4,24,25
 179.129882812 676.702148438 179.129882812 676.702148438 179.129882812 647.297851562 c 4,0,1
EndSplineSet
Validated: 1
EndChar

StartChar: parenleft
Encoding: 40 40 28
Width: 337
Flags: W
LayerCount: 2
Fore
SplineSet
260.5625 -81.0498046875 m 0,0,1
 275 -109.399414062 275 -109.399414062 258.200195312 -134.599609375 c 0,2,3
 249.799804688 -147.19921875 249.799804688 -147.19921875 210.950195312 -162.94921875 c 1,4,5
 180.5 -165.049804688 180.5 -165.049804688 161.600585938 -139.849609375 c 0,6,7
 10.400390625 64.900390625 10.400390625 64.900390625 10.400390625 296.950195312 c 256,8,9
 10.400390625 445 10.400390625 445 92.2998046875 641.350585938 c 0,10,11
 108.049804688 679.150390625 108.049804688 679.150390625 144.21875 729.751953125 c 0,12,13
 168.950195312 763.150390625 168.950195312 763.150390625 212 760 c 0,14,15
 244.549804688 757.900390625 244.549804688 757.900390625 259.314453125 731.489257812 c 0,16,17
 275 704.350585938 275 704.350585938 258.133789062 672.426757812 c 0,18,19
 149 460.75 149 460.75 149 298 c 256,20,21
 149 138.400390625 149 138.400390625 260.5625 -81.0498046875 c 0,0,1
EndSplineSet
Validated: 33
EndChar

StartChar: asterisk
Encoding: 42 42 30
Width: 481
Flags: W
LayerCount: 2
Fore
SplineSet
292 617 m 1,0,-1
 375 648.5 l 2,1,2
 394.900390625 656.052734375 394.900390625 656.052734375 413.950195312 646.026367188 c 128,-1,3
 433 636 433 636 440 616.5 c 256,4,5
 447 596 447 596 437.5 577.5 c 128,-1,6
 428 559 428 559 407 551.5 c 2,7,-1
 321 522 l 1,8,-1
 379 450.5 l 2,9,10
 392.057617188 434.403320312 392.057617188 434.403320312 389.028320312 413.202148438 c 128,-1,11
 386 392 386 392 370 378.5 c 1,12,-1
 369 378.5 l 1,13,14
 354 364 354 364 331 367 c 128,-1,15
 308 370 308 370 296 386.5 c 2,16,-1
 238 464 l 1,17,-1
 183 390.5 l 2,18,19
 169.176757812 372.02734375 169.176757812 372.02734375 149.586914062 369.01171875 c 128,-1,20
 130 366 130 366 111 379.5 c 1,21,-1
 111 380.5 l 1,22,-1
 110 380.5 l 1,23,24
 92 396 92 396 89.994140625 416.059570312 c 128,-1,25
 88 436 88 436 101 452.5 c 2,26,-1
 157 523 l 1,27,-1
 70 551.5 l 2,28,29
 39.0400390625 561.641601562 39.0400390625 561.641601562 35 597.5 c 0,30,31
 31 633 31 633 64 646.5 c 0,32,33
 84 655 84 655 104 647.5 c 2,34,-1
 183 618 l 1,35,-1
 183 712.5 l 2,36,37
 183 734 183 734 197.5 749 c 128,-1,38
 212 764 212 764 233 763.5 c 2,39,-1
 242 763.5 l 2,40,41
 262.5 763.5 262.5 763.5 277.25 748.75 c 128,-1,42
 292 734 292 734 292 712.5 c 2,43,-1
 292 617 l 1,0,-1
EndSplineSet
Validated: 33
EndChar

StartChar: plus
Encoding: 43 43 31
Width: 652
Flags: W
LayerCount: 2
Fore
SplineSet
356.189453125 249.895507812 m 2,0,-1
 356.189453125 83.0185546875 l 2,1,2
 356.189453125 57.5625 356.189453125 57.5625 339.219726562 40.591796875 c 0,3,4
 321.541992188 22.9150390625 321.541992188 22.9150390625 296.79296875 22.9150390625 c 128,-1,5
 272.043945312 22.9150390625 272.043945312 22.9150390625 254.366210938 40.591796875 c 256,6,7
 236.688476562 58.26953125 236.688476562 58.26953125 236.688476562 82.3115234375 c 2,8,-1
 235.981445312 248.481445312 l 2,9,-1
 69.1044921875 249.895507812 l 1,10,11
 43.6484375 251.309570312 43.6484375 251.309570312 26.677734375 268.280273438 c 0,12,13
 9 285.958007812 9 285.958007812 9 310 c 128,-1,14
 9 334.041992188 9 334.041992188 27.384765625 352.426757812 c 0,15,16
 43.6484375 368.689453125 43.6484375 368.689453125 69.1044921875 370.103515625 c 1,17,-1
 235.981445312 370.103515625 l 2,18,-1
 236.688476562 537.688476562 l 2,19,20
 236.688476562 561.729492188 236.688476562 561.729492188 254.366210938 579.407226562 c 0,21,22
 273.458007812 598.499023438 273.458007812 598.499023438 297.5 597.084960938 c 128,-1,23
 321.541992188 595.75 321.541992188 595.75 337.383789062 579.907226562 c 0,24,25
 338.315429688 578.975585938 338.315429688 578.975585938 339.219726562 577.993164062 c 0,26,27
 356.189453125 559.608398438 356.189453125 559.608398438 356.189453125 536.981445312 c 2,28,-1
 357.604492188 370.103515625 l 2,29,-1
 523.067382812 370.103515625 l 1,30,31
 549.9375 368.689453125 549.9375 368.689453125 565.493164062 353.133789062 c 0,32,33
 582.463867188 336.163085938 582.463867188 336.163085938 582.463867188 317.778320312 c 0,34,35
 584.584960938 285.958007812 584.584960938 285.958007812 566.200195312 267.573242188 c 0,36,37
 549.23046875 250.602539062 549.23046875 250.602539062 523.774414062 250.602539062 c 2,38,-1
 356.189453125 249.895507812 l 2,0,-1
EndSplineSet
Validated: 33
EndChar

StartChar: comma
Encoding: 44 44 32
Width: 248
Flags: W
LayerCount: 2
Fore
SplineSet
58 -6 m 1,0,1
 58 -6 58 -6 30 -65 c 2,2,3
 20.990693534 -83.9838957676 20.990693534 -83.9838957676 32.5 -103.9 c 0,4,5
 43 -123 43 -123 66.8181818182 -123 c 0,6,7
 90 -123 90 -123 103 -102 c 1,8,-1
 146 -24 l 2,9,10
 149 -17 149 -17 152.5 -10.5 c 0,11,12
 178 37 178 37 178 74.5119047619 c 128,-1,13
 178 112 178 112 152 136 c 1,14,15
 129 163 129 163 90.4835501921 163 c 128,-1,16
 52 163 52 163 26.0549787636 138.858985571 c 0,17,18
 0 115 0 115 0 69.3333333333 c 0,19,20
 0 47 0 47 18 23 c 0,21,22
 31 6 31 6 58 -6 c 1,0,1
EndSplineSet
Validated: 41
EndChar

StartChar: hyphen
Encoding: 45 45 33
Width: 436
Flags: W
LayerCount: 2
Fore
SplineSet
0 364 m 256,0,1
 0 390 0 390 18.5516528926 408.551652893 c 128,-1,2
 37 427 37 427 62 427 c 2,3,-1
 303 426 l 6,4,5
 329.108333333 425.891666667 329.108333333 425.891666667 347.5 407.5 c 132,-1,6
 366 389 366 389 366 363 c 260,7,8
 366 337 366 337 348 319 c 4,9,10
 327.885268472 300.896741625 327.885268472 300.896741625 303 301 c 6,11,-1
 62 302 l 2,12,13
 35.8916676458 302.108333329 35.8916676458 302.108333329 17.9459965174 320.05416599 c 128,-1,14
 0 338 0 338 0 364 c 256,0,1
EndSplineSet
Validated: 33
EndChar

StartChar: period
Encoding: 46 46 34
Width: 210
Flags: W
LayerCount: 2
Fore
SplineSet
0 85 m 128,-1,1
 0 120 0 120 24 145 c 128,-1,2
 48 170 48 170 82 170 c 128,-1,3
 116 170 116 170 140 145 c 128,-1,4
 164 120 164 120 164 85 c 128,-1,5
 164 50 164 50 140 25 c 128,-1,6
 116 0 116 0 82 0 c 128,-1,7
 48 0 48 0 24 25 c 128,-1,0
 0 50 0 50 0 85 c 128,-1,1
EndSplineSet
Validated: 1
EndChar

StartChar: slash
Encoding: 47 47 35
Width: 449
Flags: W
LayerCount: 2
Fore
SplineSet
259 668 m 2,0,1
 266.834415584 685.88961039 266.834415584 685.88961039 282 696 c 0,2,3
 299 706 299 706 316 706 c 256,4,5
 351 706 351 706 369.645550528 677.147058824 c 0,6,7
 387.713837813 649.438837674 387.713837813 649.438837674 374 618 c 2,8,-1
 121 38 l 2,9,10
 113 20 113 20 86 6 c 0,11,12
 57.6235921002 -6.64205262867 57.6235921002 -6.64205262867 32 8 c 4,13,14
 18 16 18 16 10 28.5 c 0,15,16
 -8.08029889031 58.1316009591 -8.08029889031 58.1316009591 5 88 c 2,17,-1
 259 668 l 2,0,1
EndSplineSet
Validated: 33
EndChar

StartChar: zero
Encoding: 48 48 36
Width: 503
Flags: W
LayerCount: 2
Fore
SplineSet
416.5 582.5 m 0,0,1
 431 544 431 544 431 499 c 2,2,-1
 431 209 l 2,3,4
 431 117 431 117 373 59 c 0,5,6
 345 31 345 31 306.982421875 16.1474609375 c 0,7,8
 265 0 265 0 215 0 c 256,9,10
 151 0 151 0 100 27 c 0,11,12
 52 52 52 52 25.8232421875 98.587890625 c 0,13,14
 -2 146 -2 146 -2 209 c 2,15,-1
 -2 499 l 2,16,17
 -2 560 -2 560 24 606 c 0,18,19
 41 636 41 636 56 649 c 256,20,21
 92 681 92 681 115.44140625 689.147460938 c 0,22,23
 172 708 172 708 215 708 c 256,24,25
 280 708 280 708 336.892578125 676.600585938 c 0,26,27
 393 646 393 646 416.5 582.5 c 0,0,1
139 493 m 2,28,-1
 139 215 l 2,29,30
 139 172 139 172 159 152 c 1,31,32
 177 128 177 128 215 128 c 256,33,34
 272 128 272 128 285 179 c 0,35,36
 290 198 290 198 290 215 c 2,37,-1
 290 493 l 2,38,39
 290 556 290 556 247 574 c 0,40,41
 233 580 233 580 215 580 c 256,42,43
 179 580 179 580 159.135742188 556.163085938 c 0,44,45
 139 533 139 533 139 493 c 2,28,-1
EndSplineSet
Validated: 1
EndChar

StartChar: one
Encoding: 49 49 37
Width: 320
Flags: W
LayerCount: 2
Fore
SplineSet
90 576 m 2,0,-1
 65 576 l 2,1,2
 38 576 38 576 19 595 c 256,3,4
 0 614 0 614 0 641 c 256,5,6
 0 668 0 668 19 687 c 256,7,8
 38 706 38 706 65 706 c 2,9,-1
 170 706 l 2,10,11
 211 706 211 706 230 666 c 0,12,13
 235 655 235 655 235 641 c 2,14,-1
 235 65 l 2,15,16
 235 38 235 38 216 19 c 128,-1,17
 197 0 197 0 170 0 c 2,18,-1
 154 0 l 2,19,20
 125 0 125 0 108 19 c 0,21,22
 90 39 90 39 90 65 c 2,23,-1
 90 576 l 2,0,-1
EndSplineSet
Validated: 1
EndChar

StartChar: two
Encoding: 50 50 38
Width: 511
Flags: W
LayerCount: 2
Fore
SplineSet
164 123 m 1,0,-1
 360.5 124 l 2,1,2
 405 124 405 124 419 86 c 0,3,4
 425 69 425 69 424.5 55 c 0,5,6
 424 35 424 35 406 16.5 c 0,7,8
 388 -1 388 -1 361.5 -1 c 2,9,-1
 150 -1 l 2,10,11
 13 -1 13 -1 12 92 c 260,12,13
 10.9969814918 153.184129002 10.9969814918 153.184129002 66 209 c 2,14,-1
 167.5 312 l 2,15,16
 169 314 169 314 209.5 367.5 c 0,17,18
 271 450 271 450 270.5 506 c 0,19,20
 270 542 270 542 251.5 559 c 1,21,-1
 251.5 560 l 1,22,-1
 250.5 560 l 1,23,24
 238 576 238 576 209.27734375 576 c 0,25,26
 162 576 162 576 133.059570312 537.24609375 c 0,27,28
 114 512 114 512 80.091796875 507.845703125 c 0,29,30
 46 504 46 504 24 521.5 c 128,-1,31
 2 539 2 539 0 560 c 0,32,33
 -4 608 -4 608 45.5 651 c 0,34,35
 84 684 84 684 127.4765625 695.244140625 c 0,36,37
 172 706 172 706 195.5 706 c 0,38,39
 300 706 300 706 355.690429688 648.360351562 c 0,40,41
 411 592 411 592 411.5 506 c 0,42,43
 412 457 412 457 394.5 420 c 256,44,45
 370 367 370 367 359.56640625 351.745117188 c 0,46,47
 342 326 342 326 340 324.5 c 0,48,49
 252 224 252 224 164 123 c 1,0,-1
EndSplineSet
Validated: 33
EndChar

StartChar: three
Encoding: 51 51 39
Width: 536
Flags: W
LayerCount: 2
Fore
SplineSet
264 576 m 1,0,-1
 162 435 l 1,1,2
 134 391 134 391 144 364 c 0,3,4
 155 336 155 336 181 324 c 2,5,-1
 194 318 l 1,6,-1
 241 300 l 2,7,8
 265 291 265 291 279 280 c 0,9,10
 299 265 299 265 308 252 c 0,11,12
 332 218 332 218 311 173 c 0,13,14
 298 144 298 144 265 134 c 0,15,16
 205 116 205 116 166 153 c 1,17,-1
 158.5 160.5 l 2,18,19
 149 170 149 170 147 176 c 128,-1,20
 145 182 145 182 143 184 c 0,21,22
 110 217 110 217 98 221.5 c 0,23,24
 91 224 91 224 76 224 c 128,-1,25
 61 224 61 224 44.8330078125 213.309570312 c 0,26,27
 29 203 29 203 20.8330078125 190.309570312 c 0,28,29
 13 178 13 178 11 160.5 c 128,-1,30
 9 143 9 143 14.5 131.5 c 128,-1,31
 20 120 20 120 26.25 106.25 c 0,32,33
 33 92 33 92 43.75 81.25 c 0,34,35
 55 70 55 70 62 62.5 c 128,-1,36
 69 55 69 55 80 48 c 0,37,38
 112 28 112 28 130 20 c 0,39,40
 186 -4 186 -4 242 0 c 256,41,42
 338 7 338 7 392.112304688 58.185546875 c 0,43,44
 446 110 446 110 456 172 c 0,45,46
 474 283 474 283 420.5 343 c 0,47,48
 396 370 396 370 385.1171875 377.587890625 c 0,49,-1
 368 389 l 2,50,-1
 314 418 l 1,51,-1
 370 503 l 2,52,53
 414 570 414 570 414 627 c 0,54,55
 414 674 414 674 379 691 c 4,56,57
 345 708 345 708 287 708 c 2,58,-1
 79 708 l 2,59,60
 50 708 50 708 29 695 c 0,61,62
 0 678 0 678 0 641 c 256,63,64
 0 614 0 614 19 595 c 128,-1,65
 38 576 38 576 65 576 c 2,66,-1
 264 576 l 1,0,-1
EndSplineSet
Validated: 41
EndChar

StartChar: four
Encoding: 52 52 40
Width: 577
Flags: W
LayerCount: 2
Fore
SplineSet
290 129 m 1,0,-1
 290 71 l 1,1,2
 290 40 290 40 311 21 c 0,3,4
 334 0 334 0 361 0 c 256,5,6
 390 0 390 0 411 21 c 0,7,8
 431 41 431 41 431 71 c 2,9,-1
 431 129 l 2,10,-1
 445 129 l 2,11,12
 472 129 472 129 489.5 147.5 c 128,-1,13
 507 166 507 166 507 191.5 c 0,14,15
 507 219 507 219 489 237 c 128,-1,16
 471 255 471 255 445 255 c 2,17,-1
 431 255 l 2,18,-1
 431 325 l 2,19,20
 431 357 431 357 411 375 c 0,21,22
 388 396 388 396 361 396 c 256,23,24
 332 396 332 396 311 375 c 128,-1,25
 290 354 290 354 290 325 c 2,26,-1
 290 255 l 2,27,-1
 163 255 l 2,28,-1
 339 610 l 2,29,30
 354 641 354 641 335 674 c 0,31,32
 317 706 317 706 277.5 706 c 0,33,34
 258 706 258 706 242 695 c 0,35,36
 225 684 225 684 217 667 c 2,37,-1
 34 293 l 2,38,39
 -6.0677466863 211.112911144 -6.0677466863 211.112911144 18 171 c 0,40,41
 44 128 44 128 89 128 c 2,42,-1
 290 129 l 1,0,-1
EndSplineSet
Validated: 41
EndChar

StartChar: five
Encoding: 53 53 41
Width: 518
Flags: W
LayerCount: 2
Fore
SplineSet
150 576 m 2,0,-1
 150 462 l 2,1,-1
 218 462 l 2,2,3
 307 462 307 462 361 420.5 c 128,-1,4
 415 379 415 379 431.306122449 329.081632653 c 0,5,6
 448 279 448 279 448 235 c 2,7,-1
 448 214 l 2,8,9
 448 144 448 144 415.604347826 87.1600414079 c 0,10,11
 383 30 383 30 313 2.5 c 0,12,13
 271 -14 271 -14 235.5 -14 c 0,14,15
 88 -14 88 -14 22 84 c 0,16,17
 -16 140 -16 140 13 180 c 0,18,19
 36 212 36 212 75 210 c 0,20,21
 92 209 92 209 108 197.5 c 128,-1,22
 124 186 124 186 130 174 c 128,-1,23
 136 162 136 162 139 158 c 128,-1,24
 142 154 142 154 144.5 150.5 c 0,25,26
 168 118 168 118 213.75 118 c 0,27,28
 262 118 262 118 281 145 c 0,29,30
 294 163 294 163 298.911764706 181.558823529 c 0,31,32
 303 196 303 196 303 220 c 2,33,-1
 303 229 l 2,34,35
 303 273 303 273 281 303 c 0,36,37
 260 331 260 331 218 331 c 2,38,-1
 70 331 l 2,39,40
 43 331 43 331 24 350 c 256,41,42
 5 369 5 369 5 396 c 2,43,-1
 5 641 l 2,44,45
 5 668 5 668 24 687 c 256,46,47
 43 706 43 706 70 706 c 2,48,-1
 347 706 l 2,49,50
 375 706 375 706 394 687 c 0,51,52
 412 669 412 669 412 640.5 c 0,53,54
 412 614 412 614 393 595 c 128,-1,55
 374 576 374 576 346 576 c 2,56,-1
 150 576 l 2,0,-1
EndSplineSet
Validated: 33
EndChar

StartChar: six
Encoding: 54 54 42
Width: 517
Flags: W
LayerCount: 2
Fore
SplineSet
204 452 m 1,0,1
 227 469 227 469 259.265625 468.713867188 c 0,2,3
 311 468 311 468 356 441 c 0,4,5
 445 386 445 386 445 272 c 2,6,-1
 445 211 l 2,7,8
 445 120 445 120 385 60 c 0,9,10
 338 13 338 13 254 2 c 0,11,12
 239 0 239 0 222 0 c 256,13,14
 160 0 160 0 103 27 c 0,15,16
 82 37 82 37 58 60 c 0,17,18
 -2 116 -2 116 -2 211 c 2,19,-1
 -2 252 l 2,20,21
 -2 273 -2 273 0 291 c 256,22,23
 1 300 1 300 1.5 307.5 c 128,-1,24
 2 315 2 315 4 322.5 c 128,-1,25
 6 330 6 330 8 337.5 c 128,-1,26
 10 345 10 345 13 353 c 256,27,28
 16 361 16 361 18.5 370 c 128,-1,29
 21 379 21 379 26 387 c 1,30,-1
 26 388 l 1,31,-1
 185 671 l 2,32,33
 194 687 194 687 210 696 c 0,34,35
 227 706 227 706 244 706 c 0,36,37
 284 706 284 706 300 674 c 0,38,39
 309 655 309 655 309.257142857 638.323265306 c 0,40,41
 309 622 309 622 301 609 c 2,42,-1
 204 452 l 1,0,1
304 266 m 2,43,44
 304 305 304 305 288 324.5 c 128,-1,45
 272 344 272 344 257 349.5 c 128,-1,46
 242 355 242 355 222 355 c 0,47,48
 161 355 161 355 145 302 c 0,49,50
 139 282 139 282 139 266 c 2,51,-1
 139 217 l 2,52,53
 139 177 139 177 160 152 c 256,54,55
 180 128 180 128 221 128 c 0,56,57
 263 128 263 128 284 153 c 0,58,59
 304 178 304 178 304 217 c 2,60,-1
 304 266 l 2,43,44
EndSplineSet
Validated: 33
EndChar

StartChar: seven
Encoding: 55 55 43
Width: 497
Flags: W
LayerCount: 2
Fore
SplineSet
283 580 m 2,0,-1
 77 96 l 1,1,2
 65 60 65 60 84.6345108696 29.9347826087 c 0,3,4
 104 0 104 0 143 0 c 0,5,6
 162 0 162 0 179.142593305 11.596460177 c 128,-1,7
 196.28518661 23.192920354 196.28518661 23.192920354 204 42 c 2,8,-1
 421 571 l 1,9,10
 445 637 445 637 410 680 c 0,11,12
 387 708 387 708 334 708 c 2,13,-1
 70 708 l 2,14,15
 40 708 40 708 24 694 c 4,16,17
 1 673 1 673 0.5 645 c 128,-1,18
 0 617 0 617 18.5 598.5 c 128,-1,19
 37 580 37 580 63 580 c 2,20,-1
 283 580 l 2,0,-1
EndSplineSet
Validated: 41
EndChar

StartChar: eight
Encoding: 56 56 44
Width: 515
Flags: W
LayerCount: 2
Fore
SplineSet
68 376 m 1,0,1
 54 373 54 373 30 349 c 0,2,3
 -3.5 316.485294118 -3.5 316.485294118 -3.5 244 c 2,4,-1
 -3.5 201 l 2,5,6
 -3.98177422354 142.223544728 -3.98177422354 142.223544728 23.5 98 c 0,7,8
 67 28 67 28 162 5 c 0,9,10
 183 0 183 0 228.5 0 c 128,-1,11
 274 0 274 0 316 13.6216216216 c 0,12,13
 365 29 365 29 404 80 c 0,14,15
 441.5 126.381578947 441.5 126.381578947 441.5 201 c 2,16,-1
 441.5 244 l 2,17,18
 442 280 442 280 434 309 c 0,19,20
 425 344 425 344 408 352 c 0,21,22
 406 353 406 353 376 375 c 1,23,24
 385 384 385 384 405.382022472 414.775280899 c 0,25,26
 417 432 417 432 426 469 c 0,27,28
 429 481 429 481 429 508 c 2,29,-1
 429 529 l 2,30,31
 429 576 429 576 404.444335938 615 c 0,32,33
 345 708 345 708 218 708 c 0,34,35
 154 708 154 708 116.77734375 685.166992188 c 0,36,37
 16 620 16 620 16 529 c 2,38,-1
 16 508 l 2,39,40
 16 463 16 463 37 421 c 0,41,42
 50 395 50 395 68 376 c 1,0,1
288 499 m 2,43,44
 288 483 288 483 284 471 c 0,45,46
 269 429 269 429 223 429 c 0,47,48
 194 429 194 429 174 449 c 0,49,50
 157 466 157 466 157 499 c 2,51,-1
 157 523 l 2,52,53
 157 533 157 533 160.5 543 c 0,54,55
 175 584 175 584 222 584 c 0,56,57
 238 584 238 584 250.5 579 c 0,58,59
 288 563 288 563 288 523 c 2,60,-1
 288 499 l 2,43,44
137.5 245 m 2,61,62
 137.5 281.487804878 137.5 281.487804878 158.5 303 c 0,63,64
 181 325 181 325 219.5 325 c 256,65,66
 259 325 259 325 279.5 303 c 0,67,68
 300.5 280.463414634 300.5 280.463414634 300.5 245 c 2,69,-1
 300.5 207 l 2,70,71
 300 188 300 188 295.5 175 c 0,72,73
 278 128 278 128 219 128 c 0,74,75
 181 128 181 128 154 154.5 c 0,76,77
 137.5 171.515625 137.5 171.515625 137.5 207 c 2,78,-1
 137.5 245 l 2,61,62
EndSplineSet
Validated: 41
EndChar

StartChar: nine
Encoding: 57 57 45
Width: 517
Flags: W
LayerCount: 2
Fore
SplineSet
251 256 m 1,0,1
 226 237 226 237 185.734375 237.286132812 c 0,2,3
 133 238 133 238 89 265 c 0,4,5
 0 320 0 320 0 434 c 2,6,-1
 0 495 l 2,7,8
 0 586 0 586 60 646 c 0,9,10
 107 693 107 693 191 704 c 0,11,12
 206 706 206 706 223 706 c 256,13,14
 285 706 285 706 342 679 c 0,15,16
 363 669 363 669 387 646 c 0,17,18
 447 590 447 590 447 495 c 2,19,-1
 447 454 l 2,20,21
 447 433 447 433 445 415 c 256,22,23
 444 406 444 406 443.5 398.5 c 128,-1,24
 443 391 443 391 441 383.5 c 128,-1,25
 439 376 439 376 437 368.5 c 128,-1,26
 435 361 435 361 432 353 c 256,27,28
 429 345 429 345 426.5 336 c 128,-1,29
 424 327 424 327 419 319 c 1,30,-1
 419 318 l 1,31,-1
 267 35 l 2,32,33
 258.582278481 19.3275316456 258.582278481 19.3275316456 242 10 c 0,34,35
 225 0 225 0 208 0 c 0,36,37
 168 0 168 0 152 32 c 0,38,39
 143 51 143 51 142.743164062 67.6767578125 c 0,40,41
 143.00451867 84.2871846856 143.00451867 84.2871846856 151 97 c 2,42,-1
 251 256 l 1,0,1
141 440 m 2,43,44
 141 401 141 401 157 381.5 c 128,-1,45
 173 362 173 362 188 356.5 c 128,-1,46
 203 351 203 351 223 351 c 0,47,48
 284 351 284 351 300 404 c 0,49,50
 306 424 306 424 306 440 c 2,51,-1
 306 489 l 2,52,53
 306 529 306 529 285 554 c 256,54,55
 265 578 265 578 224 578 c 0,56,57
 182 578 182 578 161 553 c 0,58,59
 141 528 141 528 141 489 c 2,60,-1
 141 440 l 2,43,44
EndSplineSet
Validated: 33
EndChar

StartChar: less
Encoding: 60 60 48
Width: 514
Flags: W
LayerCount: 2
Fore
SplineSet
38 376.5 m 2,0,1
 38 415.3828125 38 415.3828125 76 435.5 c 1,2,-1
 398 583.5 l 2,3,4
 422.240234375 595.620117188 422.240234375 595.620117188 446 580.5 c 256,5,6
 470 565.227539062 470 565.227539062 470 537.5 c 256,7,8
 470 523.5 470 523.5 461 510 c 128,-1,9
 452 496.5 452 496.5 440 491.5 c 2,10,-1
 189 376.5 l 2,11,12
 183.5 373.63671875 183.5 373.63671875 183 367.5 c 256,13,14
 183 361.5 183 361.5 189 358.5 c 2,15,-1
 440 242.5 l 1,16,17
 470 226.345703125 470 226.345703125 470 197.059570312 c 128,-1,18
 470 167.772460938 470 167.772460938 446.5 152.63671875 c 128,-1,19
 423 137.5 423 137.5 397 149.5 c 2,20,-1
 76 298.5 l 2,21,22
 60 305.5 60 305.5 48 322.5 c 0,23,24
 38 339.5 38 339.5 38 357.5 c 2,25,-1
 38 376.5 l 2,0,1
EndSplineSet
Validated: 33
EndChar

StartChar: equal
Encoding: 61 61 49
Width: 550
Flags: W
LayerCount: 2
Fore
SplineSet
60 151 m 2,0,1
 35 151 35 151 17.5 168.5 c 128,-1,2
 0 186 0 186 0 210.5 c 128,-1,3
 0 235 0 235 18 253 c 0,4,5
 34 271 34 271 60 271 c 2,6,-1
 421 271 l 2,7,8
 445 271 445 271 462.5 253.5 c 128,-1,9
 480 236 480 236 480 210.5 c 128,-1,10
 480 185 480 185 463 168 c 0,11,12
 446 151 446 151 421 151 c 2,13,-1
 60 151 l 2,0,1
60 347 m 2,14,15
 35 347 35 347 17.5 364.5 c 128,-1,16
 0 382 0 382 0 406.5 c 128,-1,17
 0 431 0 431 18 449 c 0,18,19
 34 467 34 467 60 467 c 2,20,-1
 421 467 l 2,21,22
 445 467 445 467 462.5 449.5 c 128,-1,23
 480 432 480 432 480 406.5 c 128,-1,24
 480 381 480 381 463 364 c 0,25,26
 446 347 446 347 421 347 c 2,27,-1
 60 347 l 2,14,15
EndSplineSet
Validated: 1
EndChar

StartChar: question
Encoding: 63 63 51
Width: 519
Flags: W
LayerCount: 2
Fore
SplineSet
255.881835938 165.099609375 m 1,0,1
 218.057617188 166.9609375 218.057617188 166.9609375 200.5 203.5 c 0,2,3
 195.118164062 214.75390625 195.118164062 214.75390625 195 229 c 2,4,-1
 194 350 l 2,5,6
 193.844726562 368.760742188 193.844726562 368.760742188 205 386 c 0,7,8
 217.092773438 403.131835938 217.092773438 403.131835938 234 410 c 2,9,-1
 266 423 l 2,10,11
 313 442 313 442 327.732421875 464.29296875 c 0,12,13
 356 507 356 507 336.719726562 547.5390625 c 0,14,15
 317 588 317 588 269 593 c 0,16,17
 197 600 197 600 165.5 533.5 c 0,18,19
 159 520 159 520 141.5 509 c 128,-1,20
 124 498 124 498 104.5 498.5 c 0,21,22
 66 500 66 500 47 532 c 0,23,24
 28 565 28 565 40.37890625 592.743164062 c 0,25,26
 54 622 54 622 68 640 c 0,27,28
 121 703 121 703 209 719 c 0,29,30
 266 729 266 729 323 714 c 0,31,32
 409 691 409 691 451.5 624.5 c 0,33,34
 497 554 497 554 483 469 c 0,35,36
 473 409 473 409 440.448242188 374.48828125 c 0,37,38
 409.428710938 341.456054688 409.428710938 341.456054688 387.65625 329.8125 c 2,39,-1
 345 307 l 2,40,41
 343 306 343 306 341 304 c 0,42,43
 340 302 340 302 340 299 c 2,44,-1
 341 229 l 2,45,46
 341.379882812 202.379882812 341.379882812 202.379882812 322 183 c 0,47,48
 305.982421875 166.982421875 305.982421875 166.982421875 282.047851562 165.21875 c 1,49,50
 309.549804688 161.580078125 309.549804688 161.580078125 332 141 c 0,51,52
 357 118.083007812 357 118.083007812 357 79.5 c 128,-1,53
 357 40.9169921875 357 40.9169921875 332 18 c 0,54,55
 307 -7 307 -7 270 -7 c 0,56,57
 230.916992188 -7 230.916992188 -7 208 18 c 0,58,59
 183 40.9169921875 183 40.9169921875 183 80 c 0,60,61
 183 135.05859375 183 135.05859375 236 160 c 0,62,63
 245.190429688 163.67578125 245.190429688 163.67578125 255.881835938 165.099609375 c 1,0,1
EndSplineSet
Validated: 33
EndChar

StartChar: at
Encoding: 64 64 52
Width: 1046
Flags: W
LayerCount: 2
Fore
SplineSet
739.36328125 175.807617188 m 4,0,1
 764.407226562 175.807617188 764.407226562 175.807617188 780.390625 189.793945312 c 4,2,3
 780.583007812 189.961914062 780.583007812 189.961914062 783.380859375 192.025390625 c 132,-1,4
 786.178710938 194.090820312 786.178710938 194.090820312 791.092773438 199.00390625 c 4,5,6
 811.567382812 219.478515625 811.567382812 219.478515625 825.4375 261.08984375 c 132,-1,7
 839.307617188 302.700195312 839.307617188 302.700195312 839.307617188 350.883789062 c 132,-1,8
 839.307617188 399.06640625 839.307617188 399.06640625 834.653320312 424.6640625 c 4,9,10
 816.209960938 526.110351562 816.209960938 526.110351562 744.8515625 593.901367188 c 5,11,12
 654.16015625 670.612304688 654.16015625 670.612304688 507.012695312 670.612304688 c 4,13,14
 301.841796875 670.612304688 301.841796875 670.612304688 206.8828125 516.303710938 c 4,15,16
 206.825195312 516.209960938 206.825195312 516.209960938 206.764648438 516.119140625 c 4,17,18
 154.099609375 437.1171875 154.099609375 437.1171875 154.099609375 306.78515625 c 4,19,20
 154.099609375 150.608398438 154.099609375 150.608398438 242.719726562 64.322265625 c 4,21,22
 337.2265625 -30.3583984375 337.2265625 -30.3583984375 519.139648438 -30.361328125 c 4,23,24
 612.967773438 -30.361328125 612.967773438 -30.361328125 687.501953125 -5.515625 c 4,25,26
 697.897460938 -2.05078125 697.897460938 -2.05078125 710.940429688 -2.05078125 c 132,-1,27
 723.986328125 -2.05078125 723.986328125 -2.05078125 735.350585938 -8.7998046875 c 132,-1,28
 746.71484375 -15.5458984375 746.71484375 -15.5458984375 752.732421875 -21.5634765625 c 4,29,30
 770.736328125 -39.5693359375 770.736328125 -39.5693359375 770.736328125 -67.140625 c 4,31,32
 770.736328125 -84.0068359375 770.736328125 -84.0068359375 765.567382812 -93.611328125 c 132,-1,33
 760.3984375 -103.213867188 760.3984375 -103.213867188 754.598632812 -109.013671875 c 4,34,35
 722.779296875 -140.833007812 722.779296875 -140.833007812 612.88671875 -155.166015625 c 4,36,37
 565.612304688 -161.333007812 565.612304688 -161.333007812 513.075195312 -161.333007812 c 4,38,39
 274.807617188 -161.333007812 274.807617188 -161.333007812 137.779296875 -24.306640625 c 4,40,41
 11 102.473632812 11 102.473632812 11 308 c 4,42,43
 11 414.525390625 11 414.525390625 45.7451171875 503.92578125 c 4,44,45
 61.921875 549.939453125 61.921875 549.939453125 88.1669921875 588.724609375 c 4,46,47
 132.510742188 663.360351562 132.510742188 663.360351562 217.578125 721.84375 c 4,48,49
 337.091796875 804.010742188 337.091796875 804.010742188 504.586914062 804.010742188 c 4,50,51
 761.693359375 804.010742188 761.693359375 804.010742188 899.952148438 619.666015625 c 5,52,53
 976.34375 503.112304688 976.34375 503.112304688 976.34375 364.79296875 c 132,-1,54
 976.34375 226.47265625 976.34375 226.47265625 913.541015625 139.030273438 c 4,55,56
 849.372070312 49.685546875 849.372070312 49.685546875 736.221679688 49.685546875 c 4,57,58
 660.274414062 49.685546875 660.274414062 49.685546875 613.254882812 88.8681640625 c 4,59,60
 607.092773438 92.162109375 607.092773438 92.162109375 600.708984375 101.342773438 c 4,61,62
 589.529296875 112.533203125 589.529296875 112.533203125 588.611328125 113.944335938 c 4,63,64
 586.372070312 113.10546875 586.372070312 113.10546875 581.682617188 108.415039062 c 4,65,66
 522.780273438 49.685546875 522.780273438 49.685546875 435.423828125 49.685546875 c 4,67,68
 345.263671875 49.685546875 345.263671875 49.685546875 288.430664062 109.2265625 c 4,69,70
 240.209960938 165.926757812 240.209960938 165.926757812 240.209960938 255.850585938 c 4,71,72
 240.209960938 310.713867188 240.209960938 310.713867188 256.338867188 375.23046875 c 4,73,74
 256.415039062 375.533203125 256.415039062 375.533203125 266.408203125 403.112304688 c 4,75,76
 297.8359375 489.5390625 297.8359375 489.5390625 359.927734375 537.020507812 c 132,-1,77
 422.020507812 584.502929688 422.020507812 584.502929688 500.948242188 584.502929688 c 6,78,-1
 540.362304688 584.502929688 l 6,79,80
 557.065429688 584.502929688 557.065429688 584.502929688 580.978515625 583.2109375 c 132,-1,81
 604.891601562 581.916992188 604.891601562 581.916992188 633.036132812 567.260742188 c 132,-1,82
 661.1796875 552.6015625 661.1796875 552.6015625 679.295898438 534.482421875 c 4,83,84
 709.787109375 503.995117188 709.787109375 503.995117188 720.709960938 459.46484375 c 4,85,86
 724.858398438 442.551757812 724.858398438 442.551757812 724.858398438 424.29296875 c 132,-1,87
 724.858398438 406.046875 724.858398438 406.046875 720.114257812 386.392578125 c 6,88,-1
 697.174804688 281.3515625 l 6,89,90
 691.966796875 255.313476562 691.966796875 255.313476562 691.966796875 241.431640625 c 132,-1,91
 691.966796875 227.548828125 691.966796875 227.548828125 692.559570312 220.680664062 c 4,92,93
 692.559570312 197.80078125 692.559570312 197.80078125 703.556640625 186.802734375 c 132,-1,94
 714.555664062 175.807617188 714.555664062 175.807617188 739.36328125 175.807617188 c 4,0,1
393.75 331.2734375 m 4,95,96
 384.522460938 294.151367188 384.522460938 294.151367188 384.522460938 255.311523438 c 132,-1,97
 384.522460938 216.469726562 384.522460938 216.469726562 401.822265625 199.168945312 c 132,-1,98
 419.122070312 181.870117188 419.122070312 181.870117188 451.225585938 181.870117188 c 4,99,100
 470.219726562 181.870117188 470.219726562 181.870117188 498.532226562 203.104492188 c 132,-1,101
 527.022460938 224.473632812 527.022460938 224.473632812 544.625976562 277.283203125 c 4,102,103
 553.638671875 304.321289062 553.638671875 304.321289062 577.821289062 388.959960938 c 4,104,105
 581.03515625 400.20703125 581.03515625 400.20703125 581.03515625 413.596679688 c 132,-1,106
 581.03515625 426.986328125 581.03515625 426.986328125 569.30078125 438.720703125 c 132,-1,107
 557.428710938 450.594726562 557.428710938 450.594726562 539.205078125 452.318359375 c 6,108,-1
 505.798828125 452.318359375 l 6,109,110
 456.1328125 452.318359375 456.1328125 452.318359375 420.28125 394.958007812 c 4,111,112
 408.765625 376.244140625 408.765625 376.244140625 393.75 331.2734375 c 4,95,96
EndSplineSet
Validated: 1
EndChar

StartChar: A
Encoding: 65 65 53
Width: 520
Flags: WO
LayerCount: 2
Fore
SplineSet
145 225 m 1,0,-1
 145 73 l 2,1,2
 145 42 145 42 124 21 c 256,3,4
 103 0 103 0 72.5 0 c 128,-1,5
 42 0 42 0 21 21 c 256,6,7
 0 42 0 42 0 73 c 2,8,-1
 0 492 l 2,9,10
 0 598 0 598 86 662.5 c 0,11,12
 146 707 146 707 226 708 c 0,13,14
 332.016117539 708 332.016117539 708 385.794921875 658.794921875 c 0,15,16
 460 591 460 591 461 492 c 1,17,-1
 461 73 l 2,18,19
 461 42 461 42 440 21 c 128,-1,20
 419 -0 419 -0 388.5 0 c 128,-1,21
 358 0 358 0 337 21 c 256,22,23
 316 42 316 42 316 73 c 2,24,-1
 316 225 l 1,25,-1
 145 225 l 1,0,-1
316 353 m 1,26,-1
 316 486 l 2,27,28
 316 525 316 525 296 550.5 c 128,-1,29
 276 576 276 576 231 575.5 c 128,-1,30
 186 575 186 575 165.5 548 c 128,-1,31
 145 521 145 521 145 486 c 2,32,-1
 145 353 l 1,33,-1
 316 353 l 1,26,-1
EndSplineSet
EndChar

StartChar: B
Encoding: 66 66 54
Width: 520
Flags: WO
LayerCount: 2
Fore
SplineSet
369 370 m 1,0,1
 376 364 376 364 389 353.5 c 0,2,3
 452 303 452 303 452 215.5 c 0,4,5
 452 69 452 69 322 15 c 0,6,7
 286 0 286 0 226 0 c 2,8,-1
 65 0 l 2,9,10
 38 0 38 0 19 19 c 256,11,12
 0 38 0 38 0 65 c 2,13,-1
 0 641 l 2,14,15
 0 678 0 678 22 694 c 0,16,17
 42 708 42 708 64 708 c 2,18,-1
 225 708 l 2,19,20
 353 708 353 708 410.5 614.5 c 0,21,22
 439 568 439 568 439 524.875 c 0,23,24
 439 468 439 468 425 441.5 c 0,25,26
 404 405 404 405 369 370 c 1,0,1
308 207 m 2,27,-1
 308 226.5 l 2,28,29
 308 250 308 250 294 269 c 0,30,31
 268 304 268 304 220 306 c 1,32,-1
 145 306 l 1,33,-1
 145 128 l 1,34,-1
 212.125 128 l 2,35,36
 259 128 259 128 286 155 c 0,37,38
 308 177 308 177 308 207 c 2,27,-1
145 578 m 1,39,-1
 145 431 l 1,40,-1
 220 431 l 2,41,42
 261 431 261 431 284 462 c 0,43,44
 308 495 308 495 288.430664062 538.219726562 c 0,45,46
 270 578 270 578 220 578 c 2,47,-1
 145 578 l 1,39,-1
EndSplineSet
EndChar

StartChar: C
Encoding: 67 67 55
Width: 531
Flags: W
LayerCount: 2
Fore
SplineSet
461 220 m 2,0,-1
 461 214 l 2,1,2
 461 112 461 112 398 49 c 128,-1,3
 335 -14 335 -14 238.441176471 -14 c 128,-1,4
 141.882352941 -14 141.882352941 -14 87.1031635116 28.3293736501 c 0,5,6
 32.3239740821 70.6587473002 32.3239740821 70.6587473002 16.161987041 120.940484761 c 128,-1,7
 0 171.222222222 0 171.222222222 0 214 c 2,8,-1
 0 492 l 2,9,10
 0 610.363636364 0 610.363636364 83 674.5 c 0,11,12
 116 700 116 700 157 710 c 128,-1,13
 198 720 198 720 223 720 c 0,14,15
 301.571428571 720 301.571428571 720 353 690 c 0,16,17
 382.538461538 674.527472527 382.538461538 674.527472527 396.769230769 658.263736264 c 2,18,-1
 418 634 l 1,19,20
 437 609 437 609 435 581 c 256,21,22
 433 553 433 553 410.5 535.5 c 128,-1,23
 388 518 388 518 364.5 520.5 c 0,24,25
 321.395721925 525.085561497 321.395721925 525.085561497 303 549 c 0,26,27
 288 567 288 567 272 578 c 0,28,29
 252 589 252 589 224 589 c 128,-1,30
 196 589 196 589 170.5 563.5 c 128,-1,31
 145 538 145 538 145 508 c 2,32,-1
 145 220 l 2,33,34
 145 181.333333333 145 181.333333333 153.5 167.166666667 c 128,-1,35
 162 153 162 153 170 142 c 0,36,37
 187.454545455 118 187.454545455 118 230.12012987 118 c 128,-1,38
 272.785714286 118 272.785714286 118 294 145 c 0,39,40
 307.823529412 167.117647059 307.823529412 167.117647059 311.911764706 181.558823529 c 128,-1,41
 316 196 316 196 316 219 c 2,42,-1
 316 220 l 2,43,44
 316 248 316 248 337 271 c 0,45,46
 358 292 358 292 388 292 c 0,47,48
 418 294 418 294 439 271 c 0,49,50
 461 251 461 251 461 220 c 2,0,-1
EndSplineSet
Validated: 33
EndChar

StartChar: D
Encoding: 68 68 56
Width: 512
Flags: W
LayerCount: 2
Fore
SplineSet
281 698 m 256,0,1
 387.816326531 671.295918367 387.816326531 671.295918367 427 565.5 c 0,2,3
 442 525 442 525 442 474 c 2,4,-1
 442 231 l 2,5,6
 442 93 442 93 337 30 c 0,7,8
 285.571428571 2.60208521397e-18 285.571428571 2.60208521397e-18 216 0 c 2,9,-1
 65 0 l 2,10,11
 38 0 38 0 19 19 c 256,12,13
 0 38 0 38 0 65 c 2,14,-1
 0 641 l 2,15,16
 0 668 0 668 19 687 c 256,17,18
 38 706 38 706 65 706 c 2,19,-1
 216 706 l 2,20,21
 249 706 249 706 281 698 c 256,0,1
145 132 m 1,22,-1
 209 132 l 2,23,24
 272 132 272 132 291 194 c 0,25,26
 297 213 297 213 297 237 c 2,27,-1
 297 469 l 2,28,29
 297 528 297 528 262 558.5 c 0,30,31
 245 574 245 574 209 574 c 2,32,-1
 145 574 l 1,33,-1
 145 132 l 1,22,-1
EndSplineSet
Validated: 1
EndChar

StartChar: E
Encoding: 69 69 57
Width: 451
Flags: W
LayerCount: 2
Fore
SplineSet
145 576 m 1,0,-1
 145 432 l 2,1,-1
 272 432 l 2,2,3
 297 432 297 432 318 413 c 0,4,5
 337 396 337 396 337 368.5 c 128,-1,6
 337 341 337 341 318 322 c 256,7,8
 299 303 299 303 272 303 c 2,9,-1
 145 303 l 2,10,-1
 145 130 l 1,11,-1
 316 130 l 2,12,13
 343 130 343 130 358.142857143 114.857142857 c 4,14,15
 381 92 381 92 381 65 c 1,16,17
 381 40 381 40 362 19 c 0,18,19
 345 0 345 0 316 0 c 2,20,-1
 65 0 l 2,21,22
 38 0 38 0 19 19 c 256,23,24
 0 38 0 38 0 65 c 2,25,-1
 0 643 l 2,26,27
 0 670 0 670 19 689 c 256,28,29
 38 708 38 708 65 708 c 2,30,-1
 314 708 l 2,31,32
 340 708 340 708 359 689 c 128,-1,33
 378 670 378 670 378 643 c 256,34,35
 378 616 378 616 359 595 c 0,36,37
 342 576 342 576 314 576 c 2,38,-1
 145 576 l 1,0,-1
EndSplineSet
Validated: 1
EndChar

StartChar: F
Encoding: 70 70 58
Width: 448
Flags: W
LayerCount: 2
Fore
SplineSet
145 303 m 6,0,-1
 145 73 l 2,1,2
 145 42 145 42 124 21 c 256,3,4
 103 0 103 0 72.5 0 c 128,-1,5
 42 0 42 0 21 21 c 256,6,7
 0 42 0 42 0 73 c 2,8,-1
 0 641 l 2,9,10
 0 668 0 668 19 687 c 256,11,12
 38 706 38 706 65 706 c 2,13,-1
 314 706 l 2,14,15
 340 706 340 706 359 687 c 128,-1,16
 378 668 378 668 378 641 c 256,17,18
 378 616 378 616 359 595 c 0,19,20
 342.14902943 576.166562304 342.14902943 576.166562304 314 576 c 2,21,-1
 145 575 l 1,22,-1
 146 432 l 2,23,-1
 267 432 l 2,24,25
 292 432 292 432 313 413 c 0,26,27
 332 396 332 396 332 368.5 c 128,-1,28
 332 341 332 341 313 322 c 256,29,30
 294 303 294 303 267 303 c 2,31,-1
 145 303 l 6,0,-1
EndSplineSet
Validated: 1
EndChar

StartChar: G
Encoding: 71 71 59
Width: 531
Flags: W
LayerCount: 2
Fore
SplineSet
396 418 m 2,0,1
 423 418 423 418 442 399 c 256,2,3
 460.659093067 380.340906933 460.659093067 380.340906933 461 353 c 2,4,-1
 462.55859375 228 l 2,5,6
 464 127 464 127 399.55859375 63 c 0,7,8
 337 0 337 0 240 0 c 128,-1,9
 143 0 143 0 88.662109375 42.3291015625 c 0,10,11
 31 87 31 87 17.720703125 134.940429688 c 0,12,13
 2 193 2 193 1.55859375 228 c 2,14,-1
 -1 480 l 2,15,16
 -2.18644245452 596.854619277 -2.18644245452 596.854619277 82 662.5 c 0,17,18
 115 688 115 688 156 698 c 128,-1,19
 197 708 197 708 222 708 c 0,20,21
 292 708 292 708 352 678 c 0,22,23
 380.445191757 663.777404121 380.445191757 663.777404121 395.76953125 646.263671875 c 2,24,-1
 417 622 l 1,25,26
 436 597 436 597 434 569 c 256,27,28
 432 541 432 541 409.5 523.5 c 128,-1,29
 387 506 387 506 363.5 508.5 c 0,30,31
 322 513 322 513 302 537 c 0,32,33
 284 559 284 559 271 566 c 0,34,35
 251 577 251 577 223 577 c 128,-1,36
 195 577 195 577 169.415039062 551.415039062 c 128,-1,37
 143.709864603 525.709864603 143.709864603 525.709864603 144 496 c 2,38,-1
 146.55859375 234 l 2,39,40
 146.928400496 196.131789248 146.928400496 196.131789248 155.05859375 181.166992188 c 0,41,42
 164 167 164 167 171.55859375 156 c 0,43,44
 189 132 189 132 231.678710938 132 c 0,45,46
 276 132 276 132 295.55859375 159 c 0,47,48
 308 177 308 177 313.470703125 195.55859375 c 0,49,50
 318.121564717 214.494960784 318.121564717 214.494960784 317.55859375 234 c 2,51,-1
 316 288 l 1,52,-1
 278 288 l 2,53,54
 252 288 252 288 233 307 c 128,-1,55
 214 326 214 326 214 353 c 256,56,57
 214 378 214 378 233 399 c 0,58,59
 250 418 250 418 278 418 c 2,60,-1
 396 418 l 2,0,1
EndSplineSet
Validated: 33
EndChar

StartChar: H
Encoding: 72 72 60
Width: 539
Flags: W
LayerCount: 2
Fore
SplineSet
309 633 m 1,0,1
 309 664 309 664 330 685 c 128,-1,2
 351 706 351 706 381 706 c 256,3,4
 411 706 411 706 432.5 684.5 c 128,-1,5
 454 663 454 663 454 633 c 2,6,-1
 454 73 l 2,7,8
 454 41 454 41 432.5 20.5 c 128,-1,9
 411 0 411 0 381 0 c 256,10,11
 351 0 351 0 330 21 c 256,12,13
 309 42 309 42 309 73 c 2,14,-1
 309 302 l 2,15,-1
 145 302 l 2,16,-1
 145 73 l 2,17,18
 145 42 145 42 124 21 c 256,19,20
 103 0 103 0 72.5 0 c 128,-1,21
 42 0 42 0 21 21 c 256,22,23
 0 42 0 42 0 73 c 2,24,-1
 0 633 l 2,25,26
 0 664 0 664 21 685 c 128,-1,27
 42 706 42 706 72.5 706 c 128,-1,28
 103 706 103 706 124 685 c 128,-1,29
 145 664 145 664 145 633 c 2,30,-1
 145 432 l 1,31,-1
 309 432 l 1,32,-1
 309 633 l 1,0,1
EndSplineSet
Validated: 1
EndChar

StartChar: I
Encoding: 73 73 61
Width: 230
Flags: W
LayerCount: 2
Fore
SplineSet
0 633 m 2,0,1
 0 662 0 662 21 685 c 0,2,3
 42 706 42 706 72.5 706 c 128,-1,4
 103 706 103 706 124 685 c 0,5,6
 145 662 145 662 145 633 c 2,7,-1
 145 73 l 2,8,9
 145 42 145 42 124 21 c 256,10,11
 103 0 103 0 72.5 0 c 128,-1,12
 42 0 42 0 21 21 c 256,13,14
 0 42 0 42 0 73 c 2,15,-1
 0 633 l 2,0,1
EndSplineSet
Validated: 1
EndChar

StartChar: J
Encoding: 74 74 62
Width: 533
Flags: W
LayerCount: 2
Fore
SplineSet
448 633 m 2,0,-1
 445.25 230 l 2,1,2
 444.762695767 158.587779687 444.762695767 158.587779687 412.854492188 103.16015625 c 0,3,4
 380 46 380 46 310.25 18.5 c 0,5,6
 268 2 268 2 232.75 2 c 0,7,8
 84 2 84 2 19.25 100 c 0,9,10
 -18 156 -18 156 10.25 196 c 0,11,12
 33 228 33 228 72.25 226 c 0,13,14
 89 225 89 225 105.25 213.5 c 0,15,16
 121 202 121 202 127.25 190 c 0,17,18
 133 178 133 178 136.25 174 c 0,19,20
 139 170 139 170 141.75 166.5 c 0,21,22
 165 134 165 134 211 134 c 0,23,24
 259 134 259 134 278.25 161 c 0,25,26
 291 179 291 179 296.162109375 197.55859375 c 0,27,28
 300.078736356 211.275757558 300.078736356 211.275757558 300.25 236 c 2,29,-1
 303 633 l 2,30,31
 303.216225707 664.215129322 303.216225707 664.215129322 324.106291759 684.999271066 c 0,32,33
 345 706 345 706 375.5 706 c 128,-1,34
 406 706 406 706 427 685 c 0,35,36
 448 662 448 662 448 633 c 2,0,-1
EndSplineSet
Validated: 33
EndChar

StartChar: K
Encoding: 75 75 63
Width: 510
Flags: W
LayerCount: 2
Fore
SplineSet
273 368 m 2,0,-1
 429 111 l 2,1,2
 445.118368767 84.446020685 445.118368767 84.446020685 437.391915643 55.3322772456 c 0,3,4
 430 25 430 25 405.179995114 10.1501580403 c 0,5,6
 380 -5 380 -5 350.07615894 2.66225165563 c 0,7,8
 320.044059766 9.98925063958 320.044059766 9.98925063958 305 35 c 2,9,-1
 145 301 l 2,10,-1
 145 73 l 2,11,12
 145 42 145 42 124 21 c 256,13,14
 103 0 103 0 73 0 c 128,-1,15
 43 0 43 0 21.5 21.5 c 128,-1,16
 0 43 0 43 0 74 c 2,17,-1
 0 633 l 2,18,19
 0 664 0 664 22 685 c 128,-1,20
 44 706 44 706 73 706 c 128,-1,21
 102 706 102 706 123.5 684.5 c 128,-1,22
 145 663 145 663 145 632 c 2,23,-1
 145 418 l 2,24,-1
 309 673 l 2,25,26
 323 694 323 694 346 702 c 256,27,28
 369 710 369 710 389 703 c 0,29,30
 423 691 423 691 435 658 c 256,31,32
 446 627 446 627 427 598 c 2,33,-1
 273 368 l 2,0,-1
EndSplineSet
Validated: 33
EndChar

StartChar: L
Encoding: 76 76 64
Width: 436
Flags: W
LayerCount: 2
Fore
SplineSet
145 130 m 1,0,-1
 311 130 l 2,1,2
 352 130 352 130 370.5 90.5 c 0,3,4
 376 79 376 79 376 65 c 256,5,6
 376 38 376 38 357 19 c 128,-1,7
 338 0 338 0 311 0 c 2,8,-1
 65 0 l 2,9,10
 38 0 38 0 19 19 c 256,11,12
 0 38 0 38 0 65 c 2,13,-1
 0 641 l 2,14,15
 0 668 0 668 19 687 c 256,16,17
 38 706 38 706 65 706 c 2,18,-1
 80 706 l 2,19,20
 107 706 107 706 126 687 c 128,-1,21
 145 668 145 668 145 641 c 2,22,-1
 145 130 l 1,0,-1
EndSplineSet
Validated: 1
EndChar

StartChar: M
Encoding: 77 77 65
Width: 737
Flags: W
LayerCount: 2
Fore
SplineSet
343 667 m 1,0,1
 378 691 378 691 398.75 697.25 c 0,2,3
 426 706 426 706 455 706 c 128,-1,4
 484 706 484 706 508.5 700.5 c 0,5,6
 601 680 601 680 654 596 c 0,7,8
 664 580 664 580 672.93359375 546.483398438 c 128,-1,9
 682 513 682 513 682 478 c 2,10,-1
 682 73 l 2,11,12
 682 42 682 42 661 21 c 0,13,14
 648 8 648 8 640 5 c 0,15,16
 628 0 628 0 609 0 c 0,17,18
 578 -1 578 -1 558 21 c 0,19,20
 537 44 537 44 537 73 c 2,21,-1
 537 511 l 2,22,23
 537 537 537 537 519 555 c 256,24,25
 501 573 501 573 476.5 573.5 c 128,-1,26
 452 574 452 574 433.5 558 c 128,-1,27
 415 542 415 542 415 518 c 2,28,-1
 415 74 l 2,29,30
 415 44 415 44 393 22 c 128,-1,31
 371 0 371 0 341 0 c 256,32,33
 311 0 311 0 289 22 c 128,-1,34
 267 44 267 44 267 74 c 2,35,-1
 267 518 l 2,36,37
 267 541 267 541 248 558 c 0,38,39
 230 574 230 574 205.5 573.5 c 128,-1,40
 181 573 181 573 163 555 c 256,41,42
 145 537 145 537 145 512 c 2,43,-1
 145 73 l 2,44,45
 145 42 145 42 124 21 c 128,-1,46
 103 0 103 0 73.5 0 c 0,47,48
 42 0 42 0 21 21 c 128,-1,49
 0 42 0 42 0 73 c 2,50,-1
 0 478 l 2,51,52
 0 580 0 580 63 643 c 128,-1,53
 126 706 126 706 231 706 c 0,54,55
 277 706 277 706 343 667 c 1,0,1
EndSplineSet
Validated: 33
EndChar

StartChar: N
Encoding: 78 78 66
Width: 546
Flags: W
LayerCount: 2
Fore
SplineSet
124 21 m 256,0,1
 103 0 103 0 72.5 0 c 128,-1,2
 42 0 42 0 21 21 c 256,3,4
 -0.0759803921569 42.0759803922 -0.0759803921569 42.0759803922 0 73 c 2,5,-1
 1 480 l 6,6,7
 1 597 1 597 84 662.5 c 4,8,9
 115 686 115 686 145 697 c 128,-1,10
 175 708 175 708 230 708 c 0,11,12
 282 708 282 708 333 687 c 4,13,14
 443 641 443 641 460 512.5 c 0,15,16
 462.040988547 496.682338758 462.040988547 496.682338758 462 480 c 2,17,-1
 461 73 l 2,18,19
 461 42 461 42 440 21 c 0,20,21
 417 0 417 0 387.5 0 c 128,-1,22
 358 0 358 0 337 21 c 256,23,24
 315.922885572 42.0771144279 315.922885572 42.0771144279 316 73 c 2,25,-1
 317 474 l 2,26,27
 317 521 317 521 295 549 c 0,28,29
 274 576 274 576 231.5 576 c 128,-1,30
 189 576 189 576 172.607421875 554 c 0,31,32
 146.112588783 519.148101812 146.112588783 519.148101812 146 474 c 2,33,-1
 145 73 l 2,34,35
 145 42 145 42 124 21 c 256,0,1
EndSplineSet
Validated: 33
EndChar

StartChar: O
Encoding: 79 79 67
Width: 531
Flags: W
LayerCount: 2
Fore
SplineSet
458 512.5 m 4,0,1
 459.926711668 499.494696239 459.926711668 499.494696239 460 480 c 6,2,-1
 461 214 l 2,3,4
 461.382022472 112.382022472 461.382022472 112.382022472 398 49 c 0,5,6
 335 -14 335 -14 238.441176471 -14 c 128,-1,7
 142 -14 142 -14 87.1031635116 28.3293736501 c 0,8,9
 33.7892594456 69.6144385117 33.7892594456 69.6144385117 16.161987041 120.940484761 c 0,10,11
 0 167 0 167 0 214 c 2,12,-1
 -1 480 l 6,13,14
 -1.43854855827 596.653916499 -1.43854855827 596.653916499 82 662.5 c 4,15,16
 115 688 115 688 156 698 c 132,-1,17
 197 708 197 708 222 708 c 4,18,19
 318 708 318 708 381.794921875 658.794921875 c 4,20,21
 443 611 443 611 458 512.5 c 4,0,1
144 474 m 6,22,-1
 145 220 l 2,23,24
 145.158421993 179.760813854 145.158421993 179.760813854 153.5 167.166666667 c 0,25,26
 162 153 162 153 170 142 c 0,27,28
 187 118 187 118 230.12012987 118 c 0,29,30
 275 118 275 118 294 145 c 0,31,32
 307 163 307 163 311.911764706 181.558823529 c 0,33,34
 316 199 316 199 316 220 c 2,35,-1
 315 474 l 6,36,37
 314.814028777 521.236690647 314.814028777 521.236690647 293 549 c 4,38,39
 272 576 272 576 229.5 576 c 132,-1,40
 187 576 187 576 170.607421875 554 c 4,41,42
 143.823747428 518.76815341 143.823747428 518.76815341 144 474 c 6,22,-1
EndSplineSet
Validated: 33
EndChar

StartChar: P
Encoding: 80 80 68
Width: 514
Flags: W
LayerCount: 2
Fore
SplineSet
145 284 m 2,0,-1
 145 73 l 2,1,2
 145 42 145 42 124 21 c 256,3,4
 103 0 103 0 72.5 0 c 128,-1,5
 42 0 42 0 21 21 c 256,6,7
 0 42 0 42 0 73 c 2,8,-1
 0 641 l 2,9,10
 0 668 0 668 19 687 c 256,11,12
 38 706 38 706 65 706 c 2,13,-1
 220 706 l 2,14,15
 299 706 299 706 358 665.5 c 0,16,17
 369 658 369 658 379 648 c 0,18,19
 444 592 444 592 444 495 c 256,20,21
 444 437 444 437 414 384 c 0,22,23
 405 368 405 368 379 342 c 0,24,25
 345 308 345 308 280 291 c 0,26,27
 253 284 253 284 220 284 c 2,28,-1
 145 284 l 2,0,-1
145 576 m 1,29,-1
 145 414 l 2,30,-1
 213 414 l 2,31,32
 275 414 275 414 293 460 c 0,33,34
 299 475 299 475 299 495 c 256,35,36
 299 535 299 535 274.75 555.681818182 c 0,37,38
 250 576 250 576 213 576 c 2,39,-1
 145 576 l 1,29,-1
EndSplineSet
Validated: 1
EndChar

StartChar: Q
Encoding: 81 81 69
Width: 531
Flags: W
LayerCount: 2
Fore
SplineSet
145 220 m 2,0,1
 145 176 145 176 166.227272727 147.1875 c 0,2,3
 187 118 187 118 230.12012987 118 c 0,4,5
 275 118 275 118 294 145 c 0,6,7
 307 163 307 163 311.911764706 181.558823529 c 0,8,9
 316 196 316 196 316 220 c 2,10,-1
 316 486 l 2,11,12
 316 519 316 519 292.5 548 c 0,13,14
 271 575 271 575 229 575 c 128,-1,15
 187 575 187 575 170.107421875 553 c 0,16,17
 145 518 145 518 145 486 c 2,18,-1
 145 220 l 2,0,1
368 22 m 0,19,-1
 393 -10 l 1,20,21
 422 -49 422 -49 399 -91 c 0,22,23
 384 -119 384 -119 354.931165312 -126.267208672 c 0,24,25
 321 -134 321 -134 290 -117 c 0,26,27
 269.806150419 -105.89338273 269.806150419 -105.89338273 261.024414062 -94.244140625 c 2,28,-1
 212.024414062 -29.244140625 l 2,29,30
 198 -10 198 -10 170.024414062 -5.244140625 c 0,31,32
 118 5 118 5 93.77734375 19.701171875 c 0,33,34
 0 73 0 73 0 169 c 0,35,36
 -0 192 -0 192 0 214 c 2,37,-1
 0 492 l 2,38,39
 0 599 0 599 84 662.5 c 0,40,41
 117 688 117 688 158 698 c 128,-1,42
 199 708 199 708 224 708 c 0,43,44
 318 708 318 708 383.794921875 658.794921875 c 0,45,46
 448 610 448 610 459 524.5 c 0,47,48
 461 509 461 509 461 492 c 2,49,-1
 461 214 l 2,50,51
 461 123 461 123 408 59 c 1,52,-1
 392.5 43.5 l 2,53,54
 380 31 380 31 368 22 c 0,19,-1
EndSplineSet
Validated: 33
EndChar

StartChar: R
Encoding: 82 82 70
Width: 514
Flags: W
LayerCount: 2
Fore
SplineSet
330 306 m 5,0,1
 365 328 365 328 382 344 c 0,2,3
 444 403 444 403 444 495 c 256,4,5
 444 590 444 590 379 648 c 0,6,7
 310 708 310 708 226 708 c 2,8,-1
 71 708 l 2,9,10
 40 708 40 708 19 687 c 256,11,12
 0 668 0 668 0 641 c 2,13,-1
 0 73 l 2,14,15
 0 42 0 42 21 21 c 256,16,17
 42 0 42 0 72.5 0 c 128,-1,18
 103 0 103 0 124 21 c 256,19,20
 145 42 145 42 145 73 c 2,21,-1
 145 284 l 2,22,-1
 177 284 l 1,23,-1
 301 40 l 2,24,25
 314 14 314 14 342.435497911 4.02263231198 c 128,-1,26
 371 -6 371 -6 398.5 8 c 128,-1,27
 426 22 426 22 435.01248 50.53952 c 128,-1,28
 444 79 444 79 431 105 c 2,29,-1
 330 306 l 5,0,1
146 576 m 1,30,-1
 213 576 l 2,31,32
 250 576 250 576 274.75 555.681818182 c 0,33,34
 299 535 299 535 299 495 c 256,35,36
 299 475 299 475 293 460 c 0,37,38
 275 414 275 414 213 414 c 2,39,-1
 145 414 l 2,40,-1
 146 576 l 1,30,-1
EndSplineSet
Validated: 41
EndChar

StartChar: S
Encoding: 83 83 71
Width: 523
Flags: W
LayerCount: 2
Fore
SplineSet
376.146484375 353.756835938 m 0,0,1
 444 302 444 302 452.146484375 248.756835938 c 0,2,3
 458 209 458 209 440.521484375 149.462890625 c 0,4,5
 426 100 426 100 386 64 c 128,-1,6
 346 28 346 28 290 14 c 128,-1,7
 234 0 234 0 177 9.5 c 0,8,9
 124 18 124 18 73 54 c 0,10,11
 34 81 34 81 10 132 c 0,12,13
 -6 166 -6 166 15 198 c 256,14,15
 36 230 36 230 74 230 c 0,16,17
 95 230 95 230 111.5 219 c 0,18,19
 113 218 113 218 136 190 c 0,20,21
 145 179 145 179 146 175 c 0,22,23
 148 170 148 170 151.5 166.5 c 2,24,-1
 159 159 l 1,25,26
 191 131 191 131 237 135 c 256,27,28
 284 140 284 140 305.5 176 c 128,-1,29
 327 212 327 212 300.146484375 249.756835938 c 256,30,31
 279 280 279 280 236.530273438 294.294921875 c 0,32,33
 194 309 194 309 159.146484375 321.756835938 c 0,34,35
 24 374 24 374 7.146484375 446.756835938 c 0,36,37
 -14.5306907135 549.064827723 -14.5306907135 549.064827723 45.146484375 627.756835938 c 0,38,39
 106 708 106 708 215 708 c 128,-1,40
 324 708 324 708 378.146484375 654.756835938 c 0,41,42
 426.015207651 610.925870388 426.015207651 610.925870388 426.146484375 575.756835938 c 0,43,44
 426 536 426 536 393.146484375 514.256835938 c 0,45,46
 376.617207026 503.756835938 376.617207026 503.756835938 356.146484375 503.756835938 c 2,47,-1
 355.146484375 503.756835938 l 2,48,49
 337 504 337 504 320.646484375 513.756835938 c 0,50,51
 304 524 304 524 296.646484375 535.756835938 c 0,52,53
 266 585 266 585 226.479492188 582.58984375 c 0,54,55
 169 579 169 579 147.646484375 535.756835938 c 0,56,57
 137 515 137 515 143.146484375 491.756835938 c 0,58,59
 156 443 156 443 216.76953125 423.349609375 c 0,60,61
 331 388 331 388 376.146484375 353.756835938 c 0,0,1
EndSplineSet
Validated: 33
EndChar

StartChar: T
Encoding: 84 84 72
Width: 514
Flags: W
LayerCount: 2
Fore
SplineSet
156 566 m 1,0,-1
 155 65 l 2,1,2
 154.946215139 38.0537848606 154.946215139 38.0537848606 174 19 c 256,3,4
 193 0 193 0 220 0 c 2,5,-1
 235 0 l 2,6,7
 262 0 262 0 281 19 c 256,8,9
 300 38 300 38 300 65 c 2,10,-1
 302 565 l 1,11,-1
 391 565 l 2,12,13
 418 565 418 565 437 584 c 256,14,15
 456 603 456 603 456 630 c 256,16,17
 456 666 456 666 435 687 c 256,18,19
 416 706 416 706 389 706 c 2,20,-1
 65 706 l 2,21,22
 38 706 38 706 19 687 c 256,23,24
 2 670 2 670 2 630 c 256,25,26
 2 603 2 603 21 584 c 256,27,28
 40.3 564.7 40.3 564.7 67 565 c 2,29,-1
 156 566 l 1,0,-1
EndSplineSet
Validated: 41
EndChar

StartChar: U
Encoding: 85 85 73
Width: 546
Flags: W
LayerCount: 2
Fore
SplineSet
337.5 687 m 0,0,1
 358 708 358 708 388 708 c 0,2,3
 420 708 420 708 440.5 687 c 128,-1,4
 461 666 461 666 461 633 c 2,5,-1
 461 214 l 2,6,7
 461 127 461 127 396.55859375 63 c 0,8,9
 334 0 334 0 237 0 c 0,10,11
 141 0 141 0 85.662109375 42.3291015625 c 0,12,13
 27 88 27 88 16.161987041 120.940484761 c 0,14,15
 0 171 0 171 0 214 c 2,16,-1
 0 633 l 2,17,18
 0 666 0 666 21.5 687 c 0,19,20
 42 708 42 708 73 708 c 128,-1,21
 104 708 104 708 124.5 687 c 0,22,23
 145 665 145 665 145 633 c 2,24,-1
 145 220 l 2,25,26
 145 183 145 183 162 154 c 0,27,28
 183 118 183 118 230.12012987 118 c 0,29,30
 281 118 281 118 305 164 c 0,31,32
 316 185 316 185 316 220 c 2,33,-1
 316 633 l 2,34,35
 316 666 316 666 337.5 687 c 0,0,1
EndSplineSet
Validated: 1
EndChar

StartChar: V
Encoding: 86 86 74
Width: 520
Flags: W
LayerCount: 2
Fore
SplineSet
1.0458984375 643.017578125 m 0,0,1
 1 670 1 670 20.0927734375 688.96875 c 128,-1,2
 39 708 39 708 64.177734375 708.014648438 c 0,3,4
 89 708 89 708 107.018554688 693.458984375 c 0,5,6
 124.520826288 680.358658127 124.520826288 680.358658127 129.58984375 656.725585938 c 2,7,-1
 242.584960938 129.913085938 l 1,8,-1
 242.584960938 129.913085938 l 1,9,-1
 346.495117188 655.259765625 l 2,10,11
 351.225881103 679.177457648 351.225881103 679.177457648 368.797851562 692.982421875 c 0,12,13
 387 708 387 708 412 708 c 0,14,15
 438 708 438 708 456.284179688 688.955078125 c 0,16,17
 462 683 462 683 475.330078125 643.004882812 c 0,18,19
 476.110564762 640.669111578 476.110564762 640.669111578 474.174804688 630.857421875 c 2,20,-1
 360.087890625 52.5908203125 l 2,21,22
 355.558306744 29.6319463815 355.558306744 29.6319463815 337.734669196 14.7798873752 c 128,-1,23
 319.91044146 -0.0751630832779 319.91044146 -0.0751630832779 296.3359375 -0.0615234375 c 2,24,-1
 190 0 l 2,25,26
 165 0 165 0 149.233155994 14.3121798935 c 0,27,28
 131 31 131 31 126.547851562 51.1865234375 c 2,29,-1
 2.533203125 629.24609375 l 2,30,31
 1.0024924081 636.38107329 1.0024924081 636.38107329 1.0458984375 643.017578125 c 0,0,1
EndSplineSet
Validated: 37
EndChar

StartChar: W
Encoding: 87 87 75
Width: 767
Flags: W
LayerCount: 2
Fore
SplineSet
339 39 m 1,0,1
 304 15 304 15 283.25 8.75 c 0,2,3
 256 0 256 0 227 0 c 4,4,5
 97 0 97 0 38 86 c 4,6,7
 -0 144.875655267 -0 144.875655267 0 228 c 2,8,-1
 -0 635 l 2,9,10
 0 666 0 666 21 687 c 128,-1,11
 42 708 42 708 73 708 c 0,12,13
 104 709 104 709 124 687 c 0,14,15
 145 664 145 664 145 635 c 2,16,-1
 145 195 l 2,17,18
 145 169 145 169 163 151 c 256,19,20
 181 133 181 133 205.5 132.5 c 128,-1,21
 230 132 230 132 248.5 148 c 128,-1,22
 267 164 267 164 267 188 c 2,23,-1
 267 634 l 2,24,25
 267 664 267 664 289 686 c 128,-1,26
 311 708 311 708 341 708 c 256,27,28
 371 708 371 708 393 686 c 128,-1,29
 415 664 415 664 415 634 c 2,30,-1
 415 188 l 2,31,32
 415 165 415 165 434 148 c 0,33,34
 452 132 452 132 476.5 132.5 c 128,-1,35
 501 133 501 133 519 151 c 256,36,37
 537 169 537 169 537 194 c 2,38,-1
 537 635 l 2,39,40
 537 666 537 666 558 687 c 128,-1,41
 579 708 579 708 608.5 708 c 0,42,43
 640 708 640 708 661 687 c 128,-1,44
 682 666 682 666 682 635 c 2,45,-1
 682 228 l 2,46,47
 682 126 682 126 619.125000001 63.1249995072 c 0,48,49
 556 0 556 0 451 0 c 0,50,51
 405 0 405 0 339 39 c 1,0,1
EndSplineSet
Validated: 33
EndChar

StartChar: X
Encoding: 88 88 76
Width: 528
Flags: W
LayerCount: 2
Fore
SplineSet
458 523 m 2,0,1
 458 464.5 458 464.5 434.333333333 429 c 128,-1,2
 410.666666667 393.5 410.666666667 393.5 394 381 c 0,3,4
 392 379 392 379 392 377 c 256,5,6
 392 375 392 375 409.6375 358.4 c 0,7,8
 439.403846154 330.384615385 439.403846154 330.384615385 452 280 c 0,9,10
 458 256 458 256 458 230 c 2,11,-1
 458 74 l 2,12,13
 458 43 458 43 436.5 21.5 c 128,-1,14
 415 0 415 0 384.5 0 c 128,-1,15
 354 0 354 0 332 22 c 0,16,17
 311 45 311 45 311 75 c 2,18,-1
 311 231 l 2,19,20
 311 263.8 311 263.8 290 289 c 0,21,22
 268 311 268 311 230 311 c 256,23,24
 191 311 191 311 169 289 c 0,25,26
 148 264.181818182 148 264.181818182 148 231 c 2,27,-1
 148 74 l 6,28,29
 148 43 148 43 126.5 21.5 c 132,-1,30
 105 0 105 0 73.5 0 c 132,-1,31
 42 0 42 0 22 22 c 4,32,33
 0 42 0 42 0 74 c 6,34,-1
 0 230 l 2,35,36
 0 300.5 0 300.5 39 346 c 0,37,38
 46.5 358 46.5 358 56.25 366.5 c 128,-1,39
 66 375 66 375 66 377 c 256,40,41
 66 379 66 379 59.8 383.9 c 128,-1,42
 53.6 388.8 53.6 388.8 38 407 c 0,43,44
 29 421 29 421 19 438 c 0,45,46
 0 477.9 0 477.9 0 523 c 2,47,-1
 0 632 l 2,48,49
 0 664 0 664 22 684 c 0,50,51
 42 706 42 706 73 706 c 128,-1,52
 104 706 104 706 126 684 c 0,53,54
 147 661 147 661 147 631 c 2,55,-1
 147 522 l 2,56,57
 147 486 147 486 163.5 469.5 c 128,-1,58
 180 453 180 453 194.5 448 c 128,-1,59
 209 443 209 443 229 443 c 256,60,61
 284.4375 443 284.4375 443 305 490 c 0,62,63
 310 507 310 507 310 522 c 2,64,-1
 310 632 l 2,65,66
 310 664 310 664 332 684 c 0,67,68
 354 706 354 706 384 706 c 128,-1,69
 414 706 414 706 436 684 c 0,70,71
 458 664 458 664 458 632 c 2,72,-1
 458 523 l 2,0,1
EndSplineSet
Validated: 1
EndChar

StartChar: Y
Encoding: 89 89 77
Width: 522
Flags: W
LayerCount: 2
Fore
SplineSet
225 478 m 2,0,-1
 324 669 l 2,1,2
 332.723762376 685.830693069 332.723762376 685.830693069 348.5 695.5 c 0,3,4
 366 706 366 706 385 706 c 0,5,6
 421 706 421 706 442 673 c 0,7,8
 462.105210918 641.836923077 462.105210918 641.836923077 444 607 c 2,9,-1
 299 328 l 2,10,-1
 299 73 l 2,11,12
 299 43 299 43 277.5 21.5 c 128,-1,13
 256 0 256 0 226 0 c 256,14,15
 196 0 196 0 174.5 20.5 c 128,-1,16
 153 41 153 41 153 73 c 2,17,-1
 153 329 l 2,18,-1
 8 607 l 2,19,20
 -9 640 -9 640 9.89012671101 672.94246635 c 0,21,22
 29 706 29 706 68 706 c 0,23,24
 86 706 86 706 102.5 696 c 0,25,26
 119 687 119 687 128 669 c 2,27,-1
 225 478 l 2,0,-1
EndSplineSet
Validated: 33
EndChar

StartChar: Z
Encoding: 90 90 78
Width: 536
Flags: W
LayerCount: 2
Fore
SplineSet
159 144 m 1,0,-1
 446.57421875 512.719726562 l 2,1,2
 462.99919996 533.779384159 462.99919996 533.779384159 463.080078125 556.08203125 c 2,3,-1
 463 644 l 2,4,5
 463 682 463 682 430.3359375 700.458984375 c 0,6,7
 414.868151114 709.073430359 414.868151114 709.073430359 398.092773438 709.069335938 c 2,8,-1
 62 708.987304688 l 2,9,10
 35 709 35 709 15.990234375 689.990234375 c 128,-1,11
 -3 671 -3 671 -2.9873046875 644 c 128,-1,12
 -3 617 -3 617 15.998046875 598.001953125 c 128,-1,13
 34.9955243349 579.004475665 34.9955243349 579.004475665 62 579.012695312 c 2,14,-1
 331.501953125 579.094726562 l 1,15,-1
 17.3818359375 168.155273438 l 2,16,17
 0.8611484826 146.820689096 0.8611484826 146.820689096 0.876953125 124.79296875 c 2,18,-1
 0.919921875 64.9052734375 l 2,19,20
 1 36 1 36 21.0302734375 17.8759765625 c 0,21,22
 40.1450288952 -0.136666868806 40.1450288952 -0.136666868806 65.8642578125 -0.126953125 c 2,23,-1
 402 0 l 2,24,25
 429 0 429 0 447.961914062 19.025390625 c 0,26,27
 467 40 467 40 466.987304688 64.9873046875 c 0,28,29
 466 92 466 92 447.961914062 110.94921875 c 0,30,31
 429 128.553710938 429 128.553710938 402 128 c 2,32,-1
 159 128 l 1,33,-1
 159 144 l 1,0,-1
EndSplineSet
Validated: 41
EndChar

StartChar: bracketleft
Encoding: 91 91 79
Width: 278
Flags: W
LayerCount: 2
Fore
SplineSet
131 -51 m 5,0,-1
 215 -51 l 6,1,2
 236 -51 236 -51 252.5 -70.5 c 4,3,4
 268 -89 268 -89 268 -110 c 260,5,6
 268 -135 268 -135 251 -152 c 260,7,8
 235.72 -166.78 235.72 -166.78 215 -166 c 6,9,-1
 67 -166 l 6,10,11
 39.6301369863 -165.130136986 39.6301369863 -165.130136986 21 -146 c 260,12,13
 2 -127 2 -127 2 -100 c 6,14,-1
 2 693 l 6,15,16
 2 719 2 719 21 738 c 4,17,18
 41 757.5 41 757.5 67 757 c 6,19,-1
 214 757 l 6,20,21
 237 757 237 757 252.5 737 c 4,22,23
 268 718 268 718 268 697 c 260,24,25
 268 679.079861111 268 679.079861111 252.5 659 c 4,26,27
 240 643 240 643 214 643 c 6,28,-1
 131 643 l 5,29,-1
 131 -51 l 5,0,-1
EndSplineSet
Validated: 33
EndChar

StartChar: asciicircum
Encoding: 94 94 82
Width: 514
Flags: W
LayerCount: 2
Fore
SplineSet
232 706 m 2,0,1
 270.882352941 706 270.882352941 706 291 668 c 1,2,-1
 439 346 l 2,3,4
 451.12 321.76 451.12 321.76 436 298 c 256,5,6
 420.727272727 274 420.727272727 274 393 274 c 256,7,8
 379 274 379 274 365.5 283 c 128,-1,9
 352 292 352 292 347 304 c 2,10,-1
 232 555 l 2,11,12
 229 561 229 561 223 561 c 256,13,14
 217 561 217 561 214 555 c 2,15,-1
 98 304 l 1,16,17
 81.8461538462 274 81.8461538462 274 52.5594405594 274 c 0,18,19
 23.2727272727 274 23.2727272727 274 8.13636363636 297.5 c 128,-1,20
 -7 321 -7 321 5 347 c 2,21,-1
 154 668 l 2,22,23
 161 684 161 684 178 696 c 0,24,25
 195 706 195 706 213 706 c 2,26,-1
 232 706 l 2,0,1
EndSplineSet
Validated: 33
EndChar

StartChar: underscore
Encoding: 95 95 83
Width: 631
Flags: W
LayerCount: 2
Fore
SplineSet
3 -78 m 256,0,1
 3 -52 3 -52 21 -34 c 0,2,3
 40 -15 40 -15 65 -15 c 2,4,-1
 407 -15 l 1,5,-1
 539 -15 l 2,6,7
 565 -15 565 -15 584 -34 c 0,8,9
 602 -52 602 -52 602 -78 c 256,10,11
 602 -104 602 -104 584 -122 c 0,12,13
 564 -140 564 -140 539 -140 c 2,14,-1
 407 -140 l 1,15,-1
 65 -140 l 2,16,17
 41 -140 41 -140 21 -122 c 0,18,19
 3 -104 3 -104 3 -78 c 256,0,1
EndSplineSet
Validated: 1
EndChar

StartChar: braceleft
Encoding: 123 123 111
Width: 512
Flags: W
LayerCount: 2
Fore
SplineSet
30 348.4375 m 1,0,1
 30 338 30 338 30 325 c 256,2,3
 30 302 30 302 46 286 c 256,4,5
 62 270 62 270 85 270 c 2,6,-1
 96 270 l 2,7,8
 141 270 141 270 152.131835938 251.947265625 c 0,9,10
 155 247 155 247 159 217 c 1,11,-1
 160 183 l 1,12,-1
 159 27 l 2,13,14
 158 -60 158 -60 197 -101 c 1,15,16
 239.846000796 -136.871070434 239.846000796 -136.871070434 320 -138 c 2,17,-1
 391 -139 l 2,18,19
 412 -139 412 -139 427 -124 c 256,20,21
 442 -109 442 -109 442 -88 c 256,22,23
 442 -70 442 -70 427.5 -52 c 0,24,25
 416.3741054 -37.4879635654 416.3741054 -37.4879635654 391 -37 c 2,26,-1
 339 -36 l 2,27,28
 303 -35 303 -35 294 -20 c 0,29,30
 289 -11 289 -11 287 52 c 1,31,-1
 287 208 l 2,32,33
 287 308 287 308 214 330 c 1,34,-1
 248 347 l 0,35,36
 287 369 287 369 287 451 c 2,37,-1
 287 593 l 1,38,-1
 288 630 l 1,39,40
 290.190927978 659.5775277 290.190927978 659.5775277 296.810546875 669.153320312 c 0,41,42
 305 681 305 681 330.75 681 c 2,43,-1
 396.25 680 l 2,44,45
 412.764141782 679.747875698 412.764141782 679.747875698 427.5 695.5 c 0,46,47
 442 711 442 711 442 732 c 256,48,49
 442 753 442 753 427.5 768.5 c 0,50,51
 412.31884058 783.68115942 412.31884058 783.68115942 390 784 c 2,52,-1
 320 785 l 2,53,54
 235.205924855 786.211343931 235.205924855 786.211343931 197 747 c 256,55,56
 159 709 159 709 159 620 c 2,57,-1
 159 483 l 1,58,-1
 158 448 l 1,59,60
 156 420 156 420 150 412 c 0,61,62
 138 396 138 396 107 396 c 2,63,-1
 79 396 l 2,64,65
 61 396 61 396 45 380 c 256,66,67
 30 365 30 365 30 348.4375 c 1,0,1
EndSplineSet
Validated: 41
EndChar

StartChar: bar
Encoding: 124 124 112
Width: 188
Flags: W
LayerCount: 2
Fore
SplineSet
37 735 m 2,0,1
 37 774.772460938 37 774.772460938 73 789.5 c 0,2,3
 84 794 84 794 96 794 c 256,4,5
 135.772460938 794 135.772460938 794 150.5 758 c 0,6,7
 155 747 155 747 155 735 c 2,8,-1
 155 -78 l 2,9,10
 155 -103 155 -103 138 -120 c 128,-1,11
 121 -137 121 -137 96 -137 c 256,12,13
 71 -137 71 -137 54 -120 c 128,-1,14
 37 -103 37 -103 37 -78 c 2,15,-1
 37 735 l 2,0,1
EndSplineSet
Validated: 1
EndChar

StartChar: Aring
Encoding: 197 197 116
Width: 531
Flags: W
LayerCount: 2
Fore
SplineSet
103 688 m 1,0,1
 113.8 693.4 113.8 693.4 107.4 705.7 c 0,2,3
 94 731.453125 94 731.453125 94 762.7265625 c 0,4,5
 94 821 94 821 135.45 858.5 c 128,-1,6
 176.9 896 176.9 896 231 896 c 256,7,8
 288 896 288 896 327 857 c 0,9,10
 368 820.1 368 820.1 368 765 c 0,11,12
 368 732.714285714 368 732.714285714 352 703 c 0,13,14
 348.571428571 692.714285714 348.571428571 692.714285714 356 689 c 1,15,16
 390.434782609 666.043478261 390.434782609 666.043478261 401.217391304 654.52173913 c 0,17,18
 461 590.641129032 461 590.641129032 461 492 c 2,19,-1
 461 73 l 2,20,21
 461 42 461 42 440 21 c 0,22,23
 434.6 15.6 434.6 15.6 416.8 8.8 c 128,-1,24
 399 2 399 2 388 0 c 0,25,26
 358 0 358 0 337 21 c 256,27,28
 316 42 316 42 316 73 c 2,29,-1
 316 215 l 2,30,31
 316 219 316 219 313 222 c 256,32,33
 310 225 310 225 306 225 c 2,34,-1
 155 225 l 2,35,36
 145 225 145 225 145 215 c 2,37,-1
 145 73 l 2,38,39
 145 42 145 42 124 21 c 256,40,41
 103 0 103 0 72.5 0 c 128,-1,42
 42 0 42 0 21 21 c 256,43,44
 0 42 0 42 0 73 c 2,45,-1
 0 492 l 2,46,47
 0 624.25 0 624.25 102 688 c 1,48,-1
 103 688 l 1,0,1
229 720 m 1,49,-1
 232 720 l 1,50,51
 240.846153846 718.230769231 240.846153846 718.230769231 248 723 c 0,52,53
 275 733.125 275 733.125 275 765 c 0,54,55
 275 784.857142857 275 784.857142857 262 796 c 0,56,57
 251.166666667 809 251.166666667 809 231 809 c 256,58,59
 209.833333333 809 209.833333333 809 198.416666667 796.196261682 c 128,-1,60
 187 783.392523364 187 783.392523364 187 768.696261682 c 0,61,62
 187 729.571428571 187 729.571428571 220.5 720 c 0,63,64
 224 719 224 719 229 720 c 1,49,-1
316 363 m 2,65,-1
 316 486 l 2,66,67
 316 529.833333333 316 529.833333333 294 561 c 0,68,69
 272.785714286 588 272.785714286 588 230.5 588 c 128,-1,70
 188.214285714 588 188.214285714 588 171.607142857 566 c 0,71,72
 145 530.752688172 145 530.752688172 145 486 c 2,73,-1
 145 363 l 2,74,75
 145 359 145 359 148 356 c 256,76,77
 151 353 151 353 155 353 c 2,78,-1
 306 353 l 2,79,80
 310 353 310 353 313 356 c 0,81,82
 314 358 314 358 315 359.5 c 128,-1,83
 316 361 316 361 316 363 c 2,65,-1
EndSplineSet
Validated: 1
EndChar

StartChar: Ccedilla
Encoding: 199 199 117
Width: 531
Flags: W
LayerCount: 2
Fore
SplineSet
184 -10 m 5,0,1
 113 2 113 2 61 49 c 5,2,3
 27 86 27 86 15.5 122 c 4,4,5
 0 170 0 170 0 213 c 6,6,-1
 0 491 l 6,7,8
 0 562 0 562 28 608 c 5,9,10
 67 688 67 688 164 711 c 4,11,12
 193 718 193 718 230.5 718 c 4,13,14
 295 718 295 718 353 689 c 4,15,16
 381.444444444 674.777777778 381.444444444 674.777777778 396.769230769 657.263736264 c 6,17,-1
 418 633 l 5,18,19
 437 608 437 608 435 580 c 260,20,21
 433 552 433 552 410.5 534.5 c 132,-1,22
 388 517 388 517 364.5 519.5 c 4,23,24
 324 524 324 524 303 548 c 4,25,26
 285 569 285 569 268.324324324 578.486486486 c 4,27,28
 252 588 252 588 224 588 c 132,-1,29
 196 588 196 588 172 564 c 4,30,31
 145 537 145 537 145 507 c 6,32,-1
 145 219 l 6,33,34
 145 145 145 145 193 123 c 4,35,36
 206 117 206 117 230 117 c 260,37,38
 273 117 273 117 294 144 c 4,39,40
 316 172 316 172 316 218 c 6,41,-1
 316 219 l 6,42,43
 316 249 316 249 337 270 c 4,44,45
 356 289 356 289 388 291 c 4,46,47
 414 293 414 293 439 270 c 4,48,49
 461 250 461 250 461 219 c 6,50,-1
 461 213 l 6,51,52
 461 111 461 111 399 49 c 4,53,54
 355 5 355 5 270 -12 c 4,55,56
 260 -14 260 -14 254 -26 c 4,57,58
 247 -40 247 -40 260 -42 c 4,59,60
 318 -51 318 -51 338 -94 c 4,61,62
 345 -109 345 -109 345 -130 c 132,-1,63
 345 -151 345 -151 339 -165 c 4,64,65
 321 -207 321 -207 275 -222 c 4,66,67
 257 -228 257 -228 236.5 -228 c 4,68,69
 185 -228 185 -228 163 -217 c 4,70,71
 161 -216 161 -216 159 -215.5 c 132,-1,72
 157 -215 157 -215 155 -213.5 c 132,-1,73
 153 -212 153 -212 150.5 -211 c 4,74,75
 132 -203 132 -203 128.324324324 -186.22972973 c 4,76,77
 125 -167 125 -167 134 -155 c 4,78,79
 148 -137 148 -137 170 -140 c 4,80,81
 182 -142 182 -142 185.833333333 -145.333333333 c 4,82,83
 190 -149 190 -149 191 -149 c 132,-1,84
 192 -149 192 -149 194.5 -150.5 c 4,85,86
 195.5 -151.1 195.5 -151.1 210 -154 c 260,87,88
 220 -156 220 -156 227 -156 c 4,89,90
 247 -156 247 -156 253.7 -151 c 4,91,92
 267 -140 267 -140 267 -132.722222222 c 4,93,94
 267 -125 267 -125 264.5 -121.5 c 4,95,96
 256 -109 256 -109 246.761363636 -107.465909091 c 4,97,98
 232 -105 232 -105 226 -105 c 260,99,100
 221 -105 221 -105 218 -106 c 4,101,102
 201.846153846 -107.615384615 201.846153846 -107.615384615 191 -104 c 4,103,104
 188.461538462 -103.153846154 188.461538462 -103.153846154 186 -101 c 6,105,-1
 178 -94 l 5,106,-1
 170 -86 l 6,107,108
 164 -80 164 -80 162 -72 c 260,109,110
 160 -63 160 -63 164 -57 c 5,111,-1
 173 -37 l 5,112,-1
 184 -10 l 5,0,1
EndSplineSet
Validated: 33
EndChar

StartChar: dagger
Encoding: 263 8224 147
Width: 580
Flags: W
LayerCount: 2
Fore
SplineSet
326 462 m 1,0,-1
 447 462 l 2,1,2
 472 462 472 462 491 443 c 128,-1,3
 510 424 510 424 510 399 c 256,4,5
 510 374 510 374 491 355 c 128,-1,6
 472 336 472 336 447 336 c 2,7,-1
 326 336 l 1,8,-1
 326 -94 l 2,9,10
 326 -123 326 -123 305 -144 c 128,-1,11
 284 -165 284 -165 255 -165 c 256,12,13
 228 -165 228 -165 205 -144 c 0,14,15
 184 -125 184 -125 184 -94 c 2,16,-1
 184 336 l 5,17,-1
 63 336 l 2,18,19
 37 336 37 336 18 355 c 0,20,21
 0 373 0 373 0 399 c 256,22,23
 0 425 0 425 18 443 c 0,24,25
 37 462 37 462 63 462 c 2,26,-1
 184 462 l 1,27,-1
 184 635 l 2,28,29
 184 664 184 664 205 685 c 256,30,31
 226 706 226 706 255 706 c 256,32,33
 284 706 284 706 305 685 c 256,34,35
 326 664 326 664 326 635 c 2,36,-1
 326 462 l 1,0,-1
EndSplineSet
Validated: 1
EndChar

StartChar: degree
Encoding: 176 176 148
Width: 422
Flags: W
LayerCount: 2
Fore
SplineSet
262.490234375 655 m 0,0,1
 262.490234375 691.046875 262.490234375 691.046875 228.940429688 703.950195312 c 0,2,3
 221.790039062 706.700195312 221.790039062 706.700195312 207.599609375 706.700195312 c 0,4,5
 177.790039062 706.700195312 177.790039062 706.700195312 162.389648438 675.900390625 c 0,6,7
 159.08984375 666 159.08984375 666 159.08984375 654.450195312 c 0,8,9
 159.08984375 616.133789062 159.08984375 616.133789062 190.990234375 605.5 c 0,10,11
 198.690429688 601.100585938 198.690429688 601.100585938 210.790039062 601.100585938 c 256,12,13
 232.790039062 601.100585938 232.790039062 601.100585938 248.190429688 616.5 c 256,14,15
 262.490234375 630.80078125 262.490234375 630.80078125 262.490234375 655 c 0,0,1
344.627929688 785.471679688 m 0,16,17
 401.580078125 731.32421875 401.580078125 731.32421875 401.580078125 655.255859375 c 0,18,19
 401.580078125 576.467773438 401.580078125 576.467773438 344.612304688 522.314453125 c 0,20,21
 290.541015625 468.806640625 290.541015625 468.806640625 210.688476562 468.806640625 c 128,-1,22
 130.8359375 468.806640625 130.8359375 468.806640625 76.9228515625 522.358398438 c 0,23,24
 20 576.635742188 20 576.635742188 20 655 c 0,25,26
 20 731.159179688 20 731.159179688 76.923828125 785.444335938 c 0,27,28
 131.034179688 839.190429688 131.034179688 839.190429688 210.790039062 839.190429688 c 128,-1,29
 290.525390625 839.190429688 290.525390625 839.190429688 344.627929688 785.471679688 c 0,16,17
EndSplineSet
Validated: 1
EndChar

StartChar: cent
Encoding: 162 162 149
Width: 505
Flags: W
LayerCount: 2
Fore
SplineSet
189 620 m 5,0,1
 184 620 184 620 161 614 c 0,2,3
 66 590 66 590 28 512 c 1,4,5
 0 466 0 466 0 395 c 2,6,-1
 0 311 l 2,7,8
 0 268 0 268 15.5 220 c 0,9,10
 28 181 28 181 61 147 c 0,11,12
 79 128 79 128 111.876146789 109.600917431 c 0,13,14
 134 97 134 97 189 85 c 1,15,-1
 189 38 l 2,16,17
 189 29 189 29 192 23 c 0,18,19
 204 0 204 0 227 0 c 2,20,-1
 232 0 l 2,21,22
 248 0 248 0 259 11 c 256,23,24
 270 22 270 22 270 38 c 2,25,-1
 270 86 l 0,26,27
 351 101 351 101 389 137.5 c 0,28,29
 397 145 397 145 404 153 c 128,-1,30
 411 161 411 161 418 169 c 0,31,32
 437 191 437 191 434.894230769 222.375 c 0,33,34
 433 251 433 251 405 272 c 0,35,36
 388 285 388 285 354.537344398 281.17164592 c 0,37,38
 321 277 321 277 304.923076923 256.653846154 c 0,39,40
 297 246 297 246 287.5 238 c 0,41,42
 259 213 259 213 230 213 c 0,43,44
 183 213 183 213 159 254 c 0,45,46
 145 278 145 278 145 295 c 2,47,-1
 145 411 l 2,48,49
 145 454 145 454 189 481 c 0,50,51
 207 492 207 492 230 492 c 0,52,53
 260 492 260 492 279 475.5 c 0,54,55
 296 460 296 460 303 452 c 0,56,57
 324 428 324 428 364.5 423.5 c 0,58,59
 388 421 388 421 410.5 438.5 c 128,-1,60
 433 456 433 456 435 484 c 256,61,62
 437 512 437 512 418 537 c 0,63,64
 411 545 411 545 404 553 c 0,65,66
 359 605 359 605 270 620 c 1,67,-1
 270 668 l 2,68,69
 270 684 270 684 259 695 c 256,70,71
 248 706 248 706 232 706 c 2,72,-1
 227 706 l 2,73,74
 211 706 211 706 200 695 c 128,-1,75
 189 684 189 684 189 668 c 2,76,-1
 189 620 l 5,0,1
EndSplineSet
Validated: 41
EndChar

StartChar: sterling
Encoding: 163 163 150
Width: 557
Flags: W
LayerCount: 2
Fore
SplineSet
197 126 m 1,0,1
 205 143 205 143 209.5 174.5 c 0,2,3
 211 184 211 184 213 196 c 128,-1,4
 215 208 215 208 216 223.5 c 128,-1,5
 217 239 217 239 218 250 c 1,6,-1
 218 282 l 1,7,-1
 317 282 l 2,8,9
 338 282 338 282 353 297 c 256,10,11
 368 312 368 312 368 333 c 256,12,13
 368 354 368 354 353.5 369 c 128,-1,14
 339 384 339 384 317 384 c 2,15,-1
 219 384 l 2,16,-1
 219 515 l 2,17,18
 219 532 219 532 223 546 c 0,19,20
 234 584 234 584 267 590 c 1,21,22
 300 591 300 591 317.456521739 581.47826087 c 128,-1,23
 335 572 335 572 355 549 c 0,24,25
 376 525 376 525 415.5 520.5 c 0,26,27
 439 518 439 518 462 535 c 0,28,29
 484 551 484 551 486.5 581 c 128,-1,30
 489 611 489 611 470 634 c 0,31,32
 428 685 428 685 379 702.5 c 0,33,34
 372 705 372 705 347.625 712.5 c 0,35,36
 323 720 323 720 285 720 c 2,37,-1
 282 720 l 2,38,39
 236 720 236 720 198.5 705 c 0,40,41
 134 679 134 679 106 628.5 c 0,42,43
 97 612 97 612 87.5 589.2 c 0,44,45
 78 566 78 566 78 520 c 2,46,-1
 78 384 l 2,47,-1
 51 384 l 2,48,49
 28 384 28 384 15 369 c 0,50,51
 0 352 0 352 0 333 c 256,52,53
 0 312 0 312 15 297 c 256,54,55
 30 282 30 282 51 282 c 2,56,-1
 80 282 l 1,57,-1
 80 257 l 1,58,59
 80 228 80 228 77 214 c 256,60,61
 74 200 74 200 71.5 186 c 0,62,63
 62 133 62 133 46 124 c 0,64,65
 12 104 12 104 12 68 c 2,66,-1
 12 64 l 2,67,68
 12 38 12 38 31 19 c 128,-1,69
 50 0 50 0 76 0 c 2,70,-1
 424 0 l 2,71,72
 450 0 450 0 468.5 18.5 c 128,-1,73
 487 37 487 37 487 63.5 c 0,74,75
 487 88 487 88 468 107 c 128,-1,76
 449 126 449 126 424 126 c 2,77,-1
 304 126 l 4,78,-1
 197 126 l 1,0,1
EndSplineSet
Validated: 41
EndChar

StartChar: section
Encoding: 167 167 151
Width: 615
Flags: W
LayerCount: 2
Fore
SplineSet
413.928710938 246 m 256,0,1
 414 285 414 285 359.928710938 312 c 0,2,3
 352 316 352 316 342.928710938 319.5 c 0,4,5
 316.841513605 329.726021573 316.841513605 329.726021573 235.928710938 357 c 1,6,7
 183 378 183 378 146 351 c 1,8,9
 123 328 123 328 122.928710938 306 c 0,10,11
 123 260 123 260 161.428710938 242.5 c 0,12,13
 231 210 231 210 309.928710938 187.5 c 0,14,15
 354.963056827 175.023401882 354.963056827 175.023401882 378.678710938 188.5 c 0,16,17
 388.605024167 194.601167315 388.605024167 194.601167315 396.928710938 202 c 0,18,19
 414 217 414 217 413.928710938 246 c 256,0,1
89.9287109375 440 m 1,20,21
 56.9287109375 485 56.9287109375 485 56.9287109375 527.166992188 c 0,22,23
 56.9287109375 618 56.9287109375 618 125.928710938 668.5 c 0,24,25
 181.008710938 709 181.008710938 709 264.857421875 709 c 4,26,27
 313.928710938 709 313.928710938 709 359.428710938 693.5 c 128,-1,28
 404.928710938 678 404.928710938 678 430.928710938 650 c 0,29,30
 458.928710938 620 458.928710938 620 443.928710938 582 c 256,31,32
 428.928710938 545 428.928710938 545 386.928710938 543 c 1,33,-1
 385.928710938 543 l 2,34,35
 359.928710938 543 359.928710938 543 342.928710938 560.5 c 128,-1,36
 325.928710938 578 325.928710938 578 309.928710938 583.5 c 0,37,38
 281.928710938 593 281.928710938 593 253.110351562 593 c 0,39,40
 223.928710938 593 223.928710938 593 204.928710938 577.5 c 128,-1,41
 185.928710938 562 185.928710938 562 185.928710938 541.5 c 0,42,43
 185.928710938 502.244140625 185.928710938 502.244140625 267.928710938 474 c 2,44,-1
 357.928710938 443 l 2,45,46
 400.928710938 428 400.928710938 428 440.928710938 407 c 0,47,48
 510.928710938 370 510.928710938 370 532.928710938 309 c 0,49,50
 540.928710938 287 540.928710938 287 540.928710938 247 c 128,-1,51
 540.928710938 207 540.928710938 207 514.678710938 169 c 0,52,53
 487.928710938 130 487.928710938 130 443.428710938 106 c 1,54,55
 479.928710938 64 479.928710938 64 479.928710938 20.22265625 c 0,56,57
 479.928710938 -63 479.928710938 -63 424.928710938 -110 c 0,58,59
 397.928710938 -133 397.928710938 -133 383.962890625 -138.541992188 c 128,-1,60
 369.928710938 -144 369.928710938 -144 360.428710938 -147.5 c 0,61,62
 320.928710938 -162 320.928710938 -162 272 -162 c 128,-1,63
 222.928710938 -162 222.928710938 -162 177.428710938 -146.5 c 128,-1,64
 131.928710938 -131 131.928710938 -131 105.928710938 -103 c 0,65,66
 77.9287109375 -73 77.9287109375 -73 92.9287109375 -35 c 256,67,68
 99.9287109375 -18 99.9287109375 -18 114.928710938 -7 c 128,-1,69
 129.928710938 4 129.928710938 4 149.928710938 4 c 2,70,-1
 150.928710938 4 l 2,71,72
 177.928710938 4 177.928710938 4 199.928710938 -18 c 1,73,74
 221.928710938 -46 221.928710938 -46 280.928710938 -46 c 0,75,76
 313.928710938 -46 313.928710938 -46 332.366210938 -30 c 128,-1,77
 350.928710938 -14 350.928710938 -14 350.928710938 6 c 256,78,79
 350.928710938 44.755859375 350.928710938 44.755859375 268.928710938 73 c 2,80,-1
 178.928710938 104 l 2,81,82
 126.928710938 122 126.928710938 122 92.3359375 141.11328125 c 0,83,84
 -4.0712890625 195 -4.0712890625 195 -4.0712890625 292 c 0,85,86
 -4.0712890625 340 -4.0712890625 340 25.9287109375 381.5 c 128,-1,87
 55.9287109375 423 55.9287109375 423 89.9287109375 440 c 1,20,21
EndSplineSet
Validated: 33
EndChar

StartChar: bullet
Encoding: 264 8226 152
Width: 460
Flags: W
LayerCount: 2
Fore
SplineSet
1.919921875 343.040039062 m 128,-1,1
 1.919921875 422.719726562 1.919921875 422.719726562 57.599609375 479.360351562 c 128,-1,2
 113.280273438 536 113.280273438 536 192 536 c 128,-1,3
 270.719726562 536 270.719726562 536 326.400390625 479.360351562 c 128,-1,4
 382.080078125 422.719726562 382.080078125 422.719726562 382.080078125 343.040039062 c 128,-1,5
 382.080078125 263.360351562 382.080078125 263.360351562 326.400390625 206.719726562 c 128,-1,6
 270.719726562 150.080078125 270.719726562 150.080078125 192 150.080078125 c 128,-1,7
 113.280273438 150.080078125 113.280273438 150.080078125 57.599609375 206.719726562 c 128,-1,0
 1.919921875 263.360351562 1.919921875 263.360351562 1.919921875 343.040039062 c 128,-1,1
EndSplineSet
Validated: 1
EndChar

StartChar: germandbls
Encoding: 223 223 153
Width: 522
Flags: W
LayerCount: 2
Fore
SplineSet
371 370 m 1,0,1
 428 320 428 320 440.5 281.5 c 0,2,3
 452 244 452 244 452 216 c 0,4,5
 452 159 452 159 435 125 c 0,6,7
 432 119 432 119 426 106 c 128,-1,8
 420 93 420 93 405 78 c 256,9,10
 400 73 400 73 392 64 c 0,11,12
 380 51 380 51 364 40 c 1,13,-1
 315 16 l 257,14,-1
 280 6 l 258,15,16
 215 -13 215 -13 199 22 c 0,17,18
 162 103 162 103 229 128 c 1,19,20
 266 136 266 136 286.5 155 c 0,21,22
 308 175 308 175 308 207 c 2,23,-1
 308 226 l 2,24,25
 308 288 308 288 236.5 304.5 c 0,26,27
 230 306 230 306 220 306 c 2,28,-1
 145 306 l 1,29,-1
 148.5 -91 l 2,30,31
 149 -121 149 -121 127 -143.5 c 0,32,33
 106 -165 106 -165 75 -165 c 128,-1,34
 44 -165 44 -165 22 -143 c 0,35,36
 0.59807073955 -121.59807074 0.59807073955 -121.59807074 0.5 -91 c 2,37,-1
 0 65 l 1,38,-1
 0 641 l 2,39,40
 0 678 0 678 29 695 c 0,41,42
 47 706 47 706 65 706 c 2,43,-1
 226 706 l 2,44,45
 285 706 285 706 332 682.5 c 0,46,47
 381.366812227 657.816593886 381.366812227 657.816593886 402.357142857 624.964285714 c 0,48,49
 496.088757396 484.366863905 496.088757396 484.366863905 371 370 c 1,0,1
145 579 m 1,50,-1
 145 431 l 1,51,-1
 220 431 l 2,52,53
 261 431 261 431 284 462 c 0,54,55
 295 477 295 477 296 498 c 260,56,57
 297 520 297 520 285.5 544.5 c 4,58,59
 270 577 270 577 220 578 c 2,60,-1
 145 579 l 1,50,-1
EndSplineSet
Validated: 33
EndChar

StartChar: registered
Encoding: 174 174 154
Width: 865
Flags: W
LayerCount: 2
Fore
SplineSet
318.294921875 78.6767578125 m 0,0,1
 370.969726562 56.8974609375 370.969726562 56.8974609375 433.450195312 56.8974609375 c 128,-1,2
 495.930664062 56.8974609375 495.930664062 56.8974609375 548.604492188 78.6767578125 c 128,-1,3
 601.283203125 100.45703125 601.283203125 100.45703125 641.80078125 140.974609375 c 128,-1,4
 682.151367188 181.325195312 682.151367188 181.325195312 702.359375 236.8984375 c 0,5,6
 702.421875 237.0703125 702.421875 237.0703125 702.491210938 237.240234375 c 0,7,8
 723.77734375 289.94921875 723.77734375 289.94921875 723.77734375 352.474609375 c 0,9,10
 723.77734375 483.11328125 723.77734375 483.11328125 640.826171875 566.106445312 c 128,-1,11
 557.875 649.099609375 557.875 649.099609375 433.974609375 649.102539062 c 0,12,13
 375.09765625 649.102539062 375.09765625 649.102539062 321.463867188 627.748046875 c 0,14,15
 212.569335938 584.391601562 212.569335938 584.391601562 165.447265625 468.729492188 c 0,16,17
 144.172851562 415.038085938 144.172851562 415.038085938 144.172851562 352.474609375 c 128,-1,18
 144.172851562 289.94921875 144.172851562 289.94921875 165.458984375 237.240234375 c 0,19,20
 210.193359375 123.373046875 210.193359375 123.373046875 318.294921875 78.6767578125 c 0,0,1
714.637695312 634.768554688 m 0,21,22
 828.772460938 520.6328125 828.772460938 520.6328125 828.772460938 353.266601562 c 128,-1,23
 828.772460938 185.899414062 828.772460938 185.899414062 714.475585938 71.6025390625 c 0,24,25
 634.107421875 -10.40625 634.107421875 -10.40625 513.193359375 -34.2490234375 c 0,26,27
 474.907226562 -41.7978515625 474.907226562 -41.7978515625 433.974609375 -41.7978515625 c 0,28,29
 354.794921875 -41.7978515625 354.794921875 -41.7978515625 280.420898438 -11.837890625 c 0,30,31
 131.40234375 48.189453125 131.40234375 48.189453125 69.3583984375 198.866210938 c 0,32,33
 40.2275390625 270.076171875 40.2275390625 270.076171875 40.2275390625 353 c 0,34,35
 40.2275390625 521.151367188 40.2275390625 521.151367188 153.55078125 634.474609375 c 0,36,37
 235.884765625 716.80859375 235.884765625 716.80859375 354.756835938 740.249023438 c 0,38,39
 393.04296875 747.797851562 393.04296875 747.797851562 433.974609375 747.797851562 c 128,-1,40
 474.907226562 747.797851562 474.907226562 747.797851562 513.193359375 740.249023438 c 0,41,42
 632.727539062 716.678710938 632.727539062 716.678710938 714.637695312 634.768554688 c 0,21,22
395.681640625 490.375976562 m 2,43,44
 393.8515625 490.375976562 393.8515625 490.375976562 393.8515625 488.544921875 c 2,45,-1
 393.8515625 391.581054688 l 2,46,47
 394.075195312 389.75 394.075195312 389.75 395.681640625 389.75 c 2,48,-1
 463.375 389.75 l 2,49,50
 522.174804688 389.75 522.174804688 389.75 521.920898438 440.0625 c 0,51,52
 522.173828125 490.375976562 522.173828125 490.375976562 463.375 490.375976562 c 2,53,-1
 395.681640625 490.375976562 l 2,43,44
396.022460938 292.7890625 m 2,54,55
 393.8515625 292.7890625 393.8515625 292.7890625 393.8515625 290.57421875 c 2,56,-1
 393.8515625 184.844726562 l 2,57,58
 394.075195312 160.849609375 394.075195312 160.849609375 377.451171875 144.533203125 c 0,59,60
 360.474609375 128.299804688 360.474609375 128.299804688 337.115234375 128.1328125 c 0,61,62
 316.375 128.299804688 316.375 128.299804688 299.510742188 145.396484375 c 0,63,64
 282.252929688 162.415039062 282.252929688 162.415039062 282.252929688 184.844726562 c 2,65,-1
 282.252929688 528.795898438 l 2,66,67
 282.775390625 553.549804688 282.775390625 553.549804688 301.3984375 573.684570312 c 0,68,69
 321.01171875 592.826171875 321.01171875 592.826171875 348.115234375 592.826171875 c 2,70,-1
 479.83984375 592.826171875 l 2,71,72
 546.325195312 592.400390625 546.325195312 592.400390625 590.58984375 549.900390625 c 0,73,74
 633.474609375 508.400390625 633.474609375 508.400390625 633.51953125 455.021484375 c 0,75,76
 633.474609375 403.400390625 633.474609375 403.400390625 611.3984375 364.020507812 c 0,77,78
 588.325195312 324.650390625 588.325195312 324.650390625 551.190429688 307.19140625 c 1,79,-1
 551.190429688 304.448242188 l 1,80,-1
 579.190429688 257.19921875 l 1,81,82
 609.325195312 209.150390625 609.325195312 209.150390625 613.66796875 202.427734375 c 0,83,84
 616.674804688 198.650390625 616.674804688 198.650390625 616.892578125 181.9375 c 0,85,86
 617.724609375 158.75 617.724609375 158.75 601.845703125 143.1796875 c 0,87,88
 585.174804688 128.299804688 585.174804688 128.299804688 570.400390625 128.1328125 c 0,89,90
 533.724609375 129.349609375 533.724609375 129.349609375 519.374023438 154.846679688 c 0,91,92
 443.264648438 286.077148438 443.264648438 286.077148438 440.98828125 287.348632812 c 2,93,-1
 431.251953125 292.7890625 l 1,94,-1
 396.022460938 292.7890625 l 2,54,55
EndSplineSet
EndChar

StartChar: copyright
Encoding: 169 169 155
Width: 870
Flags: W
LayerCount: 2
Fore
SplineSet
229.08984375 247.243164062 m 0,0,1
 207.2734375 295.703125 207.2734375 295.703125 207.2734375 344.890625 c 0,2,3
 207.2734375 504.71875 207.2734375 504.71875 324.92578125 570.081054688 c 0,4,5
 325.221679688 570.245117188 325.221679688 570.245117188 325.525390625 570.389648438 c 0,6,7
 379.594726562 596.000976562 379.594726562 596.000976562 438.366210938 596.000976562 c 0,8,9
 534.258789062 596.000976562 534.258789062 596.000976562 583.995117188 541.740234375 c 0,10,11
 603.984375 519.93359375 603.984375 519.93359375 606.271484375 509.640625 c 128,-1,12
 608.55859375 499.346679688 608.55859375 499.346679688 608.55859375 492.221679688 c 0,13,14
 608.55859375 463.619140625 608.55859375 463.619140625 581.482421875 446.06640625 c 0,15,16
 570.63671875 438.862304688 570.63671875 438.862304688 550.618164062 438.862304688 c 128,-1,17
 530.599609375 438.862304688 530.599609375 438.862304688 515.495117188 456.483398438 c 0,18,19
 487.953125 488.616210938 487.953125 488.616210938 434.868164062 488.616210938 c 0,20,21
 405.821289062 488.616210938 405.821289062 488.616210938 380.383789062 474.080078125 c 0,22,23
 324.215820312 441.984375 324.215820312 441.984375 324.215820312 360.266601562 c 0,24,25
 324.215820312 325.0703125 324.215820312 325.0703125 340.838867188 281.114257812 c 128,-1,26
 357.461914062 237.158203125 357.461914062 237.158203125 399.244140625 224.442382812 c 0,27,28
 399.79296875 224.275390625 399.79296875 224.275390625 407.693359375 220.888671875 c 128,-1,29
 415.594726562 217.502929688 415.594726562 217.502929688 427.97265625 217.502929688 c 0,30,31
 497.25390625 217.502929688 497.25390625 217.502929688 527.11328125 255.998046875 c 0,32,33
 540.0078125 277.40234375 540.0078125 277.40234375 567.16015625 277.40234375 c 0,34,35
 593.72265625 277.40234375 593.72265625 277.40234375 605.8671875 265.256835938 c 0,36,37
 624.213867188 246.911132812 624.213867188 246.911132812 624.213867188 221.1484375 c 128,-1,38
 624.213867188 195.385742188 624.213867188 195.385742188 594.245117188 168.74609375 c 0,39,40
 534.975585938 109.477539062 534.975585938 109.477539062 440.1796875 109.477539062 c 0,41,42
 291.112304688 109.477539062 291.112304688 109.477539062 229.08984375 247.243164062 c 0,0,1
318.294921875 78.6767578125 m 0,43,44
 370.969726562 56.8974609375 370.969726562 56.8974609375 433.450195312 56.8974609375 c 128,-1,45
 495.930664062 56.8974609375 495.930664062 56.8974609375 548.604492188 78.6767578125 c 128,-1,46
 601.283203125 100.45703125 601.283203125 100.45703125 641.80078125 140.974609375 c 128,-1,47
 682.151367188 181.325195312 682.151367188 181.325195312 702.359375 236.8984375 c 0,48,49
 702.421875 237.0703125 702.421875 237.0703125 702.491210938 237.240234375 c 0,50,51
 723.77734375 289.94921875 723.77734375 289.94921875 723.77734375 352.474609375 c 0,52,53
 723.77734375 483.11328125 723.77734375 483.11328125 640.826171875 566.106445312 c 128,-1,54
 557.875 649.099609375 557.875 649.099609375 433.974609375 649.102539062 c 0,55,56
 375.09765625 649.102539062 375.09765625 649.102539062 321.463867188 627.748046875 c 0,57,58
 212.569335938 584.391601562 212.569335938 584.391601562 165.447265625 468.729492188 c 0,59,60
 144.172851562 415.038085938 144.172851562 415.038085938 144.172851562 352.474609375 c 128,-1,61
 144.172851562 289.94921875 144.172851562 289.94921875 165.458984375 237.240234375 c 0,62,63
 210.193359375 123.373046875 210.193359375 123.373046875 318.294921875 78.6767578125 c 0,43,44
714.637695312 634.768554688 m 0,64,65
 828.772460938 520.6328125 828.772460938 520.6328125 828.772460938 353.266601562 c 128,-1,66
 828.772460938 185.899414062 828.772460938 185.899414062 714.475585938 71.6025390625 c 0,67,68
 634.107421875 -10.40625 634.107421875 -10.40625 513.193359375 -34.2490234375 c 0,69,70
 474.907226562 -41.7978515625 474.907226562 -41.7978515625 433.974609375 -41.7978515625 c 0,71,72
 354.794921875 -41.7978515625 354.794921875 -41.7978515625 280.420898438 -11.837890625 c 0,73,74
 131.40234375 48.189453125 131.40234375 48.189453125 69.3583984375 198.866210938 c 0,75,76
 40.2275390625 270.076171875 40.2275390625 270.076171875 40.2275390625 353 c 0,77,78
 40.2275390625 521.151367188 40.2275390625 521.151367188 153.55078125 634.474609375 c 0,79,80
 235.884765625 716.80859375 235.884765625 716.80859375 354.756835938 740.249023438 c 0,81,82
 393.04296875 747.797851562 393.04296875 747.797851562 433.974609375 747.797851562 c 128,-1,83
 474.907226562 747.797851562 474.907226562 747.797851562 513.193359375 740.249023438 c 0,84,85
 632.727539062 716.678710938 632.727539062 716.678710938 714.637695312 634.768554688 c 0,64,65
EndSplineSet
EndChar

StartChar: trademark
Encoding: 265 8482 156
Width: 1003
Flags: W
LayerCount: 2
Fore
SplineSet
126.094726562 660.067382812 m 5,0,-1
 59.3125 660.067382812 l 6,1,2
 36.4501953125 660.067382812 36.4501953125 660.067382812 20.1494140625 676.368164062 c 132,-1,3
 3.875 692.822265625 3.875 692.822265625 3.875 716.178710938 c 132,-1,4
 3.875 739.625 3.875 739.625 20.162109375 755.912109375 c 132,-1,5
 36.4501953125 772.202148438 36.4501953125 772.202148438 59.3125 772.202148438 c 6,6,-1
 323.913085938 772.202148438 l 6,7,8
 349.58203125 772.202148438 349.58203125 772.202148438 364.465820312 754.325195312 c 132,-1,9
 379.349609375 736.44921875 379.349609375 736.44921875 379.349609375 714.545898438 c 132,-1,10
 379.349609375 692.641601562 379.349609375 692.641601562 363.061523438 676.354492188 c 132,-1,11
 346.772460938 660.067382812 346.772460938 660.067382812 323.913085938 660.067382812 c 6,12,-1
 259.649414062 660.067382812 l 5,13,-1
 259.649414062 379.083984375 l 6,14,15
 259.649414062 351.182617188 259.649414062 351.182617188 240.2109375 331.744140625 c 132,-1,16
 220.772460938 312.306640625 220.772460938 312.306640625 192.2421875 312.306640625 c 132,-1,17
 163.709960938 312.306640625 163.709960938 312.306640625 144.90234375 331.114257812 c 132,-1,18
 126.094726562 349.921875 126.094726562 349.921875 126.094726562 379.083984375 c 6,19,-1
 126.094726562 660.067382812 l 5,0,-1
611.825195312 378.499023438 m 6,20,21
 611.825195312 351.828125 611.825195312 351.828125 593.450195312 333.453125 c 132,-1,22
 575.075195312 315.078125 575.075195312 315.078125 546.724609375 315.078125 c 132,-1,23
 518.375 315.078125 518.375 315.078125 502.102539062 335.549804688 c 132,-1,24
 485.830078125 356.022460938 485.830078125 356.022460938 485.830078125 379.758789062 c 6,25,-1
 485.830078125 697.278320312 l 6,26,27
 485.825195312 729.828125 485.825195312 729.828125 509.450195312 753.453125 c 132,-1,28
 533.075195312 777.078125 533.075195312 777.078125 564.049804688 776.553710938 c 132,-1,29
 595.025390625 776.028320312 595.025390625 776.028320312 623.88671875 750.287109375 c 4,30,31
 630.4296875 744.77734375 630.4296875 744.77734375 635.659179688 734.4921875 c 6,32,-1
 709.958984375 591.962890625 l 5,33,-1
 783.294921875 734.4921875 l 6,34,35
 792.424804688 751.87890625 792.424804688 751.87890625 812.900390625 764.478515625 c 132,-1,36
 833.375 777.078125 833.375 777.078125 860.150390625 776.553710938 c 132,-1,37
 886.924804688 776.028320312 886.924804688 776.028320312 910.025390625 753.453125 c 132,-1,38
 933.125 730.87890625 933.125 730.87890625 933.125 697.278320312 c 6,39,-1
 933.125 378.499023438 l 6,40,41
 933.125 351.828125 933.125 351.828125 914.75 333.453125 c 132,-1,42
 896.375 315.078125 896.375 315.078125 870.125 315.078125 c 132,-1,43
 843.875 315.078125 843.875 315.078125 825.30859375 333.678710938 c 4,44,45
 806.96484375 353.047851562 806.96484375 353.047851562 807.129882812 379.8359375 c 6,46,-1
 808.079101562 533.587890625 l 5,47,-1
 750.169921875 426.676757812 l 6,48,49
 736.775390625 401.178710938 736.775390625 401.178710938 709.814453125 401.178710938 c 132,-1,50
 682.853515625 401.178710938 682.853515625 401.178710938 668.833007812 426.591796875 c 6,51,-1
 611.825195312 529.916992188 l 5,52,-1
 611.825195312 378.499023438 l 6,20,21
EndSplineSet
Validated: 33
EndChar

StartChar: acute
Encoding: 180 180 157
Width: 239
Flags: W
LayerCount: 2
Fore
SplineSet
46 868 m 2,0,1
 57 888 57 888 78 888 c 2,2,-1
 166 887 l 2,3,4
 186.127064803 886.771283355 186.127064803 886.771283355 196 869 c 0,5,6
 205 852 205 852 195 834 c 1,7,-1
 108 736 l 1,8,9
 89 709 89 709 59 709 c 0,10,11
 28 709 28 709 10 736 c 256,12,13
 -9 765 -9 765 6 792 c 1,14,-1
 46 868 l 2,0,1
EndSplineSet
Validated: 33
EndChar

StartChar: dieresis
Encoding: 168 168 158
Width: 419
Flags: W
LayerCount: 2
Fore
SplineSet
207.5 783 m 128,-1,1
 207.5 814 207.5 814 227.5 836 c 128,-1,2
 247.5 858 247.5 858 277 858 c 0,3,4
 307.5 858 307.5 858 327.5 836 c 128,-1,5
 347.5 814 347.5 814 347.5 783 c 128,-1,6
 347.5 752 347.5 752 327.5 730 c 128,-1,7
 307.5 708 307.5 708 278 708 c 0,8,9
 247.5 708 247.5 708 227.5 730 c 128,-1,0
 207.5 752 207.5 752 207.5 783 c 128,-1,1
0 783 m 128,-1,11
 0 814 0 814 20 836 c 128,-1,12
 40 858 40 858 69.5 858 c 0,13,14
 100 858 100 858 120 836 c 128,-1,15
 140 814 140 814 140 783 c 128,-1,16
 140 752 140 752 120 730 c 128,-1,17
 100 708 100 708 70.5 708 c 0,18,19
 40 708 40 708 20 730 c 128,-1,10
 0 752 0 752 0 783 c 128,-1,11
EndSplineSet
Validated: 1
EndChar

StartChar: notequal
Encoding: 266 8800 159
Width: 550
Flags: W
LayerCount: 2
Fore
SplineSet
259.354492188 569.852539062 m 2,0,1
 267.244140625 587.779296875 267.244140625 587.779296875 282.354492188 597.852539062 c 0,2,3
 299.354492188 607.852539062 299.354492188 607.852539062 316.354492188 607.852539062 c 256,4,5
 351.354492188 607.852539062 351.354492188 607.852539062 370 579 c 0,6,7
 388.354492188 551.852539062 388.354492188 551.852539062 374.354492188 519.852539062 c 2,8,-1
 171.354492188 56.3525390625 l 2,9,10
 161.01171875 32.73828125 161.01171875 32.73828125 137.354492188 24.8525390625 c 0,11,12
 131.354492188 22.8525390625 131.354492188 22.8525390625 125.854492188 21.3525390625 c 0,13,14
 120.354492188 18.8525390625 120.354492188 18.8525390625 108.354492188 18.8525390625 c 0,15,16
 96.3544921875 18.8525390625 96.3544921875 18.8525390625 82.3544921875 26.3525390625 c 0,17,18
 68.3544921875 34.8525390625 68.3544921875 34.8525390625 60.3544921875 46.8525390625 c 0,19,20
 42.3642578125 76.8369140625 42.3642578125 76.8369140625 55.3544921875 106.352539062 c 2,21,-1
 259.354492188 569.852539062 l 2,0,1
EndSplineSet
Refer: 49 61 N 1 0 0 1 0 0 2
Validated: 37
EndChar

StartChar: AE
Encoding: 198 198 160
Width: 757
Flags: W
LayerCount: 2
Fore
SplineSet
452 432 m 2,0,-1
 452 577 l 1,1,-1
 620 578 l 2,2,3
 647 578 647 578 666.081054688 597.081054688 c 128,-1,4
 685 616 685 616 685 643 c 256,5,6
 685 668 685 668 666 689 c 0,7,8
 649 708 649 708 620 708 c 2,9,-1
 260 708 l 2,10,11
 249 708 249 708 239.5 704.5 c 0,12,13
 210 694 210 694 198 664 c 1,14,-1
 4 91 l 2,15,16
 -7.11588434976 58.1680323072 -7.11588434976 58.1680323072 13 29 c 0,17,18
 32 0 32 0 69 0 c 0,19,20
 91 0 91 0 109.5 13.5 c 0,21,22
 127.128474043 27.0991085475 127.128474043 27.0991085475 134 48 c 2,23,-1
 158 121 l 2,24,-1
 306 121 l 2,25,-1
 306 65 l 2,26,27
 306 38 306 38 325 19 c 256,28,29
 344 0 344 0 371 0 c 2,30,-1
 622 0 l 2,31,32
 649 0 649 0 668 19 c 256,33,34
 687 38 687 38 687 65 c 256,35,36
 687 94 687 94 668 111 c 0,37,38
 647 130 647 130 622 130 c 2,39,-1
 452 130 l 1,40,-1
 451 302 l 2,41,-1
 578 302 l 2,42,43
 605 302 605 302 624 322 c 256,44,45
 643 341 643 341 643 368.5 c 0,46,47
 643 394 643 394 623.893700787 413.106299213 c 0,48,49
 605 432 605 432 578 432 c 2,50,-1
 452 432 l 2,0,-1
181 234 m 2,51,-1
 307 582 l 1,52,-1
 306 236 l 2,53,-1
 181 234 l 2,51,-1
EndSplineSet
Validated: 41
EndChar

StartChar: Oslash
Encoding: 216 216 161
Width: 531
Flags: W
LayerCount: 2
Fore
SplineSet
349 679 m 1,0,-1
 354 689 l 1,1,2
 361 705 361 705 379 711.5 c 0,3,4
 395 717 395 717 414 709 c 0,5,6
 430 702 430 702 436.5 684 c 128,-1,7
 443 666 443 666 434 648 c 2,8,-1
 418 616 l 2,9,10
 444 596 444 596 455 512.5 c 0,11,12
 457 497 457 497 457 480 c 2,13,-1
 457 228 l 2,14,15
 457 126 457 126 395 64 c 0,16,17
 331 0 331 0 226 0 c 0,18,19
 159 0 159 0 107 28 c 1,20,-1
 101 18 l 1,21,22
 88 -7 88 -7 57.5 -7 c 0,23,24
 48 -7 48 -7 40 -2 c 0,25,26
 22 8 22 8 17 24.5 c 128,-1,27
 12 41 12 41 20 59 c 1,28,-1
 27 71 l 1,29,-1
 37 87 l 0,30,31
 32 96 32 96 30 99.5 c 0,32,33
 26 106 26 106 25.3330078125 107 c 0,34,35
 25 108 25 108 20.5 115.5 c 0,36,37
 14 126 14 126 5 159.5 c 128,-1,38
 -4 193 -4 193 -4 228 c 2,39,-1
 -4 480 l 2,40,41
 -4 598 -4 598 79 662.5 c 0,42,43
 112 688 112 688 153 698 c 128,-1,44
 194 708 194 708 226 708 c 0,45,46
 293 708 293 708 349 679 c 1,0,-1
296 549 m 1,47,48
 286 562 286 562 256 572 c 256,49,50
 244 576 244 576 224 576 c 0,51,52
 178 576 178 576 136.607421875 520 c 0,53,54
 110 484 110 484 110 440 c 2,55,-1
 110 253 l 2,56,-1
 296 549 l 1,47,48
168 149 m 1,57,58
 177 144 177 144 186.5 139.5 c 0,59,60
 203 132 203 132 226 132 c 0,61,62
 294 133 294 133 334 202 c 0,63,64
 348.167245437 224.410006419 348.167245437 224.410006419 351.912109375 238.55859375 c 0,65,66
 356 253 356 253 356 277 c 2,67,-1
 356 449 l 2,68,-1
 168 149 l 1,57,58
EndSplineSet
Validated: 33
EndChar

StartChar: infinity
Encoding: 267 8734 162
Width: 922
Flags: W
LayerCount: 2
Fore
SplineSet
149.497070312 363.583984375 m 2,0,-1
 149.465820312 368.502929688 l 2,1,2
 149.465820312 392.274414062 149.465820312 392.274414062 156.294921875 409.609375 c 0,3,4
 182.561523438 474.998046875 182.561523438 474.998046875 247.5 474.998046875 c 0,5,6
 268.264648438 474.998046875 268.264648438 474.998046875 286.482421875 467.213867188 c 0,7,8
 344.944335938 442.234375 344.944335938 442.234375 345.497070312 364.88671875 c 0,9,10
 344.953125 311.53125 344.953125 311.53125 318.278320312 283.721679688 c 0,11,12
 288.62109375 254.064453125 288.62109375 254.064453125 247.5 253.501953125 c 0,13,14
 229.311523438 253.501953125 229.311523438 253.501953125 209.634765625 260.864257812 c 128,-1,15
 189.778320312 268.29296875 189.778320312 268.29296875 177.234375 280.837890625 c 0,16,17
 149.497070312 308.575195312 149.497070312 308.575195312 149.497070312 363.583984375 c 2,0,-1
51.4892578125 246.067382812 m 0,18,19
 115.338867188 135.998046875 115.338867188 135.998046875 247.237304688 135.998046875 c 0,20,21
 344.944335938 135.998046875 344.944335938 135.998046875 408.983398438 200.27734375 c 0,22,23
 433.1640625 224.547851562 433.1640625 224.547851562 448.282226562 253.981445312 c 1,24,25
 449.122070312 252.48828125 449.122070312 252.48828125 449.987304688 251.014648438 c 0,26,27
 513.836914062 140.9453125 513.836914062 140.9453125 645.735351562 140.9453125 c 0,28,29
 743.44140625 140.9453125 743.44140625 140.9453125 807.481445312 205.224609375 c 128,-1,30
 871.521484375 269.50390625 871.521484375 269.50390625 872 370 c 0,31,32
 871.522460938 459.802734375 871.522460938 459.802734375 807.192382812 533.733398438 c 0,33,34
 797.325195312 545.395507812 797.325195312 545.395507812 746.74609375 574.946289062 c 0,35,36
 710.171875 597.458984375 710.171875 597.458984375 648.64453125 597.458984375 c 0,37,38
 558.533203125 597.458984375 558.533203125 597.458984375 484.263671875 533.122070312 c 1,39,40
 463.42578125 497.939453125 463.42578125 497.939453125 449.272460938 468.4765625 c 1,41,42
 433.875976562 499.84765625 433.875976562 499.84765625 408.6953125 528.786132812 c 0,43,44
 398.827148438 540.448242188 398.827148438 540.448242188 348.249023438 569.999023438 c 0,45,46
 311.673828125 592.51171875 311.673828125 592.51171875 250.146484375 592.51171875 c 0,47,48
 160.036132812 592.51171875 160.036132812 592.51171875 85.7666015625 528.174804688 c 1,49,50
 27.48046875 429.766601562 27.48046875 429.766601562 21.494140625 376.103515625 c 1,51,-1
 21.494140625 372.485351562 l 2,52,53
 21.494140625 297.16015625 21.494140625 297.16015625 51.4892578125 246.067382812 c 0,18,19
547.995117188 368.53125 m 2,54,-1
 547.962890625 373.450195312 l 2,55,56
 547.962890625 397.221679688 547.962890625 397.221679688 554.791992188 414.556640625 c 0,57,58
 581.059570312 479.9453125 581.059570312 479.9453125 645.998046875 479.9453125 c 0,59,60
 666.76171875 479.9453125 666.76171875 479.9453125 684.98046875 472.161132812 c 0,61,62
 743.442382812 447.181640625 743.442382812 447.181640625 743.995117188 369.833984375 c 0,63,64
 743.450195312 316.478515625 743.450195312 316.478515625 716.776367188 288.668945312 c 0,65,66
 687.119140625 259.01171875 687.119140625 259.01171875 645.998046875 258.44921875 c 0,67,68
 627.80859375 258.44921875 627.80859375 258.44921875 608.131835938 265.811523438 c 128,-1,69
 588.276367188 273.240234375 588.276367188 273.240234375 575.731445312 285.78515625 c 0,70,71
 547.995117188 313.522460938 547.995117188 313.522460938 547.995117188 368.53125 c 2,54,-1
EndSplineSet
Validated: 9
EndChar

StartChar: plusminus
Encoding: 177 177 163
Width: 550
Flags: W
LayerCount: 2
Fore
SplineSet
60 0 m 2,0,1
 34 0 34 0 18 18 c 0,2,3
 0 34 0 34 0 59 c 128,-1,4
 0 84 0 84 18 102 c 0,5,6
 34 120 34 120 60 120 c 2,7,-1
 421 120 l 2,8,9
 445 120 445 120 462.5 102.5 c 128,-1,10
 480 85 480 85 480 59 c 128,-1,11
 480 33 480 33 463 18 c 0,12,13
 445 0 445 0 421 0 c 2,14,-1
 60 0 l 2,0,1
179 484 m 1,15,-1
 60 484 l 2,16,17
 33 484 33 484 18 467 c 0,18,19
 0 447 0 447 0 424.5 c 0,20,21
 0 400 0 400 18 382 c 0,22,23
 35 365 35 365 60 365 c 2,24,-1
 179 365 l 2,25,-1
 179 244 l 2,26,27
 179 220 179 220 197 202 c 256,28,29
 215 184 215 184 239 184 c 2,30,-1
 241 184 l 2,31,32
 266 184 266 184 283.396694215 201.396694215 c 0,33,34
 301 219 301 219 301 244 c 2,35,-1
 301 366 l 2,36,-1
 421 365 l 2,37,38
 445.79338843 364.79338843 445.79338843 364.79338843 463 382 c 256,39,40
 480 399 480 399 480 424.5 c 128,-1,41
 480 450 480 450 463 467 c 256,42,43
 446 484 446 484 421 484 c 2,44,-1
 300 484 l 2,45,-1
 301 605 l 2,46,47
 301.204918033 629.795081967 301.204918033 629.795081967 279 652 c 0,48,49
 266 665 266 665 241 665 c 2,50,-1
 239 665 l 2,51,52
 215 665 215 665 197 647 c 256,53,54
 179 629 179 629 179 605 c 2,55,-1
 179 484 l 1,15,-1
EndSplineSet
Validated: 41
EndChar

StartChar: yen
Encoding: 165 165 166
Width: 522
Flags: W
LayerCount: 2
Fore
SplineSet
299 325 m 5,0,-1
 299 276 l 1,1,-1
 405 276 l 2,2,3
 422 276 422 276 434 264 c 128,-1,4
 446 252 446 252 446 234 c 0,5,6
 446 218 446 218 433.5 205.5 c 128,-1,7
 421 193 421 193 405 193 c 2,8,-1
 299 193 l 2,9,-1
 299 73 l 2,10,11
 299 43 299 43 277.5 21.5 c 128,-1,12
 256 0 256 0 226 0 c 256,13,14
 196 0 196 0 174.5 20.5 c 128,-1,15
 153 41 153 41 153 73 c 2,16,-1
 153 193 l 1,17,-1
 49 193 l 2,18,19
 33 193 33 193 20.5 205.5 c 128,-1,20
 8 218 8 218 8 234 c 0,21,22
 8 252 8 252 20 264 c 128,-1,23
 32 276 32 276 49 276 c 2,24,-1
 153 276 l 1,25,-1
 153 325 l 1,26,-1
 49 325 l 2,27,28
 32 325 32 325 20 337 c 128,-1,29
 8 349 8 349 8 366.5 c 128,-1,30
 8 384 8 384 20 396 c 128,-1,31
 32 408 32 408 49 408 c 2,32,-1
 111 408 l 1,33,-1
 8 607 l 2,34,35
 -9 640 -9 640 9.89732391749 672.946292511 c 0,36,37
 29 706 29 706 68 706 c 0,38,39
 86 706 86 706 102.5 696 c 0,40,41
 119.402717016 685.755929081 119.402717016 685.755929081 128 669 c 2,42,-1
 226 478 l 2,43,-1
 324 669 l 2,44,45
 333 686 333 686 348.5 695.5 c 0,46,47
 366 706 366 706 385 706 c 0,48,49
 421 706 421 706 442 673 c 0,50,51
 462.161021655 641.750416435 462.161021655 641.750416435 444 607 c 2,52,-1
 340 408 l 2,53,-1
 405 408 l 2,54,55
 422 408 422 408 433.997558874 395.855973578 c 0,56,57
 446 384 446 384 446 366.5 c 128,-1,58
 446 349 446 349 434 337 c 128,-1,59
 422 325 422 325 405 325 c 2,60,-1
 299 325 l 5,0,-1
EndSplineSet
Validated: 33
EndChar

StartChar: mu
Encoding: 181 181 167
Width: 546
Flags: W
LayerCount: 2
Fore
SplineSet
333 687 m 0,0,1
 356 708 356 708 384 708 c 0,2,3
 416 708 416 708 437 687 c 0,4,5
 456.705039917 666.309708087 456.705039917 666.309708087 457 644 c 2,6,-1
 462.5 228 l 2,7,8
 463.824454293 127.823093474 463.824454293 127.823093474 399.5 63 c 0,9,10
 336 0 336 0 240 0 c 0,11,12
 186 0 186 0 144 13.166015625 c 1,13,-1
 144 -87 l 2,14,15
 144 -120 144 -120 122 -144 c 0,16,17
 103 -165 103 -165 71 -165 c 0,18,19
 46 -165 46 -165 19 -144 c 0,20,21
 0 -130 0 -130 0 -91 c 0,22,23
 0 -91 0 -91 0 644 c 0,24,25
 1 671 1 671 17 687 c 0,26,27
 40 708 40 708 69 708 c 0,28,29
 102 708 102 708 121 687 c 0,30,31
 140.727503561 664.313370905 140.727503561 664.313370905 141 644 c 2,32,-1
 146.5 234 l 2,33,34
 147 194 147 194 155.5 181 c 0,35,36
 164 167 164 167 171.5 156 c 0,37,38
 188 132 188 132 231.5 132 c 0,39,40
 278 132 278 132 295.5 159 c 0,41,42
 306 175 306 175 313.5 196 c 0,43,44
 317.866570454 206.673838887 317.866570454 206.673838887 317.5 234 c 2,45,-1
 312 644 l 2,46,47
 312 667 312 667 333 687 c 0,0,1
EndSplineSet
Validated: 33
EndChar

StartChar: product
Encoding: 270 8719 168
Width: 758
Flags: W
LayerCount: 2
Fore
SplineSet
264.577148438 21.0771484375 m 0,0,1
 244 0 244 0 214 0 c 0,2,3
 182 0 182 0 161.577148438 20.9228515625 c 0,4,5
 140.701710935 41.2910409988 140.701710935 41.2910409988 140.5 73 c 2,6,-1
 138 466 l 2,7,8
 137.661736048 519.175093216 137.661736048 519.175093216 155.22265625 562 c 1,9,-1
 88 562 l 2,10,11
 58 562 58 562 36 584 c 0,12,13
 15 605 15 605 15.5 635.5 c 128,-1,14
 16 666 16 666 36 686 c 0,15,16
 58 708 58 708 88 708 c 2,17,-1
 648 708 l 2,18,19
 678 708 678 708 700 686 c 0,20,21
 721 665 721 665 721.5 634.5 c 0,22,23
 722 606 722 606 700 584 c 128,-1,24
 678 562 678 562 648 562 c 2,25,-1
 582.002929688 562 l 1,26,27
 583 561 583 561 583 559 c 0,28,29
 599 510 599 510 599 466 c 2,30,-1
 601.5 73 l 2,31,32
 601.692839246 42.6856705746 601.692839246 42.6856705746 580.576171875 21.076171875 c 0,33,34
 560 0 560 0 529 0 c 128,-1,35
 498 0 498 0 477.5 21 c 0,36,37
 456.691660849 43.3309005521 456.691660849 43.3309005521 456.5 73 c 2,38,-1
 454 460 l 2,39,40
 453.74539273 499.413205377 453.74539273 499.413205377 445.374036264 512.999186281 c 0,41,42
 437 527 437 527 429 538 c 0,43,44
 412 562 412 562 369 562 c 0,45,46
 324 562 324 562 305 535 c 0,47,48
 292 517 292 517 287 498.5 c 0,49,50
 283 480 283 480 283 460 c 2,51,-1
 285.5 73 l 2,52,53
 285.695809369 42.6887096924 285.695809369 42.6887096924 264.577148438 21.0771484375 c 0,0,1
EndSplineSet
Validated: 33
EndChar

StartChar: integral
Encoding: 272 8747 170
Width: 640
Flags: W
LayerCount: 2
Fore
SplineSet
18.80859375 -48.3037109375 m 0,0,1
 36 -34 36 -34 55.74609375 -32.0908203125 c 0,2,3
 57 -32 57 -32 124.518554688 -41.58203125 c 1,4,5
 157 -41 157 -41 165.021484375 -26.150390625 c 0,6,7
 178 -3 178 -3 184.732421875 37.41015625 c 2,8,-1
 278.09765625 628.810546875 l 2,9,10
 285.468348879 675.498487299 285.468348879 675.498487299 296.977539062 712.322265625 c 0,11,12
 321 793 321 793 387.721679688 819.297851562 c 0,13,14
 424 834 424 834 482 834 c 128,-1,15
 540 834 540 834 576.541992188 817.432617188 c 0,16,17
 618 799 618 799 617.840820312 758.502929688 c 0,18,19
 618 731 618 731 603.678710938 716.693359375 c 0,20,21
 589 702 589 702 557.735351562 702.241210938 c 0,22,23
 542 702 542 702 517.431640625 706.267578125 c 0,24,25
 490 711 490 711 488.836914062 710.76953125 c 0,26,27
 465 708 465 708 456.412109375 699.358398438 c 0,28,29
 447 690 447 690 444.791015625 679.95703125 c 0,30,31
 349 89 349 89 339.2421875 34.9521484375 c 0,32,33
 330 -15 330 -15 319.9765625 -46.8720703125 c 0,34,35
 307 -89 307 -89 279.57421875 -115.791015625 c 0,36,37
 230.642822157 -164.354492188 230.642822157 -164.354492188 140.059570312 -164.354492188 c 2,38,-1
 136.543945312 -164.354492188 l 2,39,40
 47 -164 47 -164 13.916015625 -129.576171875 c 0,41,42
 0 -115 0 -115 0 -90 c 128,-1,43
 0 -65 0 -65 18.80859375 -48.3037109375 c 0,0,1
EndSplineSet
Validated: 33
EndChar

StartChar: ordmasculine
Encoding: 186 186 171
Width: 451
VWidth: 838
Flags: W
LayerCount: 2
Fore
SplineSet
430.99609375 590.74609375 m 1,0,1
 433 515 433 515 381.833984375 464.280273438 c 0,2,3
 357 440 357 440 325.4375 427.541015625 c 0,4,5
 290 414 290 414 249 414 c 0,6,7
 195 414 195 414 153.3828125 436.565429688 c 0,8,9
 108 461 108 461 88.4677734375 499.671875 c 0,10,11
 68 541 68 541 66.25390625 590.74609375 c 1,12,-1
 64.25390625 659.25390625 l 1,13,14
 66 709 66 709 86.4677734375 750.328125 c 0,15,16
 106 789 106 789 151.3828125 813.434570312 c 0,17,18
 193 836 193 836 247 836 c 0,19,20
 288 836 288 836 323.4375 822.458984375 c 0,21,22
 355 810 355 810 379.833984375 785.719726562 c 0,23,24
 431 735 431 735 428.99609375 659.25390625 c 1,25,-1
 430.99609375 590.74609375 l 1,0,1
284.25390625 656.75390625 m 2,26,27
 283.518289156 702.000104538 283.518289156 702.000104538 248 702.0078125 c 0,28,29
 232 702 232 702 222.0234375 692.030273438 c 0,30,31
 221 691 221 691 220.751953125 690.499023438 c 0,32,33
 211 681 211 681 210.99609375 656.75390625 c 2,34,-1
 211.99609375 595.24609375 l 2,35,36
 212.169575244 584.575626523 212.169575244 584.575626523 221.12890625 562.154296875 c 0,37,38
 222 560 222 560 223.013671875 559.981445312 c 0,39,40
 231 550 231 550 247.90625 549.9921875 c 0,41,42
 272 550 272 550 273.52734375 558.212890625 c 0,43,44
 276 568 276 568 282.172851562 574.208984375 c 0,45,46
 285.541676045 577.546003166 285.541676045 577.546003166 285.25390625 595.24609375 c 2,47,-1
 284.25390625 656.75390625 l 2,26,27
EndSplineSet
Validated: 33
EndChar

StartChar: florin
Encoding: 273 402 176
Width: 708
Flags: W
LayerCount: 2
Fore
SplineSet
246.297851562 410.928710938 m 0,0,1
 246.94921875 410.928710938 246.94921875 410.928710938 247.603515625 410.92578125 c 2,2,-1
 250.012695312 410.92578125 l 1,3,-1
 273.770507812 542.635742188 l 2,4,5
 283.02734375 594.000976562 283.02734375 594.000976562 293.432617188 629.046875 c 128,-1,6
 303.836914062 664.092773438 303.836914062 664.092773438 325.822265625 693.715820312 c 0,7,8
 372.12109375 758.09375 372.12109375 758.09375 488.814453125 758.09375 c 0,9,10
 550.736328125 758.09375 550.736328125 758.09375 589.419921875 740.6953125 c 0,11,12
 606.1796875 732.99609375 606.1796875 732.99609375 617.374023438 721.802734375 c 0,13,14
 638.30859375 700.868164062 638.30859375 700.868164062 638.306640625 669.098632812 c 128,-1,15
 638.303710938 637.330078125 638.303710938 637.330078125 620.345703125 619.372070312 c 0,16,17
 602.178710938 601.205078125 602.178710938 601.205078125 565.278320312 601.205078125 c 0,18,19
 563.731445312 601.205078125 563.731445312 601.205078125 493.623046875 609.8515625 c 0,20,21
 480.6875 609.583984375 480.6875 609.583984375 475.498046875 604.393554688 c 0,22,23
 465.541015625 594.436523438 465.541015625 594.436523438 460.412109375 571.728515625 c 128,-1,24
 455.284179688 549.021484375 455.284179688 549.021484375 430.786132812 410.927734375 c 1,25,26
 487.930664062 410.78125 487.930664062 410.78125 510.899414062 387.8125 c 0,27,28
 529.349609375 369.362304688 529.349609375 369.362304688 529.349609375 337.154296875 c 128,-1,29
 529.34765625 304.864257812 529.34765625 304.864257812 510.131835938 285.6484375 c 0,30,31
 484.716796875 260.233398438 484.716796875 260.233398438 421.919921875 260.233398438 c 2,32,-1
 403.809570312 260.233398438 l 1,33,-1
 364.591796875 46.8642578125 l 2,34,35
 354.444335938 -8.3466796875 354.444335938 -8.3466796875 345.36328125 -34.3896484375 c 0,36,37
 330.920898438 -80.640625 330.920898438 -80.640625 300.21484375 -111.345703125 c 0,38,39
 278.331054688 -133.229492188 278.331054688 -133.229492188 243.67578125 -147.9375 c 128,-1,40
 209.020507812 -162.645507812 209.020507812 -162.645507812 153.306640625 -162.645507812 c 2,41,-1
 149.65234375 -162.645507812 l 2,42,43
 87.33203125 -162.645507812 87.33203125 -162.645507812 49.322265625 -145.052734375 c 0,44,45
 31.7939453125 -137.23046875 31.7939453125 -137.23046875 20.33203125 -125.768554688 c 0,46,47
 0 -105.436523438 0 -105.436523438 0 -77 c 0,48,49
 0 -45.6474609375 0 -45.6474609375 22.283203125 -25.0830078125 c 0,50,51
 22.931640625 -24.4833984375 22.931640625 -24.4833984375 23.609375 -23.93359375 c 0,52,53
 46.2314453125 -5.568359375 46.2314453125 -5.568359375 75.701171875 -5.568359375 c 0,54,55
 84.2421875 -5.568359375 84.2421875 -5.568359375 105.469726562 -10.2236328125 c 128,-1,56
 126.697265625 -14.87890625 126.697265625 -14.87890625 136.696289062 -14.87890625 c 2,57,-1
 136.974609375 -14.87890625 l 2,58,59
 161.784179688 -14.87890625 161.784179688 -14.87890625 165.920898438 -7.5673828125 c 0,60,61
 178.577148438 14.1962890625 178.577148438 14.1962890625 185.502929688 53.8779296875 c 2,62,-1
 223.053710938 260.71875 l 1,63,64
 201.395507812 261.981445312 201.395507812 261.981445312 183.0234375 267.26953125 c 128,-1,65
 164.650390625 272.557617188 164.650390625 272.557617188 152.421875 284.786132812 c 0,66,67
 134.348632812 302.859375 134.348632812 302.859375 134.171875 331.53125 c 0,68,69
 134.3359375 364.899414062 134.3359375 364.899414062 153.927734375 384.490234375 c 0,70,71
 180.366210938 410.928710938 180.366210938 410.928710938 246.297851562 410.928710938 c 0,0,1
EndSplineSet
Validated: 33
EndChar

StartChar: approxequal
Encoding: 274 8776 177
Width: 529
Flags: W
LayerCount: 2
Fore
SplineSet
15 353 m 1,0,-1
 14 353 l 1,1,-1
 14 354 l 1,2,3
 -2 371 -2 371 0 394 c 0,4,5
 1 405 1 405 5.5 414.5 c 128,-1,6
 10 424 10 424 19 432 c 0,7,8
 33 445 33 445 46 453.5 c 128,-1,9
 59 462 59 462 73 468 c 0,10,11
 99 479 99 479 132 481 c 0,12,13
 147 483 147 483 160 481 c 128,-1,14
 173 479 173 479 185 476 c 0,15,16
 197 472 197 472 207.5 468 c 128,-1,17
 218 464 218 464 228 459 c 256,18,19
 238 454 238 454 246.5 450.5 c 128,-1,20
 255 447 255 447 265 444 c 0,21,22
 285 439 285 439 305 439 c 0,23,24
 313 440 313 440 319.5 441 c 128,-1,25
 326 442 326 442 333 444 c 0,26,27
 339 446 339 446 345.5 449.5 c 128,-1,28
 352 453 352 453 359 458 c 0,29,30
 376 470 376 470 398 468 c 0,31,32
 419 465 419 465 433 449 c 0,33,34
 441 441 441 441 444 431 c 128,-1,35
 447 421 447 421 447 410 c 0,36,37
 445 387 445 387 429 372 c 0,38,39
 419 362 419 362 410 356 c 0,40,41
 401 348 401 348 392 344 c 0,42,43
 376 334 376 334 359 330 c 0,44,45
 343 325 343 325 319 323 c 0,46,47
 305 322 305 322 292.5 324 c 128,-1,48
 280 326 280 326 269 329 c 256,49,50
 258 332 258 332 248 336 c 128,-1,51
 238 340 238 340 228 345 c 0,52,53
 218 349 218 349 209 353 c 128,-1,54
 200 357 200 357 189 360 c 0,55,56
 168 366 168 366 144 365 c 0,57,58
 127 363 127 363 114 359 c 0,59,60
 107 357 107 357 101 353.5 c 128,-1,61
 95 350 95 350 88 345 c 0,62,63
 70 332 70 332 50 335 c 0,64,65
 28 337 28 337 15 353 c 1,0,-1
445 254 m 0,66,67
 461 235 461 235 459 214 c 0,68,69
 459 191 459 191 442 176 c 0,70,71
 437 171 437 171 432.5 167.5 c 128,-1,72
 428 164 428 164 423 160 c 0,73,74
 414 152 414 152 405 148 c 0,75,76
 397 143 397 143 389 139.5 c 128,-1,77
 381 136 381 136 372 134 c 0,78,79
 354 129 354 129 331 128 c 0,80,81
 305 127 305 127 283 133 c 0,82,83
 272 136 272 136 262.5 140 c 128,-1,84
 253 144 253 144 243 149 c 0,85,86
 223 158 223 158 203 164 c 0,87,88
 193 167 193 167 181.5 169 c 128,-1,89
 170 171 170 171 157 169 c 0,90,91
 140 169 140 169 127 163 c 0,92,93
 114 159 114 159 101 149 c 0,94,95
 84 137 84 137 62 139 c 0,96,97
 52 140 52 140 40 149 c 0,98,99
 34 153 34 153 27 158 c 0,100,101
 11 175 11 175 13 198 c 0,102,103
 15 223 15 223 32 237 c 0,104,105
 58 260 58 260 86 272 c 0,106,107
 100 278 100 278 114 281 c 128,-1,108
 128 284 128 284 144 286 c 0,109,110
 174 287 174 287 198 280 c 0,111,112
 210 277 210 277 220.5 272.5 c 128,-1,113
 231 268 231 268 242 263 c 0,114,115
 251 259 251 259 260 255 c 128,-1,116
 269 251 269 251 278 249 c 0,117,118
 297 243 297 243 318 244 c 0,119,120
 326 245 326 245 332.5 245.5 c 128,-1,121
 339 246 339 246 345 248 c 0,122,123
 358 252 358 252 372 262 c 0,124,125
 388 274 388 274 410 272 c 0,126,127
 432 269 432 269 445 254 c 0,66,67
EndSplineSet
Validated: 33
EndChar

StartChar: guillemotleft
Encoding: 171 171 178
Width: 523
Flags: W
LayerCount: 2
Fore
SplineSet
139 554 m 0,0,1
 152 562 152 562 168.5 562 c 0,2,3
 201.714285714 562 201.714285714 562 220 530 c 256,4,5
 228 516 228 516 228 500 c 128,-1,6
 228 484 228 484 218 469 c 2,7,-1
 135 342 l 2,8,9
 132 337 132 337 132 331.5 c 128,-1,10
 132 326 132 326 135 320 c 2,11,-1
 218 194 l 2,12,13
 228 179 228 179 228 162.5 c 0,14,15
 228 128.074074074 228 128.074074074 198.5 109.5 c 0,16,17
 185 101 185 101 167.5 101 c 0,18,19
 132.076923077 101 132.076923077 101 117 129 c 1,20,-1
 10 296 l 2,21,22
 0 312 0 312 0 326 c 0,23,24
 0 350 0 350 10 366 c 2,25,-1
 117 534 l 2,26,27
 125 548 125 548 139 554 c 0,0,1
342 534 m 2,28,29
 360.666666667 562 360.666666667 562 394.5 562 c 0,30,31
 427.714285714 562 427.714285714 562 446 530 c 0,32,33
 453 516 453 516 453 500 c 128,-1,34
 453 484 453 484 443 469 c 2,35,-1
 361 342 l 2,36,37
 358 337 358 337 358 331.5 c 128,-1,38
 358 326 358 326 361 320 c 2,39,-1
 443 194 l 2,40,41
 453 179 453 179 453 162.5 c 128,-1,42
 453 146 453 146 445.5 132 c 0,43,44
 428.892857143 101 428.892857143 101 393 101 c 0,45,46
 360 101 360 101 342 129 c 2,47,-1
 236 296 l 2,48,49
 225 313 225 313 225 331.5 c 128,-1,50
 225 350 225 350 236 366 c 2,51,-1
 342 534 l 2,28,29
EndSplineSet
Validated: 1
EndChar

StartChar: ellipsis
Encoding: 275 8230 180
Width: 705
Flags: W
LayerCount: 2
Fore
SplineSet
150 138 m 0,0,1
 161 127 161 127 168 110 c 0,2,3
 175 96 175 96 175 77 c 0,4,5
 175 57 175 57 168 43 c 0,6,7
 161 26 161 26 150 15 c 0,8,9
 137 4 137 4 122 -4 c 0,10,11
 105 -10 105 -10 87 -10 c 0,12,13
 68 -10 68 -10 53 -4 c 0,14,15
 45 0 45 0 38 4.5 c 128,-1,16
 31 9 31 9 25 15 c 0,17,18
 12 28 12 28 6 43 c 256,19,20
 0 58 0 58 0 77 c 0,21,22
 0 95 0 95 6 110 c 256,23,24
 12 125 12 125 25 138 c 0,25,26
 31 144 31 144 38 148.5 c 128,-1,27
 45 153 45 153 53 157 c 0,28,29
 68 163 68 163 87 163 c 0,30,31
 105 163 105 163 122 157 c 0,32,33
 137 149 137 149 150 138 c 0,0,1
150 138 m 0,34,35
 161 127 161 127 168 110 c 0,36,37
 175 96 175 96 175 77 c 0,38,39
 175 57 175 57 168 43 c 0,40,41
 161 26 161 26 150 15 c 0,42,43
 137 4 137 4 122 -4 c 0,44,45
 105 -10 105 -10 87 -10 c 0,46,47
 68 -10 68 -10 53 -4 c 0,48,49
 45 0 45 0 38 4.5 c 128,-1,50
 31 9 31 9 25 15 c 0,51,52
 12 28 12 28 6 43 c 256,53,54
 0 58 0 58 0 77 c 0,55,56
 0 95 0 95 6 110 c 256,57,58
 12 125 12 125 25 138 c 0,59,60
 31 144 31 144 38 148.5 c 128,-1,61
 45 153 45 153 53 157 c 0,62,63
 68 163 68 163 87 163 c 0,64,65
 105 163 105 163 122 157 c 0,66,67
 137 149 137 149 150 138 c 0,34,35
380 138 m 0,68,69
 391 127 391 127 398 110 c 0,70,71
 405 96 405 96 405 77 c 0,72,73
 405 57 405 57 398 43 c 0,74,75
 391 26 391 26 380 15 c 0,76,77
 367 4 367 4 352 -4 c 0,78,79
 335 -10 335 -10 317 -10 c 0,80,81
 298 -10 298 -10 283 -4 c 0,82,83
 275 0 275 0 268 4.5 c 128,-1,84
 261 9 261 9 255 15 c 0,85,86
 242 28 242 28 236 43 c 256,87,88
 230 58 230 58 230 77 c 0,89,90
 230 95 230 95 236 110 c 256,91,92
 242 125 242 125 255 138 c 0,93,94
 261 144 261 144 268 148.5 c 128,-1,95
 275 153 275 153 283 157 c 0,96,97
 298 163 298 163 317 163 c 0,98,99
 335 163 335 163 352 157 c 0,100,101
 367 149 367 149 380 138 c 0,68,69
610 138 m 0,102,103
 621 127 621 127 628 110 c 0,104,105
 635 96 635 96 635 77 c 0,106,107
 635 57 635 57 628 43 c 0,108,109
 621 26 621 26 610 15 c 0,110,111
 597 4 597 4 582 -4 c 0,112,113
 565 -10 565 -10 547 -10 c 0,114,115
 528 -10 528 -10 513 -4 c 0,116,117
 505 0 505 0 498 4.5 c 128,-1,118
 491 9 491 9 485 15 c 0,119,120
 472 28 472 28 466 43 c 256,121,122
 460 58 460 58 460 77 c 0,123,124
 460 95 460 95 466 110 c 256,125,126
 472 125 472 125 485 138 c 0,127,128
 491 144 491 144 498 148.5 c 128,-1,129
 505 153 505 153 513 157 c 0,130,131
 528 163 528 163 547 163 c 0,132,133
 565 163 565 163 582 157 c 0,134,135
 597 149 597 149 610 138 c 0,102,103
EndSplineSet
Validated: 5
EndChar

StartChar: OE
Encoding: 276 338 185
Width: 723
Flags: W
LayerCount: 2
Fore
SplineSet
418 576 m 5,0,-1
 418 432 l 1,1,-1
 544 432 l 2,2,3
 571 432 571 432 589.499122065 413.608863888 c 0,4,5
 608 395 608 395 608 368.5 c 0,6,7
 608 340 608 340 590 322 c 0,8,9
 571 303 571 303 544 303 c 2,10,-1
 418 303 l 1,11,-1
 418 129 l 1,12,-1
 588 130 l 2,13,14
 614.842105263 130.157894737 614.842105263 130.157894737 634 111 c 0,15,16
 645 100 645 100 653 65 c 1,17,18
 653 38 653 38 634 19 c 128,-1,19
 615 0 615 0 588 0 c 2,20,-1
 225 0 l 2,21,22
 123 0 123 0 60 66 c 0,23,24
 0 129 0 129 0 231 c 2,25,-1
 0 474 l 6,26,27
 0 525 0 525 10 552 c 4,28,29
 31 610 31 610 55.2348242812 635.484025559 c 4,30,31
 121 706 121 706 225 706 c 6,32,-1
 585 706 l 6,33,34
 612 706 612 706 631 687 c 260,35,36
 650 668 650 668 650 641 c 260,37,38
 650 614 650 614 631 595 c 260,39,40
 612 576 612 576 585 576 c 6,41,-1
 418 576 l 5,0,-1
271 575 m 5,42,-1
 233 575 l 6,43,44
 168 575 168 575 151 513 c 4,45,46
 145 493 145 493 145 470 c 6,47,-1
 145 235 l 2,48,49
 145 188 145 188 168 158 c 0,50,51
 189 130 189 130 233 130 c 2,52,-1
 271 130 l 1,53,-1
 271 575 l 5,42,-1
EndSplineSet
Validated: 33
EndChar

StartChar: endash
Encoding: 278 8211 187
Width: 533
Flags: W
LayerCount: 2
Fore
SplineSet
0 364 m 256,0,1
 0 390 0 390 18 408 c 0,2,3
 37 427 37 427 62 427 c 2,4,-1
 314 427 l 1,5,-1
 416 427 l 2,6,7
 442 427 442 427 461 408 c 0,8,9
 479 390 479 390 479 364 c 256,10,11
 479 338 479 338 461 320 c 0,12,13
 441 302 441 302 416 302 c 2,14,-1
 314 302 l 1,15,-1
 62 302 l 2,16,17
 38 302 38 302 18 320 c 0,18,19
 0 338 0 338 0 364 c 256,0,1
EndSplineSet
Validated: 1
EndChar

StartChar: emdash
Encoding: 279 8212 188
Width: 624
Flags: W
LayerCount: 2
Fore
SplineSet
0 364 m 256,0,1
 0 390 0 390 18 408 c 0,2,3
 37 427 37 427 62 427 c 2,4,-1
 384 427 l 1,5,-1
 516 427 l 2,6,7
 542 427 542 427 561 408 c 0,8,9
 579 390 579 390 579 364 c 256,10,11
 579 338 579 338 561 320 c 0,12,13
 541 302 541 302 516 302 c 2,14,-1
 384 302 l 1,15,-1
 62 302 l 2,16,17
 38 302 38 302 18 320 c 0,18,19
 0 338 0 338 0 364 c 256,0,1
EndSplineSet
Validated: 1
EndChar

StartChar: quoteleft
Encoding: 282 8216 191
Width: 271
Flags: W
LayerCount: 2
Fore
SplineSet
103.383789062 392.68359375 m 0,0,1
 61.4892578125 392.68359375 61.4892578125 392.68359375 32.8232421875 421.349609375 c 128,-1,2
 4.158203125 450.014648438 4.158203125 450.014648438 4.158203125 491.909179688 c 0,3,4
 4.158203125 507.34375 4.158203125 507.34375 6.3642578125 516.1640625 c 2,5,-1
 10.22265625 531.599609375 l 2,6,7
 14.6328125 549.239257812 14.6328125 549.239257812 25.1064453125 570.1875 c 256,8,9
 28.4140625 576.801757812 28.4140625 576.801757812 31.720703125 583.96875 c 128,-1,10
 35.029296875 591.133789062 35.029296875 591.133789062 39.439453125 598.8515625 c 2,11,-1
 86.845703125 684.846679688 l 1,12,13
 96.107421875 708 96.107421875 708 124 708 c 128,-1,14
 151.893554688 708 151.893554688 708 164.572265625 687.051757812 c 128,-1,15
 177.251953125 666.104492188 177.251953125 666.104492188 166.2265625 644.0546875 c 2,16,-1
 140.869140625 588.9296875 l 1,17,18
 134.033203125 582.09375 134.033203125 582.09375 145.279296875 574.596679688 c 0,19,20
 180.34765625 560.569335938 180.34765625 560.569335938 194.891601562 520.575195312 c 0,21,22
 200.404296875 504.037109375 200.404296875 504.037109375 200.404296875 486.948242188 c 0,23,24
 200.404296875 429.06640625 200.404296875 429.06640625 140.869140625 399.299804688 c 0,25,26
 124.331054688 392.68359375 124.331054688 392.68359375 103.383789062 392.68359375 c 0,0,1
EndSplineSet
Validated: 33
EndChar

StartChar: divide
Encoding: 247 247 193
Width: 566
Flags: W
LayerCount: 2
Fore
SplineSet
166 139 m 0,0,1
 192 191 192 191 247.5 191 c 0,2,3
 276.4 191 276.4 191 289.7 181.5 c 0,4,5
 319.594827586 160.146551724 319.594827586 160.146551724 327.297413793 140.462164751 c 128,-1,6
 335 120.777777778 335 120.777777778 335 105 c 256,7,8
 335 89.6666666667 335 89.6666666667 328 71.8333333333 c 0,9,10
 307.261682243 19 307.261682243 19 249.630841121 19 c 128,-1,11
 192 19 192 19 166 71 c 0,12,13
 160 87 160 87 160 104.5 c 128,-1,14
 160 122 160 122 166 139 c 0,0,1
243 426 m 256,15,16
 227.666666667 426 227.666666667 426 209.833333333 433 c 128,-1,17
 192 440 192 440 183.5 448.5 c 0,18,19
 156 476 156 476 156 513 c 0,20,21
 156 566.5 156 566.5 209 593 c 0,22,23
 225 599 225 599 243.5 599 c 0,24,25
 281 599 281 599 306 574 c 128,-1,26
 331 549 331 549 331 512.5 c 128,-1,27
 331 476 331 476 306 451 c 128,-1,28
 281 426 281 426 243 426 c 256,15,16
60 249 m 2,29,30
 35 249 35 249 17.5 266.5 c 128,-1,31
 0 284 0 284 0 308.5 c 128,-1,32
 0 333 0 333 18 351 c 0,33,34
 34 369 34 369 60 369 c 2,35,-1
 437 369 l 2,36,37
 461 369 461 369 478.5 351.5 c 128,-1,38
 496 334 496 334 496 308.5 c 128,-1,39
 496 283 496 283 479 266 c 128,-1,40
 462 249 462 249 437 249 c 2,41,-1
 60 249 l 2,29,30
EndSplineSet
Validated: 1
EndChar

StartChar: Euro
Encoding: 286 8364 197
Width: 601
Flags: W
LayerCount: 2
Fore
SplineSet
70 253 m 1,0,-1
 70 214 l 2,1,2
 70 105 70 105 131 50 c 0,3,4
 142 40 142 40 153 31.5 c 0,5,6
 212 -14 212 -14 318.5 -14 c 0,7,8
 354 -14 354 -14 396 2.5 c 0,9,10
 466 30 466 30 500.5 90.5 c 0,11,12
 511 109 511 109 521 140.111111111 c 0,13,14
 531 171 531 171 531 214 c 2,15,-1
 531 220 l 2,16,17
 531 249 531 249 509 271 c 0,18,19
 486 294 486 294 458 292 c 0,20,21
 426 290 426 290 407 271 c 0,22,23
 386 250 386 250 386 220 c 2,24,-1
 386 219 l 2,25,26
 386 196 386 196 381.911764706 181.558823529 c 0,27,28
 377 163 377 163 364 145 c 0,29,30
 345 118 345 118 301 118 c 128,-1,31
 257 118 257 118 240 142 c 0,32,33
 232 153 232 153 223.5 167.166666667 c 0,34,35
 215 182 215 182 215 220 c 2,36,-1
 215 253 l 2,37,-1
 289 253 l 2,38,39
 307 253 307 253 318 265 c 0,40,41
 330 278 330 278 330 293.5 c 0,42,43
 330 312 330 312 318.5 323.5 c 0,44,45
 307 335.5 307 335.5 289 336 c 2,46,-1
 215 336 l 2,47,-1
 215 384 l 2,48,-1
 289 384 l 2,49,50
 306 384 306 384 318 396 c 256,51,52
 330 408 330 408 330 425.5 c 128,-1,53
 330 443 330 443 318 455 c 256,54,55
 306 467 306 467 289 467 c 2,56,-1
 215 467 l 2,57,-1
 215 508 l 2,58,59
 215 525 215 525 223 539.5 c 0,60,61
 250 589 250 589 302.833333333 589 c 0,62,63
 340 589 340 589 373 549 c 0,64,65
 393 525 393 525 434.5 520.5 c 0,66,67
 458 518 458 518 480.5 535.5 c 128,-1,68
 503 553 503 553 505 581 c 256,69,70
 507 609 507 609 488 634 c 1,71,-1
 466.769230769 658.263736264 l 2,72,73
 451.444444444 675.777777778 451.444444444 675.777777778 423 690 c 0,74,75
 363 720 363 720 301 720 c 0,76,77
 212 720 212 720 153 674.5 c 0,78,79
 70 610 70 610 70 492 c 2,80,-1
 70 467 l 2,81,-1
 41 467 l 2,82,83
 24 467 24 467 12 455 c 128,-1,84
 0 443 0 443 0 425.5 c 128,-1,85
 0 408 0 408 12 396 c 128,-1,86
 24 384 24 384 41 384 c 2,87,-1
 70 384 l 2,88,-1
 70 336 l 1,89,-1
 41 336 l 1,90,91
 24 336 24 336 12 324 c 128,-1,92
 0 312 0 312 0 294.5 c 128,-1,93
 0 277 0 277 12 265 c 128,-1,94
 24 253 24 253 41 253 c 1,95,-1
 70 253 l 1,0,-1
EndSplineSet
Validated: 41
EndChar

StartChar: guilsinglleft
Encoding: 287 8249 198
Width: 298
Flags: W
LayerCount: 2
Fore
SplineSet
167 562 m 0,0,1
 185 562 185 562 198.5 553 c 128,-1,2
 212 544 212 544 220 530 c 256,3,4
 228 516 228 516 228 500 c 128,-1,5
 228 484 228 484 218 469 c 2,6,-1
 177 406 l 1,7,-1
 135 342 l 2,8,9
 132 337 132 337 132 331 c 0,10,11
 132 326 132 326 135 320 c 2,12,-1
 177 257 l 1,13,-1
 218 194 l 2,14,15
 228 179 228 179 228 162.5 c 128,-1,16
 228 146 228 146 220 132 c 0,17,18
 216 125 216 125 207.5 119.5 c 128,-1,19
 199 114 199 114 190 110 c 0,20,21
 179 105 179 105 167 101 c 1,22,23
 150 101 150 101 139 108 c 0,24,25
 124 116 124 116 117 129 c 2,26,-1
 63 213 l 1,27,-1
 10 296 l 2,28,29
 0 312 0 312 0 331 c 0,30,31
 0 340 0 340 2.5 349 c 128,-1,32
 5 358 5 358 10 366 c 2,33,-1
 63 450 l 1,34,-1
 117 534 l 2,35,36
 125 548 125 548 139 554 c 0,37,38
 152 562 152 562 167 562 c 0,0,1
EndSplineSet
Validated: 1
EndChar

StartChar: daggerdbl
Encoding: 289 8225 200
Width: 580
Flags: W
LayerCount: 2
Fore
SplineSet
184 511 m 1,0,-1
 63 511 l 2,1,2
 37 511 37 511 18 492 c 0,3,4
 0 474 0 474 0 448 c 256,5,6
 0 422 0 422 18 404 c 0,7,8
 37 385 37 385 63 385 c 2,9,-1
 184 385 l 1,10,-1
 183 215 l 1,11,-1
 63 215 l 2,12,13
 37 215 37 215 18 196 c 0,14,15
 0 178 0 178 0 152 c 256,16,17
 0 126 0 126 18 108 c 0,18,19
 37 89 37 89 63 89 c 2,20,-1
 184 89 l 1,21,-1
 184 -94 l 2,22,23
 184 -125 184 -125 205 -144 c 0,24,25
 228 -165 228 -165 255 -165 c 256,26,27
 284 -165 284 -165 305 -144 c 128,-1,28
 326 -123 326 -123 326 -94 c 2,29,-1
 326 88 l 1,30,-1
 447 89 l 2,31,32
 472 89 472 89 491 108 c 128,-1,33
 510 127 510 127 510 152 c 256,34,35
 510 177 510 177 491 196 c 128,-1,36
 472 215 472 215 447 215 c 2,37,-1
 326 215 l 1,38,-1
 326 385 l 1,39,-1
 447 385 l 2,40,41
 472 385 472 385 491 404 c 128,-1,42
 510 423 510 423 510 448 c 256,43,44
 510 473 510 473 491 492 c 128,-1,45
 472 511 472 511 447 511 c 2,46,-1
 326 511 l 1,47,-1
 327 644 l 6,48,49
 327.156716418 664.843283582 327.156716418 664.843283582 305 687 c 256,50,51
 284 708 284 708 255 708 c 256,52,53
 226 708 226 708 205 687 c 256,54,55
 185.174242424 667.174242424 185.174242424 667.174242424 185 644 c 6,56,-1
 184 511 l 1,0,-1
EndSplineSet
Validated: 41
EndChar

StartChar: periodcentered
Encoding: 183 183 201
Width: 245
Flags: W
LayerCount: 2
Fore
SplineSet
0 354 m 128,-1,1
 0 390 0 390 25 416 c 128,-1,2
 50 442 50 442 86 441.5 c 0,3,4
 122 442 122 442 147 416 c 128,-1,5
 172 390 172 390 172 354 c 128,-1,6
 172 318 172 318 147 292 c 128,-1,7
 122 266 122 266 86 266.5 c 0,8,9
 50 266 50 266 25 292 c 128,-1,0
 0 318 0 318 0 354 c 128,-1,1
EndSplineSet
Validated: 33
EndChar

StartChar: quotedblbase
Encoding: 291 8222 203
Width: 452
Flags: W
LayerCount: 2
Fore
SplineSet
357 136 m 0,0,1
 368 125 368 125 376 107 c 0,2,3
 382 92 382 92 382 73 c 0,4,5
 382 67 382 67 381.5 61 c 128,-1,6
 381 55 381 55 380 49 c 0,7,8
 378 43 378 43 376.5 37 c 128,-1,9
 375 31 375 31 373 25 c 0,10,11
 371 20 371 20 368.5 14 c 128,-1,12
 366 8 366 8 363 2 c 256,13,14
 360 -4 360 -4 357 -10.5 c 128,-1,15
 354 -17 354 -17 350 -24 c 2,16,-1
 329 -63 l 1,17,-1
 307 -102 l 2,18,19
 302 -111 302 -111 292 -118 c 0,20,21
 282 -123 282 -123 271 -123 c 0,22,23
 248 -123 248 -123 237 -104 c 0,24,25
 232 -96 232 -96 231 -86 c 128,-1,26
 230 -76 230 -76 235 -65 c 2,27,-1
 246 -40 l 1,28,-1
 258 -15 l 2,29,30
 261 -12 261 -12 259 -7 c 0,31,32
 257 -3 257 -3 253 -2 c 0,33,34
 249 0 249 0 245 2.5 c 128,-1,35
 241 5 241 5 237 8 c 0,36,37
 229 14 229 14 223 22 c 0,38,39
 213 36 213 36 209 47 c 0,40,41
 204 62 204 62 204 77 c 0,42,43
 204 96 204 96 211 110 c 0,44,45
 218 127 218 127 230 138 c 0,46,47
 236 144 236 144 243 148.5 c 128,-1,48
 250 153 250 153 258 157 c 0,49,50
 273 163 273 163 292 163 c 0,51,52
 313 163 313 163 328 156 c 0,53,54
 343 150 343 150 357 136 c 0,0,1
152 136 m 0,55,56
 164 125 164 125 171 107 c 0,57,58
 174 99 174 99 176 90.5 c 128,-1,59
 178 82 178 82 178 73 c 0,60,61
 178 61 178 61 175 49 c 0,62,63
 173 37 173 37 169 25 c 0,64,65
 167 20 167 20 164.5 14 c 128,-1,66
 162 8 162 8 159 2 c 256,67,68
 156 -4 156 -4 152.5 -10.5 c 128,-1,69
 149 -17 149 -17 146 -24 c 2,70,-1
 124 -63 l 1,71,-1
 103 -102 l 2,72,73
 96 -113 96 -113 88 -118 c 0,74,75
 78 -123 78 -123 67 -123 c 0,76,77
 44 -123 44 -123 33 -104 c 0,78,79
 28 -96 28 -96 26.5 -86 c 128,-1,80
 25 -76 25 -76 30 -65 c 2,81,-1
 42 -40 l 1,82,-1
 54 -15 l 2,83,84
 56 -12 56 -12 54 -7 c 0,85,86
 54 -4 54 -4 49 -2 c 0,87,88
 41 2 41 2 32 8 c 0,89,90
 28 11 28 11 25 14.5 c 128,-1,91
 22 18 22 18 18 22 c 0,92,93
 10 33 10 33 5 47 c 0,94,95
 0 62 0 62 0 77 c 0,96,97
 0 95 0 95 6 110 c 0,98,99
 10 118 10 118 14.5 125 c 128,-1,100
 19 132 19 132 26 138 c 0,101,102
 37 149 37 149 54 157 c 0,103,104
 69 163 69 163 87 163 c 0,105,106
 108 163 108 163 123 156 c 0,107,108
 140 150 140 150 152 136 c 0,55,56
EndSplineSet
Validated: 1
EndChar

StartChar: perthousand
Encoding: 292 8240 204
Width: 1084
Flags: W
LayerCount: 2
Fore
SplineSet
987 274 m 0,0,1
 1032 222.571289062 1032 222.571289062 1032 160 c 256,2,3
 1032 90 1032 90 987 45 c 128,-1,4
 942 0 942 0 874 0 c 256,5,6
 779.77734375 0 779.77734375 0 737 77 c 0,7,8
 716 110.599609375 716 110.599609375 716 166.5859375 c 128,-1,9
 716 222.571289062 716 222.571289062 761 274 c 1,10,11
 812.428710938 319 812.428710938 319 874 319 c 0,12,13
 917.727539062 319 917.727539062 319 944.86328125 303 c 128,-1,14
 972 287 972 287 987 274 c 0,0,1
874 226 m 256,15,16
 833 226 833 226 820 187 c 0,17,18
 816 176 816 176 816 160 c 256,19,20
 816 113.454101562 816 113.454101562 850 98 c 0,21,22
 862 93 862 93 874 93 c 256,23,24
 900.25 93 900.25 93 916 111 c 0,25,26
 932 127 932 127 932 160 c 256,27,28
 932 205.545898438 932 205.545898438 898 221 c 0,29,30
 886 226 886 226 874 226 c 256,15,16
456 677 m 1,31,32
 469 703 469 703 500 703 c 128,-1,33
 531 703 531 703 544 678 c 0,34,35
 559.416666667 653.773809524 559.416666667 653.773809524 545 627 c 2,36,-1
 207 24 l 1,37,38
 190.285714286 -2 190.285714286 -2 162 -2 c 256,39,40
 133.909090909 -2 133.909090909 -2 118 23 c 256,41,42
 102.583333333 47.2261904762 102.583333333 47.2261904762 117 74 c 2,43,-1
 456 677 l 1,31,32
158 697 m 256,44,45
 219.571428571 697 219.571428571 697 271 652 c 1,46,47
 316 607 316 607 316 538 c 256,48,49
 316 498.777777778 316 498.777777778 308 481.888888889 c 0,50,51
 288.3 440.3 288.3 440.3 272.15 424.15 c 0,52,53
 227 379 227 379 158 379 c 256,54,55
 78.6 379 78.6 379 31 438.5 c 0,56,57
 15.6666666667 457.666666667 15.6666666667 457.666666667 7.83333333333 487.333333333 c 128,-1,58
 0 517 0 517 0 538 c 256,59,60
 0 580 0 580 20 620 c 0,61,62
 50.9775280899 671.629213483 50.9775280899 671.629213483 115 692 c 0,63,64
 138 697 138 697 158 697 c 256,44,45
158 604 m 256,65,66
 117 604 117 604 104 565 c 0,67,68
 100 554 100 554 100 538 c 256,69,70
 100 491.454545455 100 491.454545455 134 476 c 0,71,72
 143 472 143 472 158 472 c 256,73,74
 185.125 472 185.125 472 200 489 c 0,75,76
 216 505 216 505 216 538 c 256,77,78
 216 570 216 570 200 586 c 0,79,80
 185.6 604 185.6 604 158 604 c 256,65,66
611 274 m 0,81,82
 656 222.571428571 656 222.571428571 656 160 c 256,83,84
 656 90 656 90 611 45 c 128,-1,85
 566 -2.42861286637e-17 566 -2.42861286637e-17 498 0 c 256,86,87
 403.777777778 0 403.777777778 0 361 77 c 0,88,89
 340 110.6 340 110.6 340 166.585714286 c 128,-1,90
 340 222.571428571 340 222.571428571 385 274 c 1,91,92
 436.428571429 319 436.428571429 319 498 319 c 0,93,94
 541.727272727 319 541.727272727 319 568.863636364 303 c 128,-1,95
 596 287 596 287 611 274 c 0,81,82
498 226 m 256,96,97
 457 226 457 226 444 187 c 0,98,99
 440 176 440 176 440 160 c 256,100,101
 440 113.454545455 440 113.454545455 474 98 c 0,102,103
 486 93 486 93 498 93 c 256,104,105
 524.25 93 524.25 93 540 111 c 0,106,107
 556 127 556 127 556 160 c 256,108,109
 556 205.545454545 556 205.545454545 522 221 c 0,110,111
 510 226 510 226 498 226 c 256,96,97
EndSplineSet
Validated: 2081
EndChar

StartChar: circumflex
Encoding: 294 710 221
Width: 361
Flags: W
LayerCount: 2
Fore
SplineSet
177 893 m 6,0,1
 229.7 893 229.7 893 257 851 c 5,2,-1
 270 834 l 5,3,-1
 282 816 l 6,4,5
 300.090452261 789.869346734 300.090452261 789.869346734 285.181589767 763.434673367 c 132,-1,6
 270.272727273 737 270.272727273 737 244.27922078 737 c 132,-1,7
 218.285714286 737 218.285714286 737 202 756 c 5,8,-1
 171 796 l 5,9,10
 160 808 160 808 145.5 808 c 132,-1,11
 131 808 131 808 121 796 c 6,12,-1
 89 756 l 5,13,14
 72.1111111111 737 72.1111111111 737 53.5555555556 737 c 4,15,16
 20.7272727273 737 20.7272727273 737 6.86363636365 763.5 c 132,-1,17
 -7 790 -7 790 9 816 c 5,18,-1
 21 834 l 5,19,-1
 34 851 l 5,20,21
 61.3 893 61.3 893 114 893 c 6,22,-1
 177 893 l 6,0,1
EndSplineSet
Validated: 33
EndChar

StartChar: tilde
Encoding: 295 732 222
Width: 389
Flags: W
LayerCount: 2
Fore
SplineSet
333.825195312 890.649414062 m 256,0,1
 350.625 890.649414062 350.625 890.649414062 363.225585938 877 c 128,-1,2
 375.825195312 863.349609375 375.825195312 863.349609375 373.725585938 844.44921875 c 2,3,-1
 372.674804688 829.75 l 2,4,5
 371.625 825.549804688 371.625 825.549804688 369 814 c 128,-1,6
 366.375 802.44921875 366.375 802.44921875 360.600585938 791.94921875 c 0,7,8
 324.560546875 726.422851562 324.560546875 726.422851562 259.275390625 732.099609375 c 0,9,10
 245.625 732.099609375 245.625 732.099609375 235.125 734.19921875 c 2,11,-1
 213.075195312 740.5 l 2,12,13
 211.325195312 741.899414062 211.325195312 741.899414062 202.225585938 746.44921875 c 2,14,-1
 166.875 764.649414062 l 1,15,-1
 155.325195312 769.899414062 l 2,16,17
 152.174804688 772 152.174804688 772 149.025390625 773.049804688 c 128,-1,18
 145.875 774.099609375 145.875 774.099609375 143.25 775.674804688 c 0,19,20
 113.71875 793.393554688 113.71875 793.393554688 96.525390625 776.19921875 c 0,21,22
 90.2255859375 770.94921875 90.2255859375 770.94921875 89.1748046875 755.19921875 c 128,-1,23
 88.125 739.44921875 88.125 739.44921875 75 729.474609375 c 128,-1,24
 61.875 719.5 61.875 719.5 44.5498046875 720.549804688 c 128,-1,25
 27.2255859375 721.599609375 27.2255859375 721.599609375 15.6748046875 734.724609375 c 128,-1,26
 4.125 747.849609375 4.125 747.849609375 5.1748046875 765.69921875 c 1,27,-1
 7.275390625 780.399414062 l 1,28,29
 7.275390625 797.724609375 7.275390625 797.724609375 17.775390625 817.9375 c 0,30,31
 50.5625 881.052734375 50.5625 881.052734375 119.625 878.049804688 c 0,32,33
 133.275390625 878.049804688 133.275390625 878.049804688 141.674804688 875.94921875 c 128,-1,34
 150.075195312 873.849609375 150.075195312 873.849609375 155.325195312 872.799804688 c 128,-1,35
 160.575195312 871.75 160.575195312 871.75 164.25 869.649414062 c 128,-1,36
 167.924804688 867.549804688 167.924804688 867.549804688 171.075195312 867.024414062 c 128,-1,37
 174.225585938 866.5 174.225585938 866.5 177.375 864.399414062 c 256,38,39
 180.525390625 862.299804688 180.525390625 862.299804688 184.025390625 860.899414062 c 128,-1,40
 187.525390625 859.5 187.525390625 859.5 197.325195312 853.899414062 c 0,41,42
 236.700195312 833.424804688 236.700195312 833.424804688 240.637695312 832.112304688 c 128,-1,43
 244.575195312 830.799804688 244.575195312 830.799804688 250.174804688 828.69921875 c 128,-1,44
 255.775390625 826.599609375 255.775390625 826.599609375 265.924804688 826.599609375 c 128,-1,45
 276.075195312 826.599609375 276.075195312 826.599609375 282.375 833.94921875 c 0,46,47
 290.775390625 840.25 290.775390625 840.25 290.775390625 853.899414062 c 128,-1,48
 290.775390625 867.549804688 290.775390625 867.549804688 304.424804688 881.19921875 c 0,49,50
 317.025390625 890.649414062 317.025390625 890.649414062 333.825195312 890.649414062 c 256,0,1
EndSplineSet
Validated: 33
EndChar

StartChar: macron
Encoding: -1 175 223
Width: 650
Flags: W
LayerCount: 2
Fore
SplineSet
27 708 m 260,0,1
 27 734 27 734 45 752 c 4,2,3
 64 771 64 771 89 771 c 6,4,-1
 431 771 l 5,5,-1
 563 771 l 6,6,7
 589 771 589 771 608 752 c 4,8,9
 626 734 626 734 626 708 c 260,10,11
 626 682 626 682 608 664 c 4,12,13
 588 646 588 646 563 646 c 6,14,-1
 431 646 l 5,15,-1
 89 646 l 6,16,17
 65 646 65 646 45 664 c 4,18,19
 27 682 27 682 27 708 c 260,0,1
EndSplineSet
Validated: 1
EndChar

StartChar: uni00AD
Encoding: 173 173 226
Width: 399
Flags: W
LayerCount: 2
Fore
SplineSet
0 364 m 256,0,1
 0 390 0 390 18.5 408.5 c 128,-1,2
 37 427 37 427 62 427 c 2,3,-1
 266 427 l 2,4,5
 292 427 292 427 310.5 408.5 c 128,-1,6
 329 390 329 390 329 364 c 256,7,8
 329 338 329 338 311 320 c 0,9,10
 291 302 291 302 266 302 c 2,11,-1
 62 302 l 2,12,13
 38 302 38 302 18 320 c 0,14,15
 0 338 0 338 0 364 c 256,0,1
EndSplineSet
Validated: 1
EndChar

StartChar: currency
Encoding: 164 164 227
Width: 740
Flags: W
LayerCount: 2
Fore
SplineSet
332 69 m 0,0,1
 247 69 247 69 170 111 c 1,2,-1
 135 43 l 2,3,4
 126 24 126 24 109 15 c 0,5,6
 91 4 91 4 72 4 c 0,7,8
 35 4 35 4 13 37 c 0,9,10
 2 54 2 54 2 71.5 c 128,-1,11
 2 89 2 89 11 106 c 2,12,-1
 63 209 l 1,13,14
 45 236 45 236 32 267 c 0,15,16
 8 326 8 326 8 394 c 0,17,18
 8 504 8 504 67 585 c 1,19,-1
 19 679 l 2,20,21
 11 695 11 695 11 712.5 c 128,-1,22
 11 730 11 730 22 748 c 0,23,24
 44 782 44 782 81 782 c 0,25,26
 111 782 111 782 130 763 c 0,27,28
 138 755 138 755 144 743 c 2,29,-1
 175 680 l 1,30,31
 217 703 217 703 267 712 c 0,32,33
 298 718 298 718 332 718.5 c 128,-1,34
 366 719 366 719 397 712 c 0,35,36
 443 703 443 703 482 684 c 1,37,-1
 511 741 l 2,38,39
 517 753 517 753 525 761 c 0,40,41
 544 780 544 780 573 780 c 0,42,43
 611 780 611 780 633 746 c 0,44,45
 644 728 644 728 644 711 c 128,-1,46
 644 694 644 694 636 678 c 0,47,48
 614 635 614 635 593 591 c 1,49,50
 657 507 657 507 657 394 c 0,51,52
 657 290 657 290 603 211 c 1,53,-1
 656 107 l 2,54,55
 664 91 664 91 664 74 c 128,-1,56
 664 57 664 57 653 39 c 0,57,58
 631 6 631 6 593 6 c 0,59,60
 574 6 574 6 556.5 16.5 c 128,-1,61
 539 27 539 27 531 44 c 2,62,-1
 497 111 l 1,63,64
 452 85 452 85 397 75 c 0,65,66
 366 69 366 69 332 69 c 0,0,1
319 192 m 0,67,68
 374 192 374 192 410 207 c 128,-1,69
 446 222 446 222 473.5 249 c 128,-1,70
 501 276 501 276 514 314 c 0,71,72
 514 315 514 315 515 315 c 0,73,74
 529 351 529 351 529 393 c 0,75,76
 529 483 529 483 474 538 c 0,77,78
 417 595 417 595 332 595 c 0,79,80
 292 595 292 595 255.5 580.5 c 128,-1,81
 219 566 219 566 193 540 c 128,-1,82
 167 514 167 514 150 473 c 0,83,84
 136 436 136 436 135.5 393.5 c 128,-1,85
 135 351 135 351 150.5 312.5 c 128,-1,86
 166 274 166 274 192 247.5 c 128,-1,87
 218 221 218 221 253.5 206.5 c 128,-1,88
 289 192 289 192 319 192 c 0,67,68
EndSplineSet
Validated: 33
EndChar

StartChar: cedilla
Encoding: 184 184 228
Width: 531
Flags: W
LayerCount: 2
Fore
SplineSet
254 -26 m 1,0,1
 247 -40 247 -40 260 -42 c 0,2,3
 318 -51 318 -51 338 -94 c 0,4,5
 345 -109 345 -109 345 -130 c 128,-1,6
 345 -151 345 -151 339 -165 c 0,7,8
 321 -207 321 -207 275 -222 c 0,9,10
 257 -228 257 -228 236.5 -228 c 0,11,12
 185 -228 185 -228 163 -217 c 0,13,14
 161 -216 161 -216 159 -215.5 c 128,-1,15
 157 -215 157 -215 155 -213.5 c 128,-1,16
 153 -212 153 -212 150.5 -211 c 0,17,18
 132 -203 132 -203 128.324324324 -186.22972973 c 0,19,20
 125 -167 125 -167 134 -155 c 0,21,22
 148 -137 148 -137 170 -140 c 0,23,24
 182 -142 182 -142 185.833333333 -145.333333333 c 0,25,26
 190 -149 190 -149 191 -149 c 128,-1,27
 192 -149 192 -149 194.5 -150.5 c 0,28,29
 196 -151 196 -151 210 -154 c 256,30,31
 220 -156 220 -156 227 -156 c 0,32,33
 247 -156 247 -156 253.7 -151 c 0,34,35
 267 -140 267 -140 267 -132.722222222 c 0,36,37
 267 -125 267 -125 264.5 -121.5 c 0,38,39
 256 -109 256 -109 246.761363636 -107.465909091 c 0,40,41
 232 -105 232 -105 226 -105 c 256,42,43
 221 -105 221 -105 218 -106 c 0,44,45
 207 -110 207 -110 191 -104 c 0,46,47
 188.461538462 -103.153846154 188.461538462 -103.153846154 186 -101 c 2,48,-1
 178 -94 l 1,49,-1
 170 -86 l 2,50,51
 164 -80 164 -80 162 -72 c 256,52,53
 160 -63 160 -63 164 -57 c 1,54,-1
 189 0 l 1,55,-1
 268 0 l 1,56,-1
 254 -26 l 1,0,1
EndSplineSet
Validated: 33
EndChar

StartChar: logicalnot
Encoding: 172 172 229
Width: 658
Flags: W
LayerCount: 2
Fore
SplineSet
487 369 m 1,0,-1
 487 203 l 2,1,2
 487 162 487 162 526.5 143.5 c 0,3,4
 538 138 538 138 552 138 c 256,5,6
 579 138 579 138 598 157 c 128,-1,7
 617 176 617 176 617 203 c 2,8,-1
 617 449 l 2,9,10
 617 476 617 476 598 495 c 256,11,12
 579 514 579 514 552 514 c 2,13,-1
 82 514 l 2,14,15
 55 514 55 514 36 495 c 256,16,17
 17 476 17 476 17 449 c 2,18,-1
 17 434 l 2,19,20
 17 407 17 407 36 388 c 128,-1,21
 55 369 55 369 82 369 c 2,22,-1
 487 369 l 1,0,-1
EndSplineSet
Validated: 9
EndChar

StartChar: ordfeminine
Encoding: 170 170 230
Width: 451
VWidth: 838
Flags: W
LayerCount: 2
Fore
SplineSet
267.306640625 632.506835938 m 1,0,-1
 267.306640625 699.006835938 l 2,1,2
 267 719 267 719 257.306640625 731.256835938 c 0,3,4
 247 744 247 744 224.806640625 743.756835938 c 0,5,6
 202 744 202 744 192.056640625 730.006835938 c 0,7,8
 181.806640625 716.75 181.806640625 716.75 181.806640625 699.006835938 c 2,9,-1
 181.806640625 632.506835938 l 1,10,-1
 267.306640625 632.506835938 l 1,0,-1
242.311523438 543.51171875 m 1,11,-1
 206.801757812 543.51171875 l 1,12,-1
 206.801757812 492.506835938 l 2,13,14
 207 467 207 467 188.984375 448.829101562 c 0,15,16
 171 431 171 431 145.556640625 431.01171875 c 128,-1,17
 120 431 120 431 102.12890625 448.829101562 c 128,-1,18
 84.3115234375 466.6875 84.3115234375 466.6875 84.3115234375 492.506835938 c 2,19,-1
 84.3115234375 702.006835938 l 2,20,21
 84 768 84 768 137.432617188 807.353515625 c 0,22,23
 174 834 174 834 222 835 c 0,24,25
 285 835 285 835 319.0546875 803.873046875 c 0,26,27
 364.80078125 762.181640625 364.80078125 762.181640625 364.80078125 702.26171875 c 2,28,-1
 364.80078125 492.506835938 l 2,29,30
 365 467 365 467 346.984375 448.829101562 c 0,31,32
 329 431 329 431 303.556640625 431.01171875 c 128,-1,33
 278 431 278 431 260.12890625 448.829101562 c 128,-1,34
 242.311523438 466.6875 242.311523438 466.6875 242.311523438 492.506835938 c 2,35,-1
 242.311523438 543.51171875 l 1,11,-1
EndSplineSet
Validated: 33
EndChar

